<svg width="16" height="16" viewBox="0 0 16 16" fill="none" xmlns="http://www.w3.org/2000/svg">
<rect width="16" height="16" fill="white"/>
<path d="M4.45833 0C3.93125 0 3.5 0.45 3.5 1V15C3.5 15.55 3.93125 16 4.45833 16H14.0417C14.5687 16 15 15.55 15 15V3.6129L11.25 0H4.45833Z" fill="#E2E5E7"/>
<path d="M12 3.6129H15L11.25 0L11.3125 2.90323C11.3125 3.20766 11.25 3.6129 12 3.6129Z" fill="#B0B7BD"/>
<path d="M15 6.71006L12 3.61328H15V6.71006Z" fill="#CAD1D8"/>
<path d="M3.5 7.74219H13V13.3804C13 13.9722 12.5203 14.4519 11.9286 14.4519H3.5V7.74219Z" fill="#CA4942"/>
<rect x="1" y="5.67773" width="12" height="8.25806" rx="2" fill="#FF5C52"/>
<path d="M6.33538 8.75391L5.80608 11H5.08733L5.96429 8.15625H6.4135L6.33538 8.75391ZM6.74944 11L6.22015 8.75391L6.13225 8.15625H6.58929L7.46819 11H6.74944ZM6.77093 9.93945V10.4688H5.5385V9.93945H6.77093ZM8.70368 8.15625V11H8.03767V8.15625H8.70368Z" fill="white"/>
</svg>
