<svg width="16" height="16" viewBox="0 0 16 16" fill="none" xmlns="http://www.w3.org/2000/svg">
<rect width="16" height="16" fill="white"/>
<path d="M4.45833 0C3.93125 0 3.5 0.45 3.5 1V15C3.5 15.55 3.93125 16 4.45833 16H14.0417C14.5687 16 15 15.55 15 15V3.6129L11.25 0H4.45833Z" fill="#E2E5E7"/>
<path d="M12 3.6129H15L11.25 0L11.3125 2.90323C11.3125 3.20766 11.25 3.6129 12 3.6129Z" fill="#B0B7BD"/>
<path d="M15 6.71006L12 3.61328H15V6.71006Z" fill="#CAD1D8"/>
<path d="M3.5 7.74219H13V13.3804C13 13.9722 12.5203 14.4519 11.9286 14.4519H3.5V7.74219Z" fill="#1B879E"/>
<rect x="1" y="5.67773" width="12" height="8.25806" rx="2" fill="#21B3D2"/>
<path d="M4.46959 8.75391L3.94029 11H3.22154L4.09849 8.15625H4.54771L4.46959 8.75391ZM4.88365 11L4.35435 8.75391L4.26646 8.15625H4.72349L5.6024 11H4.88365ZM4.90513 9.93945V10.4688H3.67271V9.93945H4.90513ZM7.13086 10.0352H6.5625V9.50586H7.13086C7.19727 9.50586 7.25065 9.48958 7.29102 9.45703C7.33268 9.42448 7.36263 9.37956 7.38086 9.32227C7.40039 9.26367 7.41016 9.19792 7.41016 9.125C7.41016 9.04688 7.40039 8.97461 7.38086 8.9082C7.36263 8.8418 7.33268 8.78841 7.29102 8.74805C7.25065 8.70638 7.19727 8.68555 7.13086 8.68555H6.80664V11H6.13867V8.15625H7.13086C7.32747 8.15625 7.49674 8.19792 7.63867 8.28125C7.7819 8.36458 7.89193 8.47917 7.96875 8.625C8.04688 8.76953 8.08594 8.9349 8.08594 9.12109C8.08594 9.30469 8.04688 9.46484 7.96875 9.60156C7.89193 9.73828 7.7819 9.84505 7.63867 9.92188C7.49674 9.9974 7.32747 10.0352 7.13086 10.0352ZM9.42885 8.15625V11H8.76088V8.15625H9.42885ZM10.839 8.15625L9.94057 9.59766L9.38783 10.3027L9.26088 9.67383L9.59291 9.04883L10.0167 8.15625H10.839ZM10.0343 11L9.51479 9.71875L10.0363 9.32617L10.8234 11H10.0343Z" fill="white"/>
</svg>
