<svg width="16" height="16" viewBox="0 0 16 16" fill="none" xmlns="http://www.w3.org/2000/svg">
<rect width="16" height="16" fill="white"/>
<path d="M4.45833 0C3.93125 0 3.5 0.45 3.5 1V15C3.5 15.55 3.93125 16 4.45833 16H14.0417C14.5687 16 15 15.55 15 15V3.6129L11.25 0H4.45833Z" fill="#E2E5E7"/>
<path d="M12 3.6129H15L11.25 0L11.3125 2.90323C11.3125 3.20766 11.25 3.6129 12 3.6129Z" fill="#B0B7BD"/>
<path d="M15 6.71006L12 3.61328H15V6.71006Z" fill="#CAD1D8"/>
<path d="M3.5 7.74219H13V13.3804C13 13.9722 12.5203 14.4519 11.9286 14.4519H3.5V7.74219Z" fill="#5534AF"/>
<rect x="1" y="5.67773" width="12" height="8.25806" rx="2" fill="#7C4CFF"/>
<path d="M4.61217 8.75391L4.08287 11H3.36412L4.24107 8.15625H4.69029L4.61217 8.75391ZM5.02623 11L4.49693 8.75391L4.40904 8.15625H4.86607L5.74498 11H5.02623ZM5.04771 9.93945V10.4688H3.81529V9.93945H5.04771ZM6.2832 8.15625H7.25586C7.44596 8.15625 7.61068 8.1888 7.75 8.25391C7.88932 8.31901 7.99609 8.41536 8.07031 8.54297C8.14583 8.67057 8.18359 8.82812 8.18359 9.01562C8.18359 9.17839 8.16276 9.31445 8.12109 9.42383C8.08073 9.5332 8.02344 9.6237 7.94922 9.69531C7.875 9.76562 7.78776 9.82357 7.6875 9.86914L7.4707 9.99609H6.70703L6.70312 9.4668H7.24023C7.30143 9.4668 7.35221 9.45117 7.39258 9.41992C7.43294 9.38867 7.46289 9.3444 7.48242 9.28711C7.50326 9.22852 7.51367 9.15885 7.51367 9.07812C7.51367 8.99609 7.50391 8.92578 7.48438 8.86719C7.46484 8.80859 7.4362 8.76367 7.39844 8.73242C7.36198 8.70117 7.31445 8.68555 7.25586 8.68555H6.95117V11H6.2832V8.15625ZM7.54297 11L7.03906 9.74219L7.74609 9.73828L8.25977 10.9707V11H7.54297ZM9.79213 10.1074V8.15625H10.4581V10.1074C10.4581 10.2975 10.4204 10.4622 10.3449 10.6016C10.2706 10.7409 10.1691 10.849 10.0402 10.9258C9.91257 11.0013 9.76934 11.0391 9.61049 11.0391C9.44773 11.0391 9.3019 11.0072 9.17299 10.9434C9.04539 10.8796 8.94513 10.7812 8.87221 10.6484C8.79929 10.5156 8.76283 10.3464 8.76283 10.1406H9.43276C9.43276 10.237 9.43927 10.3125 9.45229 10.3672C9.46661 10.4206 9.48679 10.4583 9.51283 10.4805C9.53888 10.5013 9.57143 10.5117 9.61049 10.5117C9.65216 10.5117 9.68601 10.4961 9.71205 10.4648C9.73809 10.4323 9.75763 10.3861 9.77065 10.3262C9.78497 10.265 9.79213 10.1921 9.79213 10.1074Z" fill="white"/>
</svg>
