<svg width="16" height="16" viewBox="0 0 16 16" fill="none" xmlns="http://www.w3.org/2000/svg">
<rect width="16" height="16" fill="white"/>
<path d="M4.45833 0C3.93125 0 3.5 0.45 3.5 1V15C3.5 15.55 3.93125 16 4.45833 16H14.0417C14.5687 16 15 15.55 15 15V3.6129L11.25 0H4.45833Z" fill="#E2E5E7"/>
<path d="M12 3.6129H15L11.25 0L11.3125 2.90323C11.3125 3.20766 11.25 3.6129 12 3.6129Z" fill="#B0B7BD"/>
<path d="M15 6.71006L12 3.61328H15V6.71006Z" fill="#CAD1D8"/>
<path d="M3.5 7.74219H13V13.3804C13 13.9722 12.5203 14.4519 11.9286 14.4519H3.5V7.74219Z" fill="#CA4942"/>
<rect x="1" y="5.67773" width="12" height="8.25806" rx="2" fill="#FF5C52"/>
<path d="M2.69754 9.79102H2.1077L2.10379 9.3418H2.58036C2.65978 9.3418 2.72228 9.33008 2.76786 9.30664C2.81343 9.2819 2.84598 9.24609 2.86551 9.19922C2.88635 9.15234 2.89676 9.09375 2.89676 9.02344C2.89676 8.94271 2.88635 8.8776 2.86551 8.82812C2.84468 8.77865 2.81148 8.74284 2.7659 8.7207C2.72163 8.69727 2.66369 8.68555 2.59208 8.68555H2.3577V11H1.68973V8.15625H2.59208C2.74442 8.15625 2.88049 8.17253 3.00028 8.20508C3.12007 8.23633 3.22163 8.28451 3.30497 8.34961C3.3896 8.41471 3.45405 8.49674 3.49833 8.5957C3.5426 8.69336 3.56473 8.80859 3.56473 8.94141C3.56473 9.05729 3.54325 9.16602 3.50028 9.26758C3.45861 9.36914 3.38635 9.45182 3.28348 9.51562C3.18062 9.57812 3.03934 9.61068 2.85965 9.61328L2.69754 9.79102ZM2.67411 11H1.94169L2.17215 10.4727H2.67411C2.74182 10.4727 2.79455 10.4583 2.83231 10.4297C2.87007 10.3997 2.89676 10.3607 2.91239 10.3125C2.92801 10.263 2.93583 10.2083 2.93583 10.1484C2.93583 10.0755 2.92801 10.0124 2.91239 9.95898C2.89807 9.9056 2.87398 9.86458 2.84012 9.83594C2.80627 9.80599 2.75874 9.79102 2.69754 9.79102H2.19559L2.1995 9.3418H2.77958L2.93973 9.52148C3.1103 9.51367 3.24377 9.54036 3.34012 9.60156C3.43648 9.66276 3.50419 9.74349 3.54325 9.84375C3.58231 9.94401 3.60184 10.0488 3.60184 10.1582C3.60184 10.3444 3.56734 10.5 3.49833 10.625C3.43062 10.75 3.32775 10.8438 3.18973 10.9062C3.05171 10.9688 2.87984 11 2.67411 11ZM4.61858 8.15625H5.1596L5.60686 10.1348L6.05413 8.15625H6.59319L5.82757 11H5.38616L4.61858 8.15625ZM4.2846 8.15625H4.84514L4.95257 10.3359V11H4.2846V8.15625ZM6.36663 8.15625H6.92913V11H6.25921V10.3359L6.36663 8.15625ZM8.63337 10.0352H8.06501V9.50586H8.63337C8.69978 9.50586 8.75316 9.48958 8.79353 9.45703C8.83519 9.42448 8.86514 9.37956 8.88337 9.32227C8.9029 9.26367 8.91267 9.19792 8.91267 9.125C8.91267 9.04688 8.9029 8.97461 8.88337 8.9082C8.86514 8.8418 8.83519 8.78841 8.79353 8.74805C8.75316 8.70638 8.69978 8.68555 8.63337 8.68555H8.30915V11H7.64118V8.15625H8.63337C8.82998 8.15625 8.99926 8.19792 9.14118 8.28125C9.28441 8.36458 9.39444 8.47917 9.47126 8.625C9.54939 8.76953 9.58845 8.9349 9.58845 9.12109C9.58845 9.30469 9.54939 9.46484 9.47126 9.60156C9.39444 9.73828 9.28441 9.84505 9.14118 9.92188C8.99926 9.9974 8.82998 10.0352 8.63337 10.0352ZM12.3103 8.15625V11H11.6443L10.9314 9.23047V11H10.2634V8.15625H10.9314L11.6443 9.92578V8.15625H12.3103Z" fill="white"/>
</svg>
