<svg width="16" height="16" viewBox="0 0 16 16" fill="none" xmlns="http://www.w3.org/2000/svg">
<rect width="16" height="16" fill="white"/>
<path d="M4.45833 0C3.93125 0 3.5 0.45 3.5 1V15C3.5 15.55 3.93125 16 4.45833 16H14.0417C14.5687 16 15 15.55 15 15V3.6129L11.25 0H4.45833Z" fill="#E2E5E7"/>
<path d="M12 3.6129H15L11.25 0L11.3125 2.90323C11.3125 3.20766 11.25 3.6129 12 3.6129Z" fill="#B0B7BD"/>
<path d="M15 6.71006L12 3.61328H15V6.71006Z" fill="#CAD1D8"/>
<path d="M3.5 7.74219H13V13.3804C13 13.9722 12.5203 14.4519 11.9286 14.4519H3.5V7.74219Z" fill="#CCA030"/>
<rect x="1" y="5.67773" width="12" height="8.25806" rx="2" fill="#FFC93D"/>
<path d="M5.12388 10.0371H5.79185C5.79315 10.2507 5.75149 10.4329 5.66685 10.584C5.58352 10.7337 5.46568 10.847 5.31334 10.9238C5.16099 11.0007 4.98261 11.0391 4.77818 11.0391C4.61282 11.0391 4.46633 11.0104 4.33873 10.9531C4.21112 10.8958 4.1037 10.8125 4.01646 10.7031C3.92922 10.5938 3.86347 10.4616 3.8192 10.3066C3.77493 10.1504 3.75279 9.97331 3.75279 9.77539V9.37891C3.75279 9.18229 3.77623 9.00586 3.8231 8.84961C3.87128 8.69336 3.93899 8.56055 4.02623 8.45117C4.11477 8.3418 4.22154 8.25846 4.34654 8.20117C4.47284 8.14388 4.61347 8.11523 4.76842 8.11523C4.98586 8.11523 5.16946 8.15625 5.3192 8.23828C5.47024 8.31901 5.58612 8.4362 5.66685 8.58984C5.74758 8.74219 5.79055 8.92513 5.79576 9.13867H5.12779C5.1343 9.01497 5.12649 8.91797 5.10435 8.84766C5.08222 8.77604 5.04315 8.72591 4.98717 8.69727C4.93248 8.66732 4.85956 8.65234 4.76842 8.65234C4.70592 8.65234 4.65318 8.66471 4.61021 8.68945C4.56724 8.71419 4.53274 8.75521 4.5067 8.8125C4.48065 8.86849 4.46177 8.94271 4.45006 9.03516C4.43834 9.1276 4.43248 9.24089 4.43248 9.375V9.77539C4.43248 9.91211 4.43704 10.0267 4.44615 10.1191C4.45526 10.2116 4.47219 10.2865 4.49693 10.3438C4.52297 10.3997 4.55813 10.4401 4.6024 10.4648C4.64797 10.4896 4.70657 10.502 4.77818 10.502C4.8537 10.502 4.91815 10.4896 4.97154 10.4648C5.02493 10.4388 5.06529 10.3926 5.09263 10.3262C5.11998 10.2585 5.13039 10.1621 5.12388 10.0371ZM7.07812 8.15625V11H6.41016V8.15625H7.07812ZM7.95117 9.33984V9.86719H6.89648V9.33984H7.95117ZM8.03125 8.15625V8.68555H6.89648V8.15625H8.03125ZM10.3136 10.4727V11H9.06948V10.4727H10.3136ZM9.3019 8.15625V11H8.63393V8.15625H9.3019ZM10.1515 9.28516V9.79492H9.06948V9.28516H10.1515ZM10.3195 8.15625V8.68555H9.06948V8.15625H10.3195Z" fill="white"/>
</svg>
