<svg width="16" height="16" viewBox="0 0 16 16" fill="none" xmlns="http://www.w3.org/2000/svg">
<rect width="16" height="16" fill="white"/>
<path d="M4.45833 0C3.93125 0 3.5 0.45 3.5 1V15C3.5 15.55 3.93125 16 4.45833 16H14.0417C14.5687 16 15 15.55 15 15V3.6129L11.25 0H4.45833Z" fill="#E2E5E7"/>
<path d="M12 3.6129H15L11.25 0L11.3125 2.90323C11.3125 3.20766 11.25 3.6129 12 3.6129Z" fill="#B0B7BD"/>
<path d="M15 6.71006L12 3.61328H15V6.71006Z" fill="#CAD1D8"/>
<path d="M3.5 7.74219H13V13.3804C13 13.9722 12.5203 14.4519 11.9286 14.4519H3.5V7.74219Z" fill="#757373"/>
<rect x="1" y="5.67773" width="12" height="8.25806" rx="2" fill="#8C8C8C"/>
<path d="M4.91685 10.0371H5.58482C5.58612 10.2507 5.54446 10.4329 5.45982 10.584C5.37649 10.7337 5.25865 10.847 5.10631 10.9238C4.95396 11.0007 4.77558 11.0391 4.57115 11.0391C4.40579 11.0391 4.2593 11.0104 4.1317 10.9531C4.00409 10.8958 3.89667 10.8125 3.80943 10.7031C3.72219 10.5938 3.65644 10.4616 3.61217 10.3066C3.56789 10.1504 3.54576 9.97331 3.54576 9.77539V9.37891C3.54576 9.18229 3.5692 9.00586 3.61607 8.84961C3.66425 8.69336 3.73196 8.56055 3.8192 8.45117C3.90774 8.3418 4.01451 8.25846 4.13951 8.20117C4.26581 8.14388 4.40644 8.11523 4.56138 8.11523C4.77883 8.11523 4.96243 8.15625 5.11217 8.23828C5.26321 8.31901 5.37909 8.4362 5.45982 8.58984C5.54055 8.74219 5.58352 8.92513 5.58873 9.13867H4.92076C4.92727 9.01497 4.91946 8.91797 4.89732 8.84766C4.87519 8.77604 4.83612 8.72591 4.78013 8.69727C4.72545 8.66732 4.65253 8.65234 4.56138 8.65234C4.49888 8.65234 4.44615 8.66471 4.40318 8.68945C4.36021 8.71419 4.32571 8.75521 4.29967 8.8125C4.27362 8.86849 4.25474 8.94271 4.24302 9.03516C4.23131 9.1276 4.22545 9.24089 4.22545 9.375V9.77539C4.22545 9.91211 4.23 10.0267 4.23912 10.1191C4.24823 10.2116 4.26516 10.2865 4.2899 10.3438C4.31594 10.3997 4.3511 10.4401 4.39537 10.4648C4.44094 10.4896 4.49954 10.502 4.57115 10.502C4.64667 10.502 4.71112 10.4896 4.76451 10.4648C4.81789 10.4388 4.85826 10.3926 4.8856 10.3262C4.91295 10.2585 4.92336 10.1621 4.91685 10.0371ZM6.87109 8.15625V11H6.20312V8.15625H6.87109ZM7.74414 9.33984V9.86719H6.68945V9.33984H7.74414ZM7.82422 8.15625V8.68555H6.68945V8.15625H7.82422ZM10.4328 9.48047V10.668C10.3885 10.7109 10.3234 10.7617 10.2374 10.8203C10.1515 10.8789 10.0434 10.9303 9.91323 10.9746C9.78432 11.0176 9.63198 11.0391 9.45619 11.0391C9.29343 11.0391 9.14695 11.0143 9.01674 10.9648C8.88653 10.9154 8.7752 10.8405 8.68276 10.7402C8.59161 10.6387 8.5213 10.5117 8.47182 10.3594C8.42234 10.2057 8.3976 10.0241 8.3976 9.81445V9.34375C8.3976 9.13542 8.42234 8.95378 8.47182 8.79883C8.5226 8.64388 8.59356 8.51628 8.68471 8.41602C8.77586 8.31576 8.88393 8.24089 9.00893 8.19141C9.13393 8.14062 9.2726 8.11523 9.42494 8.11523C9.65281 8.11523 9.83966 8.15365 9.98549 8.23047C10.1326 8.30729 10.2427 8.41797 10.3156 8.5625C10.3885 8.70573 10.4269 8.87956 10.4308 9.08398H9.79018C9.78497 8.97591 9.76934 8.88932 9.7433 8.82422C9.71726 8.75911 9.68015 8.71289 9.63198 8.68555C9.5838 8.6569 9.5226 8.64258 9.44838 8.64258C9.38849 8.64258 9.3351 8.6543 9.28823 8.67773C9.24265 8.70117 9.20359 8.74023 9.17104 8.79492C9.13979 8.84831 9.1157 8.91992 9.09877 9.00977C9.08315 9.09961 9.07533 9.20964 9.07533 9.33984V9.81445C9.07533 9.94336 9.08315 10.0527 9.09877 10.1426C9.1144 10.2324 9.13849 10.304 9.17104 10.3574C9.20359 10.4108 9.24721 10.4499 9.3019 10.4746C9.35658 10.4993 9.42429 10.5117 9.50502 10.5117C9.5545 10.5117 9.59552 10.5052 9.62807 10.4922C9.66062 10.4792 9.68796 10.4642 9.7101 10.4473C9.73224 10.4303 9.75046 10.4186 9.76479 10.4121V9.95117H9.42494V9.48047H10.4328Z" fill="white"/>
</svg>
