<svg width="16" height="16" viewBox="0 0 16 16" fill="none" xmlns="http://www.w3.org/2000/svg">
<rect width="16" height="16" fill="white"/>
<path d="M4.45833 0C3.93125 0 3.5 0.45 3.5 1V15C3.5 15.55 3.93125 16 4.45833 16H14.0417C14.5687 16 15 15.55 15 15V3.6129L11.25 0H4.45833Z" fill="#E2E5E7"/>
<path d="M12 3.6129H15L11.25 0L11.3125 2.90323C11.3125 3.20766 11.25 3.6129 12 3.6129Z" fill="#B0B7BD"/>
<path d="M15 6.71006L12 3.61328H15V6.71006Z" fill="#CAD1D8"/>
<path d="M3.5 7.74219H13V13.3804C13 13.9722 12.5203 14.4519 11.9286 14.4519H3.5V7.74219Z" fill="#2B5382"/>
<rect x="1" y="5.67773" width="12" height="8.25806" rx="2" fill="#2D73C5"/>
<path d="M4.84849 10.0371H5.51646C5.51776 10.2507 5.4761 10.4329 5.39146 10.584C5.30813 10.7337 5.19029 10.847 5.03795 10.9238C4.8856 11.0007 4.70722 11.0391 4.50279 11.0391C4.33743 11.0391 4.19094 11.0104 4.06334 10.9531C3.93573 10.8958 3.82831 10.8125 3.74107 10.7031C3.65383 10.5938 3.58808 10.4616 3.54381 10.3066C3.49954 10.1504 3.4774 9.97331 3.4774 9.77539V9.37891C3.4774 9.18229 3.50084 9.00586 3.54771 8.84961C3.59589 8.69336 3.6636 8.56055 3.75084 8.45117C3.83938 8.3418 3.94615 8.25846 4.07115 8.20117C4.19745 8.14388 4.33808 8.11523 4.49302 8.11523C4.71047 8.11523 4.89407 8.15625 5.04381 8.23828C5.19485 8.31901 5.31073 8.4362 5.39146 8.58984C5.47219 8.74219 5.51516 8.92513 5.52037 9.13867H4.8524C4.85891 9.01497 4.8511 8.91797 4.82896 8.84766C4.80683 8.77604 4.76776 8.72591 4.71177 8.69727C4.65709 8.66732 4.58417 8.65234 4.49302 8.65234C4.43052 8.65234 4.37779 8.66471 4.33482 8.68945C4.29185 8.71419 4.25735 8.75521 4.23131 8.8125C4.20526 8.86849 4.18638 8.94271 4.17467 9.03516C4.16295 9.1276 4.15709 9.24089 4.15709 9.375V9.77539C4.15709 9.91211 4.16164 10.0267 4.17076 10.1191C4.17987 10.2116 4.1968 10.2865 4.22154 10.3438C4.24758 10.3997 4.28274 10.4401 4.32701 10.4648C4.37258 10.4896 4.43118 10.502 4.50279 10.502C4.57831 10.502 4.64276 10.4896 4.69615 10.4648C4.74954 10.4388 4.7899 10.3926 4.81724 10.3262C4.84459 10.2585 4.855 10.1621 4.84849 10.0371ZM7.32812 10.2441C7.32812 10.1999 7.32357 10.1602 7.31445 10.125C7.30664 10.0885 7.29036 10.0547 7.26562 10.0234C7.24219 9.99219 7.20638 9.96094 7.1582 9.92969C7.11003 9.89714 7.04557 9.86328 6.96484 9.82812C6.86328 9.78646 6.76367 9.73958 6.66602 9.6875C6.56836 9.63411 6.48047 9.57227 6.40234 9.50195C6.32552 9.43034 6.26367 9.34701 6.2168 9.25195C6.16992 9.1556 6.14648 9.04362 6.14648 8.91602C6.14648 8.79362 6.16992 8.68359 6.2168 8.58594C6.26497 8.48698 6.33073 8.40299 6.41406 8.33398C6.4987 8.26367 6.59831 8.21029 6.71289 8.17383C6.82747 8.13607 6.95247 8.11719 7.08789 8.11719C7.26758 8.11719 7.42578 8.15365 7.5625 8.22656C7.70052 8.29818 7.80794 8.40039 7.88477 8.5332C7.96289 8.66471 8.00195 8.82031 8.00195 9H7.33594C7.33594 8.92839 7.32682 8.86523 7.30859 8.81055C7.29036 8.75586 7.26172 8.71289 7.22266 8.68164C7.1849 8.65039 7.13477 8.63477 7.07227 8.63477C7.01628 8.63477 6.96875 8.64779 6.92969 8.67383C6.89193 8.69987 6.86328 8.73503 6.84375 8.7793C6.82422 8.82227 6.81445 8.86979 6.81445 8.92188C6.81445 8.96484 6.82422 9.00391 6.84375 9.03906C6.86328 9.07292 6.88997 9.10482 6.92383 9.13477C6.95898 9.16471 6.99935 9.19336 7.04492 9.2207C7.0918 9.24805 7.14193 9.27474 7.19531 9.30078C7.32422 9.34896 7.43815 9.40299 7.53711 9.46289C7.63737 9.52148 7.72135 9.58854 7.78906 9.66406C7.85677 9.73828 7.90755 9.82292 7.94141 9.91797C7.97656 10.013 7.99414 10.1204 7.99414 10.2402C7.99414 10.3678 7.97331 10.4811 7.93164 10.5801C7.89128 10.679 7.83203 10.763 7.75391 10.832C7.67578 10.8997 7.58138 10.9512 7.4707 10.9863C7.36133 11.0215 7.23763 11.0391 7.09961 11.0391C6.97331 11.0391 6.84896 11.0208 6.72656 10.9844C6.60547 10.9466 6.49544 10.8893 6.39648 10.8125C6.29883 10.7344 6.2207 10.6348 6.16211 10.5137C6.10352 10.3913 6.07422 10.2461 6.07422 10.0781H6.74609C6.74609 10.1615 6.7526 10.2318 6.76562 10.2891C6.77865 10.3464 6.79883 10.3926 6.82617 10.4277C6.85482 10.4616 6.89128 10.4863 6.93555 10.502C6.97982 10.5163 7.03451 10.5234 7.09961 10.5234C7.15951 10.5234 7.20573 10.5111 7.23828 10.4863C7.27214 10.4603 7.29557 10.4264 7.30859 10.3848C7.32161 10.3418 7.32812 10.2949 7.32812 10.2441ZM9.85268 10.2441C9.85268 10.1999 9.84812 10.1602 9.83901 10.125C9.83119 10.0885 9.81492 10.0547 9.79018 10.0234C9.76674 9.99219 9.73093 9.96094 9.68276 9.92969C9.63458 9.89714 9.57013 9.86328 9.4894 9.82812C9.38783 9.78646 9.28823 9.73958 9.19057 9.6875C9.09291 9.63411 9.00502 9.57227 8.9269 9.50195C8.85007 9.43034 8.78823 9.34701 8.74135 9.25195C8.69448 9.1556 8.67104 9.04362 8.67104 8.91602C8.67104 8.79362 8.69448 8.68359 8.74135 8.58594C8.78953 8.48698 8.85528 8.40299 8.93862 8.33398C9.02325 8.26367 9.12286 8.21029 9.23744 8.17383C9.35203 8.13607 9.47703 8.11719 9.61244 8.11719C9.79213 8.11719 9.95033 8.15365 10.0871 8.22656C10.2251 8.29818 10.3325 8.40039 10.4093 8.5332C10.4874 8.66471 10.5265 8.82031 10.5265 9H9.86049C9.86049 8.92839 9.85138 8.86523 9.83315 8.81055C9.81492 8.75586 9.78627 8.71289 9.74721 8.68164C9.70945 8.65039 9.65932 8.63477 9.59682 8.63477C9.54083 8.63477 9.4933 8.64779 9.45424 8.67383C9.41648 8.69987 9.38783 8.73503 9.3683 8.7793C9.34877 8.82227 9.33901 8.86979 9.33901 8.92188C9.33901 8.96484 9.34877 9.00391 9.3683 9.03906C9.38783 9.07292 9.41453 9.10482 9.44838 9.13477C9.48354 9.16471 9.5239 9.19336 9.56948 9.2207C9.61635 9.24805 9.66648 9.27474 9.71987 9.30078C9.84877 9.34896 9.9627 9.40299 10.0617 9.46289C10.1619 9.52148 10.2459 9.58854 10.3136 9.66406C10.3813 9.73828 10.4321 9.82292 10.466 9.91797C10.5011 10.013 10.5187 10.1204 10.5187 10.2402C10.5187 10.3678 10.4979 10.4811 10.4562 10.5801C10.4158 10.679 10.3566 10.763 10.2785 10.832C10.2003 10.8997 10.1059 10.9512 9.99526 10.9863C9.88588 11.0215 9.76218 11.0391 9.62416 11.0391C9.49786 11.0391 9.37351 11.0208 9.25112 10.9844C9.13002 10.9466 9.02 10.8893 8.92104 10.8125C8.82338 10.7344 8.74526 10.6348 8.68666 10.5137C8.62807 10.3913 8.59877 10.2461 8.59877 10.0781H9.27065C9.27065 10.1615 9.27716 10.2318 9.29018 10.2891C9.3032 10.3464 9.32338 10.3926 9.35073 10.4277C9.37937 10.4616 9.41583 10.4863 9.4601 10.502C9.50437 10.5163 9.55906 10.5234 9.62416 10.5234C9.68406 10.5234 9.73028 10.5111 9.76283 10.4863C9.79669 10.4603 9.82013 10.4264 9.83315 10.3848C9.84617 10.3418 9.85268 10.2949 9.85268 10.2441Z" fill="white"/>
</svg>
