<svg width="16" height="16" viewBox="0 0 16 16" fill="none" xmlns="http://www.w3.org/2000/svg">
<rect width="16" height="16" fill="white"/>
<path d="M4.45833 0C3.93125 0 3.5 0.45 3.5 1V15C3.5 15.55 3.93125 16 4.45833 16H14.0417C14.5687 16 15 15.55 15 15V3.6129L11.25 0H4.45833Z" fill="#E2E5E7"/>
<path d="M12 3.6129H15L11.25 0L11.3125 2.90323C11.3125 3.20766 11.25 3.6129 12 3.6129Z" fill="#B0B7BD"/>
<path d="M15 6.71006L12 3.61328H15V6.71006Z" fill="#CAD1D8"/>
<path d="M3.5 7.74219H13V13.3804C13 13.9722 12.5203 14.4519 11.9286 14.4519H3.5V7.74219Z" fill="#7B9D7F"/>
<rect x="1" y="5.67773" width="12" height="8.25806" rx="2" fill="#81D98A"/>
<path d="M4.78013 10.0371H5.4481C5.4494 10.2507 5.40774 10.4329 5.3231 10.584C5.23977 10.7337 5.12193 10.847 4.96959 10.9238C4.81724 11.0007 4.63886 11.0391 4.43443 11.0391C4.26907 11.0391 4.12258 11.0104 3.99498 10.9531C3.86737 10.8958 3.75995 10.8125 3.67271 10.7031C3.58547 10.5938 3.51972 10.4616 3.47545 10.3066C3.43118 10.1504 3.40904 9.97331 3.40904 9.77539V9.37891C3.40904 9.18229 3.43248 9.00586 3.47935 8.84961C3.52753 8.69336 3.59524 8.56055 3.68248 8.45117C3.77102 8.3418 3.87779 8.25846 4.00279 8.20117C4.12909 8.14388 4.26972 8.11523 4.42467 8.11523C4.64211 8.11523 4.82571 8.15625 4.97545 8.23828C5.12649 8.31901 5.24237 8.4362 5.3231 8.58984C5.40383 8.74219 5.4468 8.92513 5.45201 9.13867H4.78404C4.79055 9.01497 4.78274 8.91797 4.7606 8.84766C4.73847 8.77604 4.6994 8.72591 4.64342 8.69727C4.58873 8.66732 4.51581 8.65234 4.42467 8.65234C4.36217 8.65234 4.30943 8.66471 4.26646 8.68945C4.22349 8.71419 4.18899 8.75521 4.16295 8.8125C4.1369 8.86849 4.11802 8.94271 4.10631 9.03516C4.09459 9.1276 4.08873 9.24089 4.08873 9.375V9.77539C4.08873 9.91211 4.09329 10.0267 4.1024 10.1191C4.11151 10.2116 4.12844 10.2865 4.15318 10.3438C4.17922 10.3997 4.21438 10.4401 4.25865 10.4648C4.30422 10.4896 4.36282 10.502 4.43443 10.502C4.50995 10.502 4.5744 10.4896 4.62779 10.4648C4.68118 10.4388 4.72154 10.3926 4.74888 10.3262C4.77623 10.2585 4.78664 10.1621 4.78013 10.0371ZM7.25977 10.2441C7.25977 10.1999 7.25521 10.1602 7.24609 10.125C7.23828 10.0885 7.22201 10.0547 7.19727 10.0234C7.17383 9.99219 7.13802 9.96094 7.08984 9.92969C7.04167 9.89714 6.97721 9.86328 6.89648 9.82812C6.79492 9.78646 6.69531 9.73958 6.59766 9.6875C6.5 9.63411 6.41211 9.57227 6.33398 9.50195C6.25716 9.43034 6.19531 9.34701 6.14844 9.25195C6.10156 9.1556 6.07812 9.04362 6.07812 8.91602C6.07812 8.79362 6.10156 8.68359 6.14844 8.58594C6.19661 8.48698 6.26237 8.40299 6.3457 8.33398C6.43034 8.26367 6.52995 8.21029 6.64453 8.17383C6.75911 8.13607 6.88411 8.11719 7.01953 8.11719C7.19922 8.11719 7.35742 8.15365 7.49414 8.22656C7.63216 8.29818 7.73958 8.40039 7.81641 8.5332C7.89453 8.66471 7.93359 8.82031 7.93359 9H7.26758C7.26758 8.92839 7.25846 8.86523 7.24023 8.81055C7.22201 8.75586 7.19336 8.71289 7.1543 8.68164C7.11654 8.65039 7.06641 8.63477 7.00391 8.63477C6.94792 8.63477 6.90039 8.64779 6.86133 8.67383C6.82357 8.69987 6.79492 8.73503 6.77539 8.7793C6.75586 8.82227 6.74609 8.86979 6.74609 8.92188C6.74609 8.96484 6.75586 9.00391 6.77539 9.03906C6.79492 9.07292 6.82161 9.10482 6.85547 9.13477C6.89062 9.16471 6.93099 9.19336 6.97656 9.2207C7.02344 9.24805 7.07357 9.27474 7.12695 9.30078C7.25586 9.34896 7.36979 9.40299 7.46875 9.46289C7.56901 9.52148 7.65299 9.58854 7.7207 9.66406C7.78841 9.73828 7.83919 9.82292 7.87305 9.91797C7.9082 10.013 7.92578 10.1204 7.92578 10.2402C7.92578 10.3678 7.90495 10.4811 7.86328 10.5801C7.82292 10.679 7.76367 10.763 7.68555 10.832C7.60742 10.8997 7.51302 10.9512 7.40234 10.9863C7.29297 11.0215 7.16927 11.0391 7.03125 11.0391C6.90495 11.0391 6.7806 11.0208 6.6582 10.9844C6.53711 10.9466 6.42708 10.8893 6.32812 10.8125C6.23047 10.7344 6.15234 10.6348 6.09375 10.5137C6.03516 10.3913 6.00586 10.2461 6.00586 10.0781H6.67773C6.67773 10.1615 6.68424 10.2318 6.69727 10.2891C6.71029 10.3464 6.73047 10.3926 6.75781 10.4277C6.78646 10.4616 6.82292 10.4863 6.86719 10.502C6.91146 10.5163 6.96615 10.5234 7.03125 10.5234C7.09115 10.5234 7.13737 10.5111 7.16992 10.4863C7.20378 10.4603 7.22721 10.4264 7.24023 10.3848C7.25326 10.3418 7.25977 10.2949 7.25977 10.2441ZM9.53041 10.3301L9.96791 8.15625H10.7179L9.92885 11H9.44838L9.53041 10.3301ZM9.16323 8.15625L9.60268 10.3301L9.68862 11H9.20229L8.41713 8.15625H9.16323Z" fill="white"/>
</svg>
