<svg width="16" height="16" viewBox="0 0 16 16" fill="none" xmlns="http://www.w3.org/2000/svg">
<rect width="16" height="16" fill="white"/>
<path d="M4.45833 0C3.93125 0 3.5 0.45 3.5 1V15C3.5 15.55 3.93125 16 4.45833 16H14.0417C14.5687 16 15 15.55 15 15V3.6129L11.25 0H4.45833Z" fill="#E2E5E7"/>
<path d="M12 3.6129H15L11.25 0L11.3125 2.90323C11.3125 3.20766 11.25 3.6129 12 3.6129Z" fill="#B0B7BD"/>
<path d="M15 6.71006L12 3.61328H15V6.71006Z" fill="#CAD1D8"/>
<path d="M3.5 7.74219H13V13.3804C13 13.9722 12.5203 14.4519 11.9286 14.4519H3.5V7.74219Z" fill="#757373"/>
<rect x="1" y="5.67773" width="12" height="8.25806" rx="2" fill="#8C8C8C"/>
<path d="M5.3968 10.4727V11H4.15266V10.4727H5.3968ZM4.38508 8.15625V11H3.71711V8.15625H4.38508ZM5.23469 9.28516V9.79492H4.15266V9.28516H5.23469ZM5.40266 8.15625V8.68555H4.15266V8.15625H5.40266ZM6.98385 10.0352H6.41549V9.50586H6.98385C7.05026 9.50586 7.10364 9.48958 7.14401 9.45703C7.18567 9.42448 7.21562 9.37956 7.23385 9.32227C7.25338 9.26367 7.26315 9.19792 7.26315 9.125C7.26315 9.04688 7.25338 8.97461 7.23385 8.9082C7.21562 8.8418 7.18567 8.78841 7.14401 8.74805C7.10364 8.70638 7.05026 8.68555 6.98385 8.68555H6.65963V11H5.99166V8.15625H6.98385C7.18046 8.15625 7.34973 8.19792 7.49166 8.28125C7.63489 8.36458 7.74492 8.47917 7.82174 8.625C7.89987 8.76953 7.93893 8.9349 7.93893 9.12109C7.93893 9.30469 7.89987 9.46484 7.82174 9.60156C7.74492 9.73828 7.63489 9.84505 7.49166 9.92188C7.34973 9.9974 7.18046 10.0352 6.98385 10.0352ZM9.28184 8.15625V11H8.61387V8.15625H9.28184ZM10.1549 9.33984V9.86719H9.1002V9.33984H10.1549ZM10.235 8.15625V8.68555H9.1002V8.15625H10.235Z" fill="white"/>
</svg>
