<svg width="16" height="16" viewBox="0 0 16 16" fill="none" xmlns="http://www.w3.org/2000/svg">
<rect width="16" height="16" fill="white"/>
<path d="M4.45833 0C3.93125 0 3.5 0.45 3.5 1V15C3.5 15.55 3.93125 16 4.45833 16H14.0417C14.5687 16 15 15.55 15 15V3.6129L11.25 0H4.45833Z" fill="#E2E5E7"/>
<path d="M12 3.6129H15L11.25 0L11.3125 2.90323C11.3125 3.20766 11.25 3.6129 12 3.6129Z" fill="#B0B7BD"/>
<path d="M15 6.71006L12 3.61328H15V6.71006Z" fill="#CAD1D8"/>
<path d="M3.5 7.74219H13V13.3804C13 13.9722 12.5203 14.4519 11.9286 14.4519H3.5V7.74219Z" fill="#CCA030"/>
<rect x="1" y="5.67773" width="12" height="8.25806" rx="2" fill="#FFC93D"/>
<path d="M5.48912 10.4727V11H4.24498V10.4727H5.48912ZM4.4774 8.15625V11H3.80943V8.15625H4.4774ZM5.32701 9.28516V9.79492H4.24498V9.28516H5.32701ZM5.49498 8.15625V8.68555H4.24498V8.15625H5.49498ZM6.08594 8.15625H7.05859C7.2487 8.15625 7.41341 8.1888 7.55273 8.25391C7.69206 8.31901 7.79883 8.41536 7.87305 8.54297C7.94857 8.67057 7.98633 8.82812 7.98633 9.01562C7.98633 9.17839 7.96549 9.31445 7.92383 9.42383C7.88346 9.5332 7.82617 9.6237 7.75195 9.69531C7.67773 9.76562 7.59049 9.82357 7.49023 9.86914L7.27344 9.99609H6.50977L6.50586 9.4668H7.04297C7.10417 9.4668 7.15495 9.45117 7.19531 9.41992C7.23568 9.38867 7.26562 9.3444 7.28516 9.28711C7.30599 9.22852 7.31641 9.15885 7.31641 9.07812C7.31641 8.99609 7.30664 8.92578 7.28711 8.86719C7.26758 8.80859 7.23893 8.76367 7.20117 8.73242C7.16471 8.70117 7.11719 8.68555 7.05859 8.68555H6.75391V11H6.08594V8.15625ZM7.3457 11L6.8418 9.74219L7.54883 9.73828L8.0625 10.9707V11H7.3457ZM9.34291 8.15625V11H8.67494V8.15625H9.34291ZM10.216 9.33984V9.86719H9.16127V9.33984H10.216ZM10.296 8.15625V8.68555H9.16127V8.15625H10.296Z" fill="white"/>
</svg>
