<svg width="16" height="16" viewBox="0 0 16 16" fill="none" xmlns="http://www.w3.org/2000/svg">
<rect width="16" height="16" fill="white"/>
<path d="M4.45833 0C3.93125 0 3.5 0.45 3.5 1V15C3.5 15.55 3.93125 16 4.45833 16H14.0417C14.5687 16 15 15.55 15 15V3.6129L11.25 0H4.45833Z" fill="#E2E5E7"/>
<path d="M12 3.6129H15L11.25 0L11.3125 2.90323C11.3125 3.20766 11.25 3.6129 12 3.6129Z" fill="#B0B7BD"/>
<path d="M15 6.71006L12 3.61328H15V6.71006Z" fill="#CAD1D8"/>
<path d="M3.5 7.74219H13V13.3804C13 13.9722 12.5203 14.4519 11.9286 14.4519H3.5V7.74219Z" fill="#2B5382"/>
<rect x="1" y="5.67773" width="12" height="8.25806" rx="2" fill="#2D73C5"/>
<path d="M3.53739 9.28516V9.8125H2.38504V9.28516H3.53739ZM2.60379 8.15625V11H1.93583V8.15625H2.60379ZM3.98856 8.15625V11H3.32059V8.15625H3.98856ZM5.87639 8.15625V11H5.20647V8.15625H5.87639ZM6.56585 8.15625V8.68555H4.53655V8.15625H6.56585ZM7.51032 8.15625H8.05134L8.4986 10.1348L8.94587 8.15625H9.48493L8.71931 11H8.2779L7.51032 8.15625ZM7.17634 8.15625H7.73689L7.84431 10.3359V11H7.17634V8.15625ZM9.25837 8.15625H9.82087V11H9.15095V10.3359L9.25837 8.15625ZM12.1618 10.4727V11H10.9665V10.4727H12.1618ZM11.2009 8.15625V11H10.5329V8.15625H11.2009Z" fill="white"/>
</svg>
