<svg width="16" height="16" viewBox="0 0 16 16" fill="none" xmlns="http://www.w3.org/2000/svg">
<rect width="16" height="16" fill="white"/>
<path d="M4.45833 0C3.93125 0 3.5 0.45 3.5 1V15C3.5 15.55 3.93125 16 4.45833 16H14.0417C14.5687 16 15 15.55 15 15V3.6129L11.25 0H4.45833Z" fill="#E2E5E7"/>
<path d="M12 3.6129H15L11.25 0L11.3125 2.90323C11.3125 3.20766 11.25 3.6129 12 3.6129Z" fill="#B0B7BD"/>
<path d="M15 6.71006L12 3.61328H15V6.71006Z" fill="#CAD1D8"/>
<path d="M3.5 7.74219H13V13.3804C13 13.9722 12.5203 14.4519 11.9286 14.4519H3.5V7.74219Z" fill="#5534AF"/>
<rect x="1" y="5.67773" width="12" height="8.25806" rx="2" fill="#7C4CFF"/>
<path d="M4.70201 8.15625V11H4.03599V8.15625H4.70201ZM6.63867 10.2441C6.63867 10.1999 6.63411 10.1602 6.625 10.125C6.61719 10.0885 6.60091 10.0547 6.57617 10.0234C6.55273 9.99219 6.51693 9.96094 6.46875 9.92969C6.42057 9.89714 6.35612 9.86328 6.27539 9.82812C6.17383 9.78646 6.07422 9.73958 5.97656 9.6875C5.87891 9.63411 5.79102 9.57227 5.71289 9.50195C5.63607 9.43034 5.57422 9.34701 5.52734 9.25195C5.48047 9.1556 5.45703 9.04362 5.45703 8.91602C5.45703 8.79362 5.48047 8.68359 5.52734 8.58594C5.57552 8.48698 5.64128 8.40299 5.72461 8.33398C5.80924 8.26367 5.90885 8.21029 6.02344 8.17383C6.13802 8.13607 6.26302 8.11719 6.39844 8.11719C6.57812 8.11719 6.73633 8.15365 6.87305 8.22656C7.01107 8.29818 7.11849 8.40039 7.19531 8.5332C7.27344 8.66471 7.3125 8.82031 7.3125 9H6.64648C6.64648 8.92839 6.63737 8.86523 6.61914 8.81055C6.60091 8.75586 6.57227 8.71289 6.5332 8.68164C6.49544 8.65039 6.44531 8.63477 6.38281 8.63477C6.32682 8.63477 6.2793 8.64779 6.24023 8.67383C6.20247 8.69987 6.17383 8.73503 6.1543 8.7793C6.13477 8.82227 6.125 8.86979 6.125 8.92188C6.125 8.96484 6.13477 9.00391 6.1543 9.03906C6.17383 9.07292 6.20052 9.10482 6.23438 9.13477C6.26953 9.16471 6.3099 9.19336 6.35547 9.2207C6.40234 9.24805 6.45247 9.27474 6.50586 9.30078C6.63477 9.34896 6.7487 9.40299 6.84766 9.46289C6.94792 9.52148 7.0319 9.58854 7.09961 9.66406C7.16732 9.73828 7.2181 9.82292 7.25195 9.91797C7.28711 10.013 7.30469 10.1204 7.30469 10.2402C7.30469 10.3678 7.28385 10.4811 7.24219 10.5801C7.20182 10.679 7.14258 10.763 7.06445 10.832C6.98633 10.8997 6.89193 10.9512 6.78125 10.9863C6.67188 11.0215 6.54818 11.0391 6.41016 11.0391C6.28385 11.0391 6.15951 11.0208 6.03711 10.9844C5.91602 10.9466 5.80599 10.8893 5.70703 10.8125C5.60938 10.7344 5.53125 10.6348 5.47266 10.5137C5.41406 10.3913 5.38477 10.2461 5.38477 10.0781H6.05664C6.05664 10.1615 6.06315 10.2318 6.07617 10.2891C6.08919 10.3464 6.10938 10.3926 6.13672 10.4277C6.16536 10.4616 6.20182 10.4863 6.24609 10.502C6.29036 10.5163 6.34505 10.5234 6.41016 10.5234C6.47005 10.5234 6.51628 10.5111 6.54883 10.4863C6.58268 10.4603 6.60612 10.4264 6.61914 10.3848C6.63216 10.3418 6.63867 10.2949 6.63867 10.2441ZM10.0363 9.36523V9.79492C10.0363 9.99935 10.0109 10.179 9.9601 10.334C9.90932 10.4889 9.83705 10.6191 9.7433 10.7246C9.64955 10.8288 9.53823 10.9076 9.40932 10.9609C9.28171 11.013 9.13979 11.0391 8.98354 11.0391C8.82599 11.0391 8.68276 11.013 8.55385 10.9609C8.42494 10.9076 8.31362 10.8288 8.21987 10.7246C8.12612 10.6191 8.05385 10.4889 8.00307 10.334C7.95229 10.179 7.9269 9.99935 7.9269 9.79492V9.36523C7.9269 9.16081 7.95229 8.98047 8.00307 8.82422C8.05385 8.66797 8.12546 8.53776 8.21791 8.43359C8.31166 8.32943 8.42299 8.25065 8.5519 8.19727C8.6808 8.14388 8.82403 8.11719 8.98158 8.11719C9.13783 8.11719 9.28041 8.14388 9.40932 8.19727C9.53953 8.25065 9.65086 8.32943 9.7433 8.43359C9.83575 8.53776 9.90737 8.66797 9.95815 8.82422C10.0102 8.98047 10.0363 9.16081 10.0363 9.36523ZM9.35854 9.79492V9.36133C9.35854 9.23372 9.35073 9.125 9.3351 9.03516C9.31948 8.94531 9.29604 8.8724 9.26479 8.81641C9.23354 8.76042 9.19448 8.7194 9.1476 8.69336C9.10073 8.66732 9.04539 8.6543 8.98158 8.6543C8.91518 8.6543 8.85854 8.66732 8.81166 8.69336C8.76479 8.7194 8.72573 8.76042 8.69448 8.81641C8.66453 8.8724 8.64239 8.94531 8.62807 9.03516C8.61375 9.125 8.60658 9.23372 8.60658 9.36133V9.79492C8.60658 9.92122 8.61375 10.0293 8.62807 10.1191C8.64239 10.2077 8.66453 10.2806 8.69448 10.3379C8.72573 10.3952 8.76544 10.4375 8.81362 10.4648C8.86179 10.4909 8.91843 10.5039 8.98354 10.5039C9.04604 10.5039 9.10073 10.4909 9.1476 10.4648C9.19578 10.4375 9.23484 10.3952 9.26479 10.3379C9.29604 10.2806 9.31948 10.2077 9.3351 10.1191C9.35073 10.0293 9.35854 9.92122 9.35854 9.79492Z" fill="white"/>
</svg>
