<svg width="16" height="16" viewBox="0 0 16 16" fill="none" xmlns="http://www.w3.org/2000/svg">
<rect width="16" height="16" fill="white"/>
<path d="M4.45833 0C3.93125 0 3.5 0.45 3.5 1V15C3.5 15.55 3.93125 16 4.45833 16H14.0417C14.5687 16 15 15.55 15 15V3.6129L11.25 0H4.45833Z" fill="#E2E5E7"/>
<path d="M12 3.6129H15L11.25 0L11.3125 2.90323C11.3125 3.20766 11.25 3.6129 12 3.6129Z" fill="#B0B7BD"/>
<path d="M15 6.71006L12 3.61328H15V6.71006Z" fill="#CAD1D8"/>
<path d="M3.5 7.74219H13V13.3804C13 13.9722 12.5203 14.4519 11.9286 14.4519H3.5V7.74219Z" fill="#C66A08"/>
<rect x="1" y="5.67773" width="12" height="8.25806" rx="2" fill="#FC8507"/>
<path d="M3.33231 10.1074V8.15625H3.99833V10.1074C3.99833 10.2975 3.96057 10.4622 3.88504 10.6016C3.81083 10.7409 3.70926 10.849 3.58036 10.9258C3.45275 11.0013 3.30952 11.0391 3.15067 11.0391C2.98791 11.0391 2.84208 11.0072 2.71317 10.9434C2.58557 10.8796 2.4853 10.7812 2.41239 10.6484C2.33947 10.5156 2.30301 10.3464 2.30301 10.1406H2.97294C2.97294 10.237 2.97945 10.3125 2.99247 10.3672C3.00679 10.4206 3.02697 10.4583 3.05301 10.4805C3.07905 10.5013 3.11161 10.5117 3.15067 10.5117C3.19234 10.5117 3.22619 10.4961 3.25223 10.4648C3.27827 10.4323 3.2978 10.3861 3.31083 10.3262C3.32515 10.265 3.33231 10.1921 3.33231 10.1074ZM5.70257 10.0352H5.13421V9.50586H5.70257C5.76897 9.50586 5.82236 9.48958 5.86272 9.45703C5.90439 9.42448 5.93434 9.37956 5.95257 9.32227C5.9721 9.26367 5.98186 9.19792 5.98186 9.125C5.98186 9.04688 5.9721 8.97461 5.95257 8.9082C5.93434 8.8418 5.90439 8.78841 5.86272 8.74805C5.82236 8.70638 5.76897 8.68555 5.70257 8.68555H5.37835V11H4.71038V8.15625H5.70257C5.89918 8.15625 6.06845 8.19792 6.21038 8.28125C6.35361 8.36458 6.46363 8.47917 6.54046 8.625C6.61858 8.76953 6.65764 8.9349 6.65764 9.12109C6.65764 9.30469 6.61858 9.46484 6.54046 9.60156C6.46363 9.73828 6.35361 9.84505 6.21038 9.92188C6.06845 9.9974 5.89918 10.0352 5.70257 10.0352ZM9.01228 10.4727V11H7.76814V10.4727H9.01228ZM8.00056 8.15625V11H7.33259V8.15625H8.00056ZM8.85017 9.28516V9.79492H7.76814V9.28516H8.85017ZM9.01814 8.15625V8.68555H7.76814V8.15625H9.01814ZM11.613 9.48047V10.668C11.5687 10.7109 11.5036 10.7617 11.4177 10.8203C11.3318 10.8789 11.2237 10.9303 11.0935 10.9746C10.9646 11.0176 10.8122 11.0391 10.6364 11.0391C10.4737 11.0391 10.3272 11.0143 10.197 10.9648C10.0668 10.9154 9.95545 10.8405 9.863 10.7402C9.77186 10.6387 9.70154 10.5117 9.65206 10.3594C9.60259 10.2057 9.57785 10.0241 9.57785 9.81445V9.34375C9.57785 9.13542 9.60259 8.95378 9.65206 8.79883C9.70285 8.64388 9.77381 8.51628 9.86496 8.41602C9.9561 8.31576 10.0642 8.24089 10.1892 8.19141C10.3142 8.14062 10.4528 8.11523 10.6052 8.11523C10.8331 8.11523 11.0199 8.15365 11.1657 8.23047C11.3129 8.30729 11.4229 8.41797 11.4958 8.5625C11.5687 8.70573 11.6071 8.87956 11.611 9.08398H10.9704C10.9652 8.97591 10.9496 8.88932 10.9235 8.82422C10.8975 8.75911 10.8604 8.71289 10.8122 8.68555C10.764 8.6569 10.7028 8.64258 10.6286 8.64258C10.5687 8.64258 10.5153 8.6543 10.4685 8.67773C10.4229 8.70117 10.3838 8.74023 10.3513 8.79492C10.32 8.84831 10.2959 8.91992 10.279 9.00977C10.2634 9.09961 10.2556 9.20964 10.2556 9.33984V9.81445C10.2556 9.94336 10.2634 10.0527 10.279 10.1426C10.2946 10.2324 10.3187 10.304 10.3513 10.3574C10.3838 10.4108 10.4275 10.4499 10.4821 10.4746C10.5368 10.4993 10.6045 10.5117 10.6853 10.5117C10.7347 10.5117 10.7758 10.5052 10.8083 10.4922C10.8409 10.4792 10.8682 10.4642 10.8903 10.4473C10.9125 10.4303 10.9307 10.4186 10.945 10.4121V9.95117H10.6052V9.48047H11.613Z" fill="white"/>
</svg>
