<svg width="16" height="16" viewBox="0 0 16 16" fill="none" xmlns="http://www.w3.org/2000/svg">
<rect width="16" height="16" fill="white"/>
<path d="M4.45833 0C3.93125 0 3.5 0.45 3.5 1V15C3.5 15.55 3.93125 16 4.45833 16H14.0417C14.5687 16 15 15.55 15 15V3.6129L11.25 0H4.45833Z" fill="#E2E5E7"/>
<path d="M12 3.6129H15L11.25 0L11.3125 2.90323C11.3125 3.20766 11.25 3.6129 12 3.6129Z" fill="#B0B7BD"/>
<path d="M15 6.71006L12 3.61328H15V6.71006Z" fill="#CAD1D8"/>
<path d="M3.5 7.74219H13V13.3804C13 13.9722 12.5203 14.4519 11.9286 14.4519H3.5V7.74219Z" fill="#C66A08"/>
<rect x="1" y="5.67773" width="12" height="8.25806" rx="2" fill="#FC8507"/>
<path d="M4.46959 10.1074V8.15625H5.1356V10.1074C5.1356 10.2975 5.09784 10.4622 5.02232 10.6016C4.9481 10.7409 4.84654 10.849 4.71763 10.9258C4.59003 11.0013 4.4468 11.0391 4.28795 11.0391C4.12519 11.0391 3.97935 11.0072 3.85045 10.9434C3.72284 10.8796 3.62258 10.7812 3.54967 10.6484C3.47675 10.5156 3.44029 10.3464 3.44029 10.1406H4.11021C4.11021 10.237 4.11672 10.3125 4.12974 10.3672C4.14407 10.4206 4.16425 10.4583 4.19029 10.4805C4.21633 10.5013 4.24888 10.5117 4.28795 10.5117C4.32961 10.5117 4.36347 10.4961 4.38951 10.4648C4.41555 10.4323 4.43508 10.3861 4.4481 10.3262C4.46243 10.265 4.46959 10.1921 4.46959 10.1074ZM6.83984 10.0352H6.27148V9.50586H6.83984C6.90625 9.50586 6.95964 9.48958 7 9.45703C7.04167 9.42448 7.07161 9.37956 7.08984 9.32227C7.10938 9.26367 7.11914 9.19792 7.11914 9.125C7.11914 9.04688 7.10938 8.97461 7.08984 8.9082C7.07161 8.8418 7.04167 8.78841 7 8.74805C6.95964 8.70638 6.90625 8.68555 6.83984 8.68555H6.51562V11H5.84766V8.15625H6.83984C7.03646 8.15625 7.20573 8.19792 7.34766 8.28125C7.49089 8.36458 7.60091 8.47917 7.67773 8.625C7.75586 8.76953 7.79492 8.9349 7.79492 9.12109C7.79492 9.30469 7.75586 9.46484 7.67773 9.60156C7.60091 9.73828 7.49089 9.84505 7.34766 9.92188C7.20573 9.9974 7.03646 10.0352 6.83984 10.0352ZM10.4757 9.48047V10.668C10.4315 10.7109 10.3664 10.7617 10.2804 10.8203C10.1945 10.8789 10.0864 10.9303 9.95619 10.9746C9.82729 11.0176 9.67494 11.0391 9.49916 11.0391C9.3364 11.0391 9.18992 11.0143 9.05971 10.9648C8.9295 10.9154 8.81817 10.8405 8.72573 10.7402C8.63458 10.6387 8.56427 10.5117 8.51479 10.3594C8.46531 10.2057 8.44057 10.0241 8.44057 9.81445V9.34375C8.44057 9.13542 8.46531 8.95378 8.51479 8.79883C8.56557 8.64388 8.63653 8.51628 8.72768 8.41602C8.81882 8.31576 8.9269 8.24089 9.0519 8.19141C9.1769 8.14062 9.31557 8.11523 9.46791 8.11523C9.69578 8.11523 9.88263 8.15365 10.0285 8.23047C10.1756 8.30729 10.2856 8.41797 10.3585 8.5625C10.4315 8.70573 10.4699 8.87956 10.4738 9.08398H9.83315C9.82794 8.97591 9.81231 8.88932 9.78627 8.82422C9.76023 8.75911 9.72312 8.71289 9.67494 8.68555C9.62677 8.6569 9.56557 8.64258 9.49135 8.64258C9.43145 8.64258 9.37807 8.6543 9.33119 8.67773C9.28562 8.70117 9.24656 8.74023 9.21401 8.79492C9.18276 8.84831 9.15867 8.91992 9.14174 9.00977C9.12612 9.09961 9.1183 9.20964 9.1183 9.33984V9.81445C9.1183 9.94336 9.12612 10.0527 9.14174 10.1426C9.15737 10.2324 9.18145 10.304 9.21401 10.3574C9.24656 10.4108 9.29018 10.4499 9.34487 10.4746C9.39955 10.4993 9.46726 10.5117 9.54799 10.5117C9.59747 10.5117 9.63849 10.5052 9.67104 10.4922C9.70359 10.4792 9.73093 10.4642 9.75307 10.4473C9.7752 10.4303 9.79343 10.4186 9.80776 10.4121V9.95117H9.46791V9.48047H10.4757Z" fill="white"/>
</svg>
