<svg width="16" height="16" viewBox="0 0 16 16" fill="none" xmlns="http://www.w3.org/2000/svg">
<rect width="16" height="16" fill="white"/>
<path d="M4.45833 0C3.93125 0 3.5 0.45 3.5 1V15C3.5 15.55 3.93125 16 4.45833 16H14.0417C14.5687 16 15 15.55 15 15V3.6129L11.25 0H4.45833Z" fill="#E2E5E7"/>
<path d="M12 3.6129H15L11.25 0L11.3125 2.90323C11.3125 3.20766 11.25 3.6129 12 3.6129Z" fill="#B0B7BD"/>
<path d="M15 6.71006L12 3.61328H15V6.71006Z" fill="#CAD1D8"/>
<path d="M3.5 7.74219H13V13.3804C13 13.9722 12.5203 14.4519 11.9286 14.4519H3.5V7.74219Z" fill="#757373"/>
<rect x="1" y="5.67773" width="12" height="8.25806" rx="2" fill="#8C8C8C"/>
<path d="M5.21373 10.4727V11H4.01842V10.4727H5.21373ZM4.25279 8.15625V11H3.58482V8.15625H4.25279ZM7.76562 9.36523V9.79492C7.76562 9.99935 7.74023 10.179 7.68945 10.334C7.63867 10.4889 7.56641 10.6191 7.47266 10.7246C7.37891 10.8288 7.26758 10.9076 7.13867 10.9609C7.01107 11.013 6.86914 11.0391 6.71289 11.0391C6.55534 11.0391 6.41211 11.013 6.2832 10.9609C6.1543 10.9076 6.04297 10.8288 5.94922 10.7246C5.85547 10.6191 5.7832 10.4889 5.73242 10.334C5.68164 10.179 5.65625 9.99935 5.65625 9.79492V9.36523C5.65625 9.16081 5.68164 8.98047 5.73242 8.82422C5.7832 8.66797 5.85482 8.53776 5.94727 8.43359C6.04102 8.32943 6.15234 8.25065 6.28125 8.19727C6.41016 8.14388 6.55339 8.11719 6.71094 8.11719C6.86719 8.11719 7.00977 8.14388 7.13867 8.19727C7.26888 8.25065 7.38021 8.32943 7.47266 8.43359C7.5651 8.53776 7.63672 8.66797 7.6875 8.82422C7.73958 8.98047 7.76562 9.16081 7.76562 9.36523ZM7.08789 9.79492V9.36133C7.08789 9.23372 7.08008 9.125 7.06445 9.03516C7.04883 8.94531 7.02539 8.8724 6.99414 8.81641C6.96289 8.76042 6.92383 8.7194 6.87695 8.69336C6.83008 8.66732 6.77474 8.6543 6.71094 8.6543C6.64453 8.6543 6.58789 8.66732 6.54102 8.69336C6.49414 8.7194 6.45508 8.76042 6.42383 8.81641C6.39388 8.8724 6.37174 8.94531 6.35742 9.03516C6.3431 9.125 6.33594 9.23372 6.33594 9.36133V9.79492C6.33594 9.92122 6.3431 10.0293 6.35742 10.1191C6.37174 10.2077 6.39388 10.2806 6.42383 10.3379C6.45508 10.3952 6.49479 10.4375 6.54297 10.4648C6.59115 10.4909 6.64779 10.5039 6.71289 10.5039C6.77539 10.5039 6.83008 10.4909 6.87695 10.4648C6.92513 10.4375 6.96419 10.3952 6.99414 10.3379C7.02539 10.2806 7.04883 10.2077 7.06445 10.1191C7.08008 10.0293 7.08789 9.92122 7.08789 9.79492ZM10.4406 9.48047V10.668C10.3963 10.7109 10.3312 10.7617 10.2453 10.8203C10.1593 10.8789 10.0512 10.9303 9.92104 10.9746C9.79213 11.0176 9.63979 11.0391 9.46401 11.0391C9.30125 11.0391 9.15476 11.0143 9.02455 10.9648C8.89434 10.9154 8.78302 10.8405 8.69057 10.7402C8.59942 10.6387 8.52911 10.5117 8.47963 10.3594C8.43015 10.2057 8.40541 10.0241 8.40541 9.81445V9.34375C8.40541 9.13542 8.43015 8.95378 8.47963 8.79883C8.53041 8.64388 8.60138 8.51628 8.69252 8.41602C8.78367 8.31576 8.89174 8.24089 9.01674 8.19141C9.14174 8.14062 9.28041 8.11523 9.43276 8.11523C9.66062 8.11523 9.84747 8.15365 9.9933 8.23047C10.1404 8.30729 10.2505 8.41797 10.3234 8.5625C10.3963 8.70573 10.4347 8.87956 10.4386 9.08398H9.79799C9.79278 8.97591 9.77716 8.88932 9.75112 8.82422C9.72507 8.75911 9.68796 8.71289 9.63979 8.68555C9.59161 8.6569 9.53041 8.64258 9.45619 8.64258C9.3963 8.64258 9.34291 8.6543 9.29604 8.67773C9.25046 8.70117 9.2114 8.74023 9.17885 8.79492C9.1476 8.84831 9.12351 8.91992 9.10658 9.00977C9.09096 9.09961 9.08315 9.20964 9.08315 9.33984V9.81445C9.08315 9.94336 9.09096 10.0527 9.10658 10.1426C9.12221 10.2324 9.1463 10.304 9.17885 10.3574C9.2114 10.4108 9.25502 10.4499 9.30971 10.4746C9.3644 10.4993 9.43211 10.5117 9.51283 10.5117C9.56231 10.5117 9.60333 10.5052 9.63588 10.4922C9.66843 10.4792 9.69578 10.4642 9.71791 10.4473C9.74005 10.4303 9.75828 10.4186 9.7726 10.4121V9.95117H9.43276V9.48047H10.4406Z" fill="white"/>
</svg>
