<svg width="16" height="16" viewBox="0 0 16 16" fill="none" xmlns="http://www.w3.org/2000/svg">
<rect width="16" height="16" fill="white"/>
<path d="M4.45833 0C3.93125 0 3.5 0.45 3.5 1V15C3.5 15.55 3.93125 16 4.45833 16H14.0417C14.5687 16 15 15.55 15 15V3.6129L11.25 0H4.45833Z" fill="#E2E5E7"/>
<path d="M12 3.6129H15L11.25 0L11.3125 2.90323C11.3125 3.20766 11.25 3.6129 12 3.6129Z" fill="#B0B7BD"/>
<path d="M15 6.71006L12 3.61328H15V6.71006Z" fill="#CAD1D8"/>
<path d="M3.5 7.74219H13V13.3804C13 13.9722 12.5203 14.4519 11.9286 14.4519H3.5V7.74219Z" fill="#008E67"/>
<rect x="1" y="5.67773" width="12" height="8.25806" rx="2" fill="#00B583"/>
<path d="M3.33287 8.15625H3.87388L4.32115 10.1348L4.76841 8.15625H5.30748L4.54185 11H4.10045L3.33287 8.15625ZM2.99888 8.15625H3.55943L3.66685 10.3359V11H2.99888V8.15625ZM5.08091 8.15625H5.64341V11H4.97349V10.3359L5.08091 8.15625ZM8.42188 9.36523V9.79492C8.42188 9.99935 8.39648 10.179 8.3457 10.334C8.29492 10.4889 8.22266 10.6191 8.12891 10.7246C8.03516 10.8288 7.92383 10.9076 7.79492 10.9609C7.66732 11.013 7.52539 11.0391 7.36914 11.0391C7.21159 11.0391 7.06836 11.013 6.93945 10.9609C6.81055 10.9076 6.69922 10.8288 6.60547 10.7246C6.51172 10.6191 6.43945 10.4889 6.38867 10.334C6.33789 10.179 6.3125 9.99935 6.3125 9.79492V9.36523C6.3125 9.16081 6.33789 8.98047 6.38867 8.82422C6.43945 8.66797 6.51107 8.53776 6.60352 8.43359C6.69727 8.32943 6.80859 8.25065 6.9375 8.19727C7.06641 8.14388 7.20964 8.11719 7.36719 8.11719C7.52344 8.11719 7.66602 8.14388 7.79492 8.19727C7.92513 8.25065 8.03646 8.32943 8.12891 8.43359C8.22135 8.53776 8.29297 8.66797 8.34375 8.82422C8.39583 8.98047 8.42188 9.16081 8.42188 9.36523ZM7.74414 9.79492V9.36133C7.74414 9.23372 7.73633 9.125 7.7207 9.03516C7.70508 8.94531 7.68164 8.8724 7.65039 8.81641C7.61914 8.76042 7.58008 8.7194 7.5332 8.69336C7.48633 8.66732 7.43099 8.6543 7.36719 8.6543C7.30078 8.6543 7.24414 8.66732 7.19727 8.69336C7.15039 8.7194 7.11133 8.76042 7.08008 8.81641C7.05013 8.8724 7.02799 8.94531 7.01367 9.03516C6.99935 9.125 6.99219 9.23372 6.99219 9.36133V9.79492C6.99219 9.92122 6.99935 10.0293 7.01367 10.1191C7.02799 10.2077 7.05013 10.2806 7.08008 10.3379C7.11133 10.3952 7.15104 10.4375 7.19922 10.4648C7.2474 10.4909 7.30404 10.5039 7.36914 10.5039C7.43164 10.5039 7.48633 10.4909 7.5332 10.4648C7.58138 10.4375 7.62044 10.3952 7.65039 10.3379C7.68164 10.2806 7.70508 10.2077 7.7207 10.1191C7.73633 10.0293 7.74414 9.92122 7.74414 9.79492ZM9.98744 10.3301L10.4249 8.15625H11.1749L10.3859 11H9.90541L9.98744 10.3301ZM9.62026 8.15625L10.0597 10.3301L10.1456 11H9.65932L8.87416 8.15625H9.62026Z" fill="white"/>
</svg>
