<svg width="16" height="16" viewBox="0 0 16 16" fill="none" xmlns="http://www.w3.org/2000/svg">
<rect width="16" height="16" fill="white"/>
<path d="M4.45833 0C3.93125 0 3.5 0.45 3.5 1V15C3.5 15.55 3.93125 16 4.45833 16H14.0417C14.5687 16 15 15.55 15 15V3.6129L11.25 0H4.45833Z" fill="#E2E5E7"/>
<path d="M12 3.6129H15L11.25 0L11.3125 2.90323C11.3125 3.20766 11.25 3.6129 12 3.6129Z" fill="#B0B7BD"/>
<path d="M15 6.71006L12 3.61328H15V6.71006Z" fill="#CAD1D8"/>
<path d="M3.5 7.74219H13V13.3804C13 13.9722 12.5203 14.4519 11.9286 14.4519H3.5V7.74219Z" fill="#008E67"/>
<rect x="1" y="5.67773" width="12" height="8.25806" rx="2" fill="#00B583"/>
<path d="M3.51451 8.15625H4.05552L4.50279 10.1348L4.95006 8.15625H5.48912L4.72349 11H4.28209L3.51451 8.15625ZM3.18052 8.15625H3.74107L3.84849 10.3359V11H3.18052V8.15625ZM5.26256 8.15625H5.82506V11H5.15513V10.3359L5.26256 8.15625ZM7.5293 10.0352H6.96094V9.50586H7.5293C7.5957 9.50586 7.64909 9.48958 7.68945 9.45703C7.73112 9.42448 7.76107 9.37956 7.7793 9.32227C7.79883 9.26367 7.80859 9.19792 7.80859 9.125C7.80859 9.04688 7.79883 8.97461 7.7793 8.9082C7.76107 8.8418 7.73112 8.78841 7.68945 8.74805C7.64909 8.70638 7.5957 8.68555 7.5293 8.68555H7.20508V11H6.53711V8.15625H7.5293C7.72591 8.15625 7.89518 8.19792 8.03711 8.28125C8.18034 8.36458 8.29036 8.47917 8.36719 8.625C8.44531 8.76953 8.48438 8.9349 8.48438 9.12109C8.48438 9.30469 8.44531 9.46484 8.36719 9.60156C8.29036 9.73828 8.18034 9.84505 8.03711 9.92188C7.89518 9.9974 7.72591 10.0352 7.5293 10.0352ZM10.8644 9.88867V10.3965H9.13393L9.09487 9.99414L10.0206 8.15625H10.5226L9.99721 9.08008L9.69838 9.88867H10.8644ZM10.6574 8.15625V11H10.0148V8.15625H10.6574Z" fill="white"/>
</svg>
