<svg width="16" height="16" viewBox="0 0 16 16" fill="none" xmlns="http://www.w3.org/2000/svg">
<rect width="16" height="16" fill="white"/>
<path d="M4.45833 0C3.93125 0 3.5 0.45 3.5 1V15C3.5 15.55 3.93125 16 4.45833 16H14.0417C14.5687 16 15 15.55 15 15V3.6129L11.25 0H4.45833Z" fill="#E2E5E7"/>
<path d="M12 3.6129H15L11.25 0L11.3125 2.90323C11.3125 3.20766 11.25 3.6129 12 3.6129Z" fill="#B0B7BD"/>
<path d="M15 6.71006L12 3.61328H15V6.71006Z" fill="#CAD1D8"/>
<path d="M3.5 7.74219H13V13.3804C13 13.9722 12.5203 14.4519 11.9286 14.4519H3.5V7.74219Z" fill="#CCA030"/>
<rect x="1" y="5.67773" width="12" height="8.25806" rx="2" fill="#FFC93D"/>
<path d="M3.50812 8.15625H4.04914L4.49641 10.1348L4.94367 8.15625H5.48273L4.71711 11H4.2757L3.50812 8.15625ZM3.17414 8.15625H3.73469L3.84211 10.3359V11H3.17414V8.15625ZM5.25617 8.15625H5.81867V11H5.14875V10.3359L5.25617 8.15625ZM7.17916 8.15625L7.49947 9.10156L7.81588 8.15625H8.57565L7.94088 9.56641L8.59127 11H7.82369L7.49947 10.0371L7.1733 11H6.40182L7.05612 9.56641L6.41744 8.15625H7.17916ZM10.7701 10.4727V11H9.57481V10.4727H10.7701ZM9.80918 8.15625V11H9.14122V8.15625H9.80918Z" fill="white"/>
</svg>
