<svg width="16" height="16" viewBox="0 0 16 16" fill="none" xmlns="http://www.w3.org/2000/svg">
<rect width="16" height="16" fill="white"/>
<path d="M4.45833 0C3.93125 0 3.5 0.45 3.5 1V15C3.5 15.55 3.93125 16 4.45833 16H14.0417C14.5687 16 15 15.55 15 15V3.6129L11.25 0H4.45833Z" fill="#E2E5E7"/>
<path d="M12 3.6129H15L11.25 0L11.3125 2.90323C11.3125 3.20766 11.25 3.6129 12 3.6129Z" fill="#B0B7BD"/>
<path d="M15 6.71006L12 3.61328H15V6.71006Z" fill="#CAD1D8"/>
<path d="M3.5 7.74219H13V13.3804C13 13.9722 12.5203 14.4519 11.9286 14.4519H3.5V7.74219Z" fill="#7B9D7F"/>
<rect x="1" y="5.67773" width="12" height="8.25806" rx="2" fill="#81D98A"/>
<path d="M5.5067 9.36523V9.79492C5.5067 9.99935 5.48131 10.179 5.43052 10.334C5.37974 10.4889 5.30748 10.6191 5.21373 10.7246C5.11998 10.8288 5.00865 10.9076 4.87974 10.9609C4.75214 11.013 4.61021 11.0391 4.45396 11.0391C4.29641 11.0391 4.15318 11.013 4.02427 10.9609C3.89537 10.9076 3.78404 10.8288 3.69029 10.7246C3.59654 10.6191 3.52427 10.4889 3.47349 10.334C3.42271 10.179 3.39732 9.99935 3.39732 9.79492V9.36523C3.39732 9.16081 3.42271 8.98047 3.47349 8.82422C3.52427 8.66797 3.59589 8.53776 3.68834 8.43359C3.78209 8.32943 3.89342 8.25065 4.02232 8.19727C4.15123 8.14388 4.29446 8.11719 4.45201 8.11719C4.60826 8.11719 4.75084 8.14388 4.87974 8.19727C5.00995 8.25065 5.12128 8.32943 5.21373 8.43359C5.30618 8.53776 5.37779 8.66797 5.42857 8.82422C5.48065 8.98047 5.5067 9.16081 5.5067 9.36523ZM4.82896 9.79492V9.36133C4.82896 9.23372 4.82115 9.125 4.80552 9.03516C4.7899 8.94531 4.76646 8.8724 4.73521 8.81641C4.70396 8.76042 4.6649 8.7194 4.61802 8.69336C4.57115 8.66732 4.51581 8.6543 4.45201 8.6543C4.3856 8.6543 4.32896 8.66732 4.28209 8.69336C4.23521 8.7194 4.19615 8.76042 4.1649 8.81641C4.13495 8.8724 4.11282 8.94531 4.09849 9.03516C4.08417 9.125 4.07701 9.23372 4.07701 9.36133V9.79492C4.07701 9.92122 4.08417 10.0293 4.09849 10.1191C4.11282 10.2077 4.13495 10.2806 4.1649 10.3379C4.19615 10.3952 4.23586 10.4375 4.28404 10.4648C4.33222 10.4909 4.38886 10.5039 4.45396 10.5039C4.51646 10.5039 4.57115 10.4909 4.61802 10.4648C4.6662 10.4375 4.70526 10.3952 4.73521 10.3379C4.76646 10.2806 4.7899 10.2077 4.80552 10.1191C4.82115 10.0293 4.82896 9.92122 4.82896 9.79492ZM6.97461 11H6.45312L6.45703 10.4727H6.97461C7.07227 10.4727 7.15169 10.4512 7.21289 10.4082C7.27539 10.3652 7.32161 10.2943 7.35156 10.1953C7.38151 10.0951 7.39648 9.96159 7.39648 9.79492V9.35938C7.39648 9.23438 7.38802 9.12891 7.37109 9.04297C7.35547 8.95703 7.33073 8.88802 7.29688 8.83594C7.26302 8.78385 7.2181 8.74609 7.16211 8.72266C7.10612 8.69792 7.03971 8.68555 6.96289 8.68555H6.44336V8.15625H6.96289C7.12956 8.15625 7.2806 8.18359 7.41602 8.23828C7.55273 8.29167 7.67057 8.37109 7.76953 8.47656C7.86849 8.58073 7.94466 8.70703 7.99805 8.85547C8.05143 9.00391 8.07812 9.17318 8.07812 9.36328V9.79492C8.07812 9.98372 8.05143 10.153 7.99805 10.3027C7.94466 10.4512 7.86849 10.5775 7.76953 10.6816C7.67188 10.7858 7.55534 10.8652 7.41992 10.9199C7.28581 10.9733 7.13737 11 6.97461 11ZM6.84375 8.15625V11H6.17578V8.15625H6.84375ZM9.93666 10.2441C9.93666 10.1999 9.93211 10.1602 9.92299 10.125C9.91518 10.0885 9.8989 10.0547 9.87416 10.0234C9.85073 9.99219 9.81492 9.96094 9.76674 9.92969C9.71856 9.89714 9.65411 9.86328 9.57338 9.82812C9.47182 9.78646 9.37221 9.73958 9.27455 9.6875C9.1769 9.63411 9.08901 9.57227 9.01088 9.50195C8.93406 9.43034 8.87221 9.34701 8.82533 9.25195C8.77846 9.1556 8.75502 9.04362 8.75502 8.91602C8.75502 8.79362 8.77846 8.68359 8.82533 8.58594C8.87351 8.48698 8.93927 8.40299 9.0226 8.33398C9.10724 8.26367 9.20684 8.21029 9.32143 8.17383C9.43601 8.13607 9.56101 8.11719 9.69643 8.11719C9.87612 8.11719 10.0343 8.15365 10.171 8.22656C10.3091 8.29818 10.4165 8.40039 10.4933 8.5332C10.5714 8.66471 10.6105 8.82031 10.6105 9H9.94448C9.94448 8.92839 9.93536 8.86523 9.91713 8.81055C9.8989 8.75586 9.87026 8.71289 9.83119 8.68164C9.79343 8.65039 9.7433 8.63477 9.6808 8.63477C9.62481 8.63477 9.57729 8.64779 9.53823 8.67383C9.50046 8.69987 9.47182 8.73503 9.45229 8.7793C9.43276 8.82227 9.42299 8.86979 9.42299 8.92188C9.42299 8.96484 9.43276 9.00391 9.45229 9.03906C9.47182 9.07292 9.49851 9.10482 9.53237 9.13477C9.56752 9.16471 9.60789 9.19336 9.65346 9.2207C9.70033 9.24805 9.75046 9.27474 9.80385 9.30078C9.93276 9.34896 10.0467 9.40299 10.1456 9.46289C10.2459 9.52148 10.3299 9.58854 10.3976 9.66406C10.4653 9.73828 10.5161 9.82292 10.5499 9.91797C10.5851 10.013 10.6027 10.1204 10.6027 10.2402C10.6027 10.3678 10.5818 10.4811 10.5402 10.5801C10.4998 10.679 10.4406 10.763 10.3624 10.832C10.2843 10.8997 10.1899 10.9512 10.0792 10.9863C9.96987 11.0215 9.84617 11.0391 9.70815 11.0391C9.58184 11.0391 9.4575 11.0208 9.3351 10.9844C9.21401 10.9466 9.10398 10.8893 9.00502 10.8125C8.90737 10.7344 8.82924 10.6348 8.77065 10.5137C8.71205 10.3913 8.68276 10.2461 8.68276 10.0781H9.35463C9.35463 10.1615 9.36114 10.2318 9.37416 10.2891C9.38718 10.3464 9.40737 10.3926 9.43471 10.4277C9.46336 10.4616 9.49981 10.4863 9.54408 10.502C9.58836 10.5163 9.64304 10.5234 9.70815 10.5234C9.76804 10.5234 9.81427 10.5111 9.84682 10.4863C9.88067 10.4603 9.90411 10.4264 9.91713 10.3848C9.93015 10.3418 9.93666 10.2949 9.93666 10.2441Z" fill="white"/>
</svg>
