<svg width="16" height="16" viewBox="0 0 16 16" fill="none" xmlns="http://www.w3.org/2000/svg">
<rect width="16" height="16" fill="white"/>
<path d="M4.45833 0C3.93125 0 3.5 0.45 3.5 1V15C3.5 15.55 3.93125 16 4.45833 16H14.0417C14.5687 16 15 15.55 15 15V3.6129L11.25 0H4.45833Z" fill="#E2E5E7"/>
<path d="M12 3.6129H15L11.25 0L11.3125 2.90323C11.3125 3.20766 11.25 3.6129 12 3.6129Z" fill="#B0B7BD"/>
<path d="M15 6.71006L12 3.61328H15V6.71006Z" fill="#CAD1D8"/>
<path d="M3.5 7.74219H13V13.3804C13 13.9722 12.5203 14.4519 11.9286 14.4519H3.5V7.74219Z" fill="#2C6EBC"/>
<rect x="1" y="5.67773" width="12" height="8.25806" rx="2" fill="#449AFF"/>
<path d="M5.50617 9.36523V9.79492C5.50617 9.99935 5.48078 10.179 5.43 10.334C5.37922 10.4889 5.30695 10.6191 5.2132 10.7246C5.11945 10.8288 5.00812 10.9076 4.87922 10.9609C4.75161 11.013 4.60969 11.0391 4.45344 11.0391C4.29588 11.0391 4.15266 11.013 4.02375 10.9609C3.89484 10.9076 3.78351 10.8288 3.68976 10.7246C3.59601 10.6191 3.52375 10.4889 3.47297 10.334C3.42219 10.179 3.3968 9.99935 3.3968 9.79492V9.36523C3.3968 9.16081 3.42219 8.98047 3.47297 8.82422C3.52375 8.66797 3.59536 8.53776 3.68781 8.43359C3.78156 8.32943 3.89289 8.25065 4.0218 8.19727C4.1507 8.14388 4.29393 8.11719 4.45148 8.11719C4.60773 8.11719 4.75031 8.14388 4.87922 8.19727C5.00943 8.25065 5.12075 8.32943 5.2132 8.43359C5.30565 8.53776 5.37726 8.66797 5.42805 8.82422C5.48013 8.98047 5.50617 9.16081 5.50617 9.36523ZM4.82844 9.79492V9.36133C4.82844 9.23372 4.82062 9.125 4.805 9.03516C4.78937 8.94531 4.76594 8.8724 4.73469 8.81641C4.70344 8.76042 4.66437 8.7194 4.6175 8.69336C4.57062 8.66732 4.51529 8.6543 4.45148 8.6543C4.38508 8.6543 4.32844 8.66732 4.28156 8.69336C4.23469 8.7194 4.19562 8.76042 4.16437 8.81641C4.13443 8.8724 4.11229 8.94531 4.09797 9.03516C4.08364 9.125 4.07648 9.23372 4.07648 9.36133V9.79492C4.07648 9.92122 4.08364 10.0293 4.09797 10.1191C4.11229 10.2077 4.13443 10.2806 4.16437 10.3379C4.19562 10.3952 4.23534 10.4375 4.28351 10.4648C4.33169 10.4909 4.38833 10.5039 4.45344 10.5039C4.51594 10.5039 4.57062 10.4909 4.6175 10.4648C4.66568 10.4375 4.70474 10.3952 4.73469 10.3379C4.76594 10.2806 4.78937 10.2077 4.805 10.1191C4.82062 10.0293 4.82844 9.92122 4.82844 9.79492ZM6.97408 11H6.4526L6.45651 10.4727H6.97408C7.07174 10.4727 7.15117 10.4512 7.21237 10.4082C7.27487 10.3652 7.32109 10.2943 7.35104 10.1953C7.38098 10.0951 7.39596 9.96159 7.39596 9.79492V9.35938C7.39596 9.23438 7.3875 9.12891 7.37057 9.04297C7.35494 8.95703 7.3302 8.88802 7.29635 8.83594C7.2625 8.78385 7.21757 8.74609 7.16158 8.72266C7.10559 8.69792 7.03919 8.68555 6.96237 8.68555H6.44283V8.15625H6.96237C7.12903 8.15625 7.28007 8.18359 7.41549 8.23828C7.55221 8.29167 7.67005 8.37109 7.76901 8.47656C7.86796 8.58073 7.94414 8.70703 7.99752 8.85547C8.05091 9.00391 8.0776 9.17318 8.0776 9.36328V9.79492C8.0776 9.98372 8.05091 10.153 7.99752 10.3027C7.94414 10.4512 7.86796 10.5775 7.76901 10.6816C7.67135 10.7858 7.55481 10.8652 7.4194 10.9199C7.28528 10.9733 7.13684 11 6.97408 11ZM6.84322 8.15625V11H6.17526V8.15625H6.84322ZM9.81504 8.15625V11H9.14512V8.15625H9.81504ZM10.5045 8.15625V8.68555H8.4752V8.15625H10.5045Z" fill="white"/>
</svg>
