<svg width="16" height="16" viewBox="0 0 16 16" fill="none" xmlns="http://www.w3.org/2000/svg">
<rect width="16" height="16" fill="white"/>
<path d="M4.45833 0C3.93125 0 3.5 0.45 3.5 1V15C3.5 15.55 3.93125 16 4.45833 16H14.0417C14.5687 16 15 15.55 15 15V3.6129L11.25 0H4.45833Z" fill="#E2E5E7"/>
<path d="M12 3.6129H15L11.25 0L11.3125 2.90323C11.3125 3.20766 11.25 3.6129 12 3.6129Z" fill="#B0B7BD"/>
<path d="M15 6.71006L12 3.61328H15V6.71006Z" fill="#CAD1D8"/>
<path d="M3.5 7.74219H13V13.3804C13 13.9722 12.5203 14.4519 11.9286 14.4519H3.5V7.74219Z" fill="#AE8763"/>
<rect x="1" y="5.67773" width="12" height="8.25806" rx="2" fill="#EEB37C"/>
<path d="M4.86607 10.5312L5.56724 11.1602L5.15123 11.5195L4.46568 10.8906L4.86607 10.5312ZM5.57115 9.36523V9.79297C5.57115 9.9987 5.54576 10.179 5.49498 10.334C5.4442 10.4889 5.37128 10.6191 5.27623 10.7246C5.18248 10.8288 5.07115 10.9076 4.94224 10.9609C4.81334 11.013 4.67076 11.0391 4.51451 11.0391C4.35696 11.0391 4.21373 11.013 4.08482 10.9609C3.95592 10.9076 3.84459 10.8288 3.75084 10.7246C3.65709 10.6191 3.58482 10.4889 3.53404 10.334C3.48326 10.179 3.45787 9.9987 3.45787 9.79297V9.36523C3.45787 9.15951 3.48326 8.97917 3.53404 8.82422C3.58482 8.66797 3.65644 8.53776 3.74888 8.43359C3.84263 8.32812 3.95396 8.24935 4.08287 8.19727C4.21177 8.14388 4.355 8.11719 4.51256 8.11719C4.66881 8.11719 4.81138 8.14388 4.94029 8.19727C5.0692 8.24935 5.18052 8.32812 5.27427 8.43359C5.36933 8.53776 5.44224 8.66797 5.49302 8.82422C5.54511 8.97917 5.57115 9.15951 5.57115 9.36523ZM4.89146 9.79297V9.36133C4.89146 9.23372 4.88365 9.125 4.86802 9.03516C4.8524 8.94531 4.82831 8.8724 4.79576 8.81641C4.76451 8.76042 4.7248 8.7194 4.67662 8.69336C4.62974 8.66732 4.57506 8.6543 4.51256 8.6543C4.44615 8.6543 4.38951 8.66732 4.34263 8.69336C4.29576 8.7194 4.25735 8.76042 4.2274 8.81641C4.19745 8.8724 4.17532 8.94531 4.16099 9.03516C4.14667 9.125 4.13951 9.23372 4.13951 9.36133V9.79297C4.13951 9.91927 4.14667 10.0273 4.16099 10.1172C4.17532 10.207 4.19745 10.2806 4.2274 10.3379C4.25865 10.3952 4.29771 10.4375 4.34459 10.4648C4.39146 10.4909 4.4481 10.5039 4.51451 10.5039C4.57701 10.5039 4.6317 10.4909 4.67857 10.4648C4.72675 10.4375 4.76646 10.3952 4.79771 10.3379C4.82896 10.2806 4.8524 10.207 4.86802 10.1172C4.88365 10.0273 4.89146 9.91927 4.89146 9.79297ZM7.50586 8.15625V11H6.86328V8.89844L6.3457 9.08789V8.58789L7.44922 8.15625H7.50586ZM9.92494 10.0371H10.5929C10.5942 10.2507 10.5525 10.4329 10.4679 10.584C10.3846 10.7337 10.2667 10.847 10.1144 10.9238C9.96205 11.0007 9.78367 11.0391 9.57924 11.0391C9.41388 11.0391 9.26739 11.0104 9.13979 10.9531C9.01218 10.8958 8.90476 10.8125 8.81752 10.7031C8.73028 10.5938 8.66453 10.4616 8.62026 10.3066C8.57599 10.1504 8.55385 9.97331 8.55385 9.77539V9.37891C8.55385 9.18229 8.57729 9.00586 8.62416 8.84961C8.67234 8.69336 8.74005 8.56055 8.82729 8.45117C8.91583 8.3418 9.0226 8.25846 9.1476 8.20117C9.2739 8.14388 9.41453 8.11523 9.56948 8.11523C9.78692 8.11523 9.97052 8.15625 10.1203 8.23828C10.2713 8.31901 10.3872 8.4362 10.4679 8.58984C10.5486 8.74219 10.5916 8.92513 10.5968 9.13867H9.92885C9.93536 9.01497 9.92755 8.91797 9.90541 8.84766C9.88328 8.77604 9.84421 8.72591 9.78823 8.69727C9.73354 8.66732 9.66062 8.65234 9.56948 8.65234C9.50698 8.65234 9.45424 8.66471 9.41127 8.68945C9.3683 8.71419 9.3338 8.75521 9.30776 8.8125C9.28171 8.86849 9.26283 8.94271 9.25112 9.03516C9.2394 9.1276 9.23354 9.24089 9.23354 9.375V9.77539C9.23354 9.91211 9.23809 10.0267 9.24721 10.1191C9.25632 10.2116 9.27325 10.2865 9.29799 10.3438C9.32403 10.3997 9.35919 10.4401 9.40346 10.4648C9.44903 10.4896 9.50763 10.502 9.57924 10.502C9.65476 10.502 9.71921 10.4896 9.7726 10.4648C9.82599 10.4388 9.86635 10.3926 9.89369 10.3262C9.92104 10.2585 9.93145 10.1621 9.92494 10.0371Z" fill="white"/>
</svg>
