<svg width="16" height="16" viewBox="0 0 16 16" fill="none" xmlns="http://www.w3.org/2000/svg">
<rect width="16" height="16" fill="white"/>
<path d="M4.45833 0C3.93125 0 3.5 0.45 3.5 1V15C3.5 15.55 3.93125 16 4.45833 16H14.0417C14.5687 16 15 15.55 15 15V3.6129L11.25 0H4.45833Z" fill="#E2E5E7"/>
<path d="M12 3.6129H15L11.25 0L11.3125 2.90323C11.3125 3.20766 11.25 3.6129 12 3.6129Z" fill="#B0B7BD"/>
<path d="M15 6.71006L12 3.61328H15V6.71006Z" fill="#CAD1D8"/>
<path d="M3.5 7.74219H13V13.3804C13 13.9722 12.5203 14.4519 11.9286 14.4519H3.5V7.74219Z" fill="#5534AF"/>
<rect x="1" y="5.67773" width="12" height="8.25806" rx="2" fill="#7C4CFF"/>
<path d="M3.39342 8.15625H4.36607C4.55618 8.15625 4.72089 8.1888 4.86021 8.25391C4.99954 8.31901 5.10631 8.41536 5.18052 8.54297C5.25605 8.67057 5.29381 8.82812 5.29381 9.01562C5.29381 9.17839 5.27297 9.31445 5.23131 9.42383C5.19094 9.5332 5.13365 9.6237 5.05943 9.69531C4.98521 9.76562 4.89797 9.82357 4.79771 9.86914L4.58092 9.99609H3.81724L3.81334 9.4668H4.35045C4.41164 9.4668 4.46243 9.45117 4.50279 9.41992C4.54315 9.38867 4.5731 9.3444 4.59263 9.28711C4.61347 9.22852 4.62388 9.15885 4.62388 9.07812C4.62388 8.99609 4.61412 8.92578 4.59459 8.86719C4.57506 8.80859 4.54641 8.76367 4.50865 8.73242C4.47219 8.70117 4.42467 8.68555 4.36607 8.68555H4.06138V11H3.39342V8.15625ZM4.65318 11L4.14927 9.74219L4.85631 9.73828L5.36998 10.9707V11H4.65318ZM7.05664 8.75391L6.52734 11H5.80859L6.68555 8.15625H7.13477L7.05664 8.75391ZM7.4707 11L6.94141 8.75391L6.85352 8.15625H7.31055L8.18945 11H7.4707ZM7.49219 9.93945V10.4688H6.25977V9.93945H7.49219ZM8.72768 8.15625H9.70033C9.89044 8.15625 10.0552 8.1888 10.1945 8.25391C10.3338 8.31901 10.4406 8.41536 10.5148 8.54297C10.5903 8.67057 10.6281 8.82812 10.6281 9.01562C10.6281 9.17839 10.6072 9.31445 10.5656 9.42383C10.5252 9.5332 10.4679 9.6237 10.3937 9.69531C10.3195 9.76562 10.2322 9.82357 10.132 9.86914L9.91518 9.99609H9.15151L9.1476 9.4668H9.68471C9.74591 9.4668 9.79669 9.45117 9.83705 9.41992C9.87742 9.38867 9.90737 9.3444 9.9269 9.28711C9.94773 9.22852 9.95815 9.15885 9.95815 9.07812C9.95815 8.99609 9.94838 8.92578 9.92885 8.86719C9.90932 8.80859 9.88067 8.76367 9.84291 8.73242C9.80645 8.70117 9.75893 8.68555 9.70033 8.68555H9.39565V11H8.72768V8.15625ZM9.98744 11L9.48354 9.74219L10.1906 9.73828L10.7042 10.9707V11H9.98744Z" fill="white"/>
</svg>
