<svg width="16" height="16" viewBox="0 0 16 16" fill="none" xmlns="http://www.w3.org/2000/svg">
<rect width="16" height="16" fill="white"/>
<path d="M4.45833 0C3.93125 0 3.5 0.45 3.5 1V15C3.5 15.55 3.93125 16 4.45833 16H14.0417C14.5687 16 15 15.55 15 15V3.6129L11.25 0H4.45833Z" fill="#E2E5E7"/>
<path d="M12 3.6129H15L11.25 0L11.3125 2.90323C11.3125 3.20766 11.25 3.6129 12 3.6129Z" fill="#B0B7BD"/>
<path d="M15 6.71006L12 3.61328H15V6.71006Z" fill="#CAD1D8"/>
<path d="M3.5 7.74219H13V13.3804C13 13.9722 12.5203 14.4519 11.9286 14.4519H3.5V7.74219Z" fill="#AE8763"/>
<rect x="1" y="5.67773" width="12" height="8.25806" rx="2" fill="#EEB37C"/>
<path d="M4.79771 10.2441C4.79771 10.1999 4.79315 10.1602 4.78404 10.125C4.77623 10.0885 4.75995 10.0547 4.73521 10.0234C4.71177 9.99219 4.67597 9.96094 4.62779 9.92969C4.57961 9.89714 4.51516 9.86328 4.43443 9.82812C4.33287 9.78646 4.23326 9.73958 4.1356 9.6875C4.03795 9.63411 3.95006 9.57227 3.87193 9.50195C3.79511 9.43034 3.73326 9.34701 3.68638 9.25195C3.63951 9.1556 3.61607 9.04362 3.61607 8.91602C3.61607 8.79362 3.63951 8.68359 3.68638 8.58594C3.73456 8.48698 3.80032 8.40299 3.88365 8.33398C3.96829 8.26367 4.06789 8.21029 4.18248 8.17383C4.29706 8.13607 4.42206 8.11719 4.55748 8.11719C4.73717 8.11719 4.89537 8.15365 5.03209 8.22656C5.17011 8.29818 5.27753 8.40039 5.35435 8.5332C5.43248 8.66471 5.47154 8.82031 5.47154 9H4.80552C4.80552 8.92839 4.79641 8.86523 4.77818 8.81055C4.75995 8.75586 4.73131 8.71289 4.69224 8.68164C4.65448 8.65039 4.60435 8.63477 4.54185 8.63477C4.48586 8.63477 4.43834 8.64779 4.39927 8.67383C4.36151 8.69987 4.33287 8.73503 4.31334 8.7793C4.29381 8.82227 4.28404 8.86979 4.28404 8.92188C4.28404 8.96484 4.29381 9.00391 4.31334 9.03906C4.33287 9.07292 4.35956 9.10482 4.39342 9.13477C4.42857 9.16471 4.46894 9.19336 4.51451 9.2207C4.56138 9.24805 4.61151 9.27474 4.6649 9.30078C4.79381 9.34896 4.90774 9.40299 5.0067 9.46289C5.10696 9.52148 5.19094 9.58854 5.25865 9.66406C5.32636 9.73828 5.37714 9.82292 5.41099 9.91797C5.44615 10.013 5.46373 10.1204 5.46373 10.2402C5.46373 10.3678 5.44289 10.4811 5.40123 10.5801C5.36086 10.679 5.30162 10.763 5.22349 10.832C5.14537 10.8997 5.05097 10.9512 4.94029 10.9863C4.83092 11.0215 4.70722 11.0391 4.5692 11.0391C4.44289 11.0391 4.31855 11.0208 4.19615 10.9844C4.07506 10.9466 3.96503 10.8893 3.86607 10.8125C3.76842 10.7344 3.69029 10.6348 3.6317 10.5137C3.5731 10.3913 3.54381 10.2461 3.54381 10.0781H4.21568C4.21568 10.1615 4.22219 10.2318 4.23521 10.2891C4.24823 10.3464 4.26842 10.3926 4.29576 10.4277C4.3244 10.4616 4.36086 10.4863 4.40513 10.502C4.4494 10.5163 4.50409 10.5234 4.5692 10.5234C4.62909 10.5234 4.67532 10.5111 4.70787 10.4863C4.74172 10.4603 4.76516 10.4264 4.77818 10.3848C4.7912 10.3418 4.79771 10.2949 4.79771 10.2441ZM7.49805 10.5312L8.19922 11.1602L7.7832 11.5195L7.09766 10.8906L7.49805 10.5312ZM8.20312 9.36523V9.79297C8.20312 9.9987 8.17773 10.179 8.12695 10.334C8.07617 10.4889 8.00326 10.6191 7.9082 10.7246C7.81445 10.8288 7.70312 10.9076 7.57422 10.9609C7.44531 11.013 7.30273 11.0391 7.14648 11.0391C6.98893 11.0391 6.8457 11.013 6.7168 10.9609C6.58789 10.9076 6.47656 10.8288 6.38281 10.7246C6.28906 10.6191 6.2168 10.4889 6.16602 10.334C6.11523 10.179 6.08984 9.9987 6.08984 9.79297V9.36523C6.08984 9.15951 6.11523 8.97917 6.16602 8.82422C6.2168 8.66797 6.28841 8.53776 6.38086 8.43359C6.47461 8.32812 6.58594 8.24935 6.71484 8.19727C6.84375 8.14388 6.98698 8.11719 7.14453 8.11719C7.30078 8.11719 7.44336 8.14388 7.57227 8.19727C7.70117 8.24935 7.8125 8.32812 7.90625 8.43359C8.0013 8.53776 8.07422 8.66797 8.125 8.82422C8.17708 8.97917 8.20312 9.15951 8.20312 9.36523ZM7.52344 9.79297V9.36133C7.52344 9.23372 7.51562 9.125 7.5 9.03516C7.48438 8.94531 7.46029 8.8724 7.42773 8.81641C7.39648 8.76042 7.35677 8.7194 7.30859 8.69336C7.26172 8.66732 7.20703 8.6543 7.14453 8.6543C7.07812 8.6543 7.02148 8.66732 6.97461 8.69336C6.92773 8.7194 6.88932 8.76042 6.85938 8.81641C6.82943 8.8724 6.80729 8.94531 6.79297 9.03516C6.77865 9.125 6.77148 9.23372 6.77148 9.36133V9.79297C6.77148 9.91927 6.77865 10.0273 6.79297 10.1172C6.80729 10.207 6.82943 10.2806 6.85938 10.3379C6.89062 10.3952 6.92969 10.4375 6.97656 10.4648C7.02344 10.4909 7.08008 10.5039 7.14648 10.5039C7.20898 10.5039 7.26367 10.4909 7.31055 10.4648C7.35872 10.4375 7.39844 10.3952 7.42969 10.3379C7.46094 10.2806 7.48438 10.207 7.5 10.1172C7.51562 10.0273 7.52344 9.91927 7.52344 9.79297ZM10.4933 10.4727V11H9.29799V10.4727H10.4933ZM9.53237 8.15625V11H8.8644V8.15625H9.53237Z" fill="white"/>
</svg>
