<svg width="16" height="16" viewBox="0 0 16 16" fill="none" xmlns="http://www.w3.org/2000/svg">
<rect width="16" height="16" fill="white"/>
<path d="M4.45833 0C3.93125 0 3.5 0.45 3.5 1V15C3.5 15.55 3.93125 16 4.45833 16H14.0417C14.5687 16 15 15.55 15 15V3.6129L11.25 0H4.45833Z" fill="#E2E5E7"/>
<path d="M12 3.6129H15L11.25 0L11.3125 2.90323C11.3125 3.20766 11.25 3.6129 12 3.6129Z" fill="#B0B7BD"/>
<path d="M15 6.71006L12 3.61328H15V6.71006Z" fill="#CAD1D8"/>
<path d="M3.5 7.74219H13V13.3804C13 13.9722 12.5203 14.4519 11.9286 14.4519H3.5V7.74219Z" fill="#CA4942"/>
<rect x="1" y="5.67773" width="12" height="8.25806" rx="2" fill="#FF5C52"/>
<path d="M4.62388 10.2441C4.62388 10.1999 4.61933 10.1602 4.61021 10.125C4.6024 10.0885 4.58612 10.0547 4.56138 10.0234C4.53795 9.99219 4.50214 9.96094 4.45396 9.92969C4.40579 9.89714 4.34133 9.86328 4.2606 9.82812C4.15904 9.78646 4.05943 9.73958 3.96177 9.6875C3.86412 9.63411 3.77623 9.57227 3.6981 9.50195C3.62128 9.43034 3.55943 9.34701 3.51256 9.25195C3.46568 9.1556 3.44224 9.04362 3.44224 8.91602C3.44224 8.79362 3.46568 8.68359 3.51256 8.58594C3.56073 8.48698 3.62649 8.40299 3.70982 8.33398C3.79446 8.26367 3.89407 8.21029 4.00865 8.17383C4.12323 8.13607 4.24823 8.11719 4.38365 8.11719C4.56334 8.11719 4.72154 8.15365 4.85826 8.22656C4.99628 8.29818 5.1037 8.40039 5.18052 8.5332C5.25865 8.66471 5.29771 8.82031 5.29771 9H4.6317C4.6317 8.92839 4.62258 8.86523 4.60435 8.81055C4.58612 8.75586 4.55748 8.71289 4.51842 8.68164C4.48065 8.65039 4.43052 8.63477 4.36802 8.63477C4.31204 8.63477 4.26451 8.64779 4.22545 8.67383C4.18769 8.69987 4.15904 8.73503 4.13951 8.7793C4.11998 8.82227 4.11021 8.86979 4.11021 8.92188C4.11021 8.96484 4.11998 9.00391 4.13951 9.03906C4.15904 9.07292 4.18573 9.10482 4.21959 9.13477C4.25474 9.16471 4.29511 9.19336 4.34068 9.2207C4.38756 9.24805 4.43769 9.27474 4.49107 9.30078C4.61998 9.34896 4.73391 9.40299 4.83287 9.46289C4.93313 9.52148 5.01711 9.58854 5.08482 9.66406C5.15253 9.73828 5.20331 9.82292 5.23717 9.91797C5.27232 10.013 5.2899 10.1204 5.2899 10.2402C5.2899 10.3678 5.26907 10.4811 5.2274 10.5801C5.18704 10.679 5.12779 10.763 5.04967 10.832C4.97154 10.8997 4.87714 10.9512 4.76646 10.9863C4.65709 11.0215 4.53339 11.0391 4.39537 11.0391C4.26907 11.0391 4.14472 11.0208 4.02232 10.9844C3.90123 10.9466 3.7912 10.8893 3.69224 10.8125C3.59459 10.7344 3.51646 10.6348 3.45787 10.5137C3.39927 10.3913 3.36998 10.2461 3.36998 10.0781H4.04185C4.04185 10.1615 4.04836 10.2318 4.06138 10.2891C4.0744 10.3464 4.09459 10.3926 4.12193 10.4277C4.15058 10.4616 4.18704 10.4863 4.23131 10.502C4.27558 10.5163 4.33026 10.5234 4.39537 10.5234C4.45526 10.5234 4.50149 10.5111 4.53404 10.4863C4.56789 10.4603 4.59133 10.4264 4.60435 10.3848C4.61737 10.3418 4.62388 10.2949 4.62388 10.2441ZM6.89453 10.3301L7.33203 8.15625H8.08203L7.29297 11H6.8125L6.89453 10.3301ZM6.52734 8.15625L6.9668 10.3301L7.05273 11H6.56641L5.78125 8.15625H6.52734ZM10.5949 9.48047V10.668C10.5506 10.7109 10.4855 10.7617 10.3996 10.8203C10.3136 10.8789 10.2055 10.9303 10.0753 10.9746C9.94643 11.0176 9.79408 11.0391 9.6183 11.0391C9.45554 11.0391 9.30906 11.0143 9.17885 10.9648C9.04864 10.9154 8.93731 10.8405 8.84487 10.7402C8.75372 10.6387 8.68341 10.5117 8.63393 10.3594C8.58445 10.2057 8.55971 10.0241 8.55971 9.81445V9.34375C8.55971 9.13542 8.58445 8.95378 8.63393 8.79883C8.68471 8.64388 8.75567 8.51628 8.84682 8.41602C8.93796 8.31576 9.04604 8.24089 9.17104 8.19141C9.29604 8.14062 9.43471 8.11523 9.58705 8.11523C9.81492 8.11523 10.0018 8.15365 10.1476 8.23047C10.2947 8.30729 10.4048 8.41797 10.4777 8.5625C10.5506 8.70573 10.589 8.87956 10.5929 9.08398H9.95229C9.94708 8.97591 9.93145 8.88932 9.90541 8.82422C9.87937 8.75911 9.84226 8.71289 9.79408 8.68555C9.74591 8.6569 9.68471 8.64258 9.61049 8.64258C9.55059 8.64258 9.49721 8.6543 9.45033 8.67773C9.40476 8.70117 9.3657 8.74023 9.33315 8.79492C9.3019 8.84831 9.27781 8.91992 9.26088 9.00977C9.24526 9.09961 9.23744 9.20964 9.23744 9.33984V9.81445C9.23744 9.94336 9.24526 10.0527 9.26088 10.1426C9.27651 10.2324 9.30059 10.304 9.33315 10.3574C9.3657 10.4108 9.40932 10.4499 9.46401 10.4746C9.51869 10.4993 9.5864 10.5117 9.66713 10.5117C9.71661 10.5117 9.75763 10.5052 9.79018 10.4922C9.82273 10.4792 9.85007 10.4642 9.87221 10.4473C9.89434 10.4303 9.91257 10.4186 9.9269 10.4121V9.95117H9.58705V9.48047H10.5949Z" fill="white"/>
</svg>
