<svg width="16" height="16" viewBox="0 0 16 16" fill="none" xmlns="http://www.w3.org/2000/svg">
<rect width="16" height="16" fill="white"/>
<path d="M4.45833 0C3.93125 0 3.5 0.45 3.5 1V15C3.5 15.55 3.93125 16 4.45833 16H14.0417C14.5687 16 15 15.55 15 15V3.6129L11.25 0H4.45833Z" fill="#E2E5E7"/>
<path d="M12 3.6129H15L11.25 0L11.3125 2.90323C11.3125 3.20766 11.25 3.6129 12 3.6129Z" fill="#B0B7BD"/>
<path d="M15 6.71006L12 3.61328H15V6.71006Z" fill="#CAD1D8"/>
<path d="M3.5 7.74219H13V13.3804C13 13.9722 12.5203 14.4519 11.9286 14.4519H3.5V7.74219Z" fill="#757373"/>
<rect x="1" y="5.67773" width="12" height="8.25806" rx="2" fill="#8C8C8C"/>
<path d="M4.76646 8.15625V11H4.09654V8.15625H4.76646ZM5.45592 8.15625V8.68555H3.42662V8.15625H5.45592ZM6.67969 8.15625L7 9.10156L7.31641 8.15625H8.07617L7.44141 9.56641L8.0918 11H7.32422L7 10.0371L6.67383 11H5.90234L6.55664 9.56641L5.91797 8.15625H6.67969ZM9.88198 8.15625V11H9.21205V8.15625H9.88198ZM10.5714 8.15625V8.68555H8.54213V8.15625H10.5714Z" fill="white"/>
</svg>
