<svg width="16" height="16" viewBox="0 0 16 16" fill="none" xmlns="http://www.w3.org/2000/svg">
<rect width="16" height="16" fill="white"/>
<path d="M4.45833 0C3.93125 0 3.5 0.45 3.5 1V15C3.5 15.55 3.93125 16 4.45833 16H14.0417C14.5687 16 15 15.55 15 15V3.6129L11.25 0H4.45833Z" fill="#E2E5E7"/>
<path d="M12 3.6129H15L11.25 0L11.3125 2.90323C11.3125 3.20766 11.25 3.6129 12 3.6129Z" fill="#B0B7BD"/>
<path d="M15 6.71006L12 3.61328H15V6.71006Z" fill="#CAD1D8"/>
<path d="M3.5 7.74219H13V13.3804C13 13.9722 12.5203 14.4519 11.9286 14.4519H3.5V7.74219Z" fill="#008E67"/>
<rect x="1" y="5.67773" width="12" height="8.25806" rx="2" fill="#00B583"/>
<path d="M3.24302 10.7422L3.70006 8.15625H4.02037L4.2274 8.37695L3.73716 11H3.37974L3.24302 10.7422ZM3.2274 8.15625L3.61216 10.7617L3.45982 11H3.04576L2.56529 8.15625H3.2274ZM4.36412 10.748L4.74693 8.15625H5.40513L4.92466 11H4.51256L4.36412 10.748ZM4.26451 8.15625L4.73716 10.7578L4.59068 11H4.23326L3.72935 8.37305L3.94615 8.15625H4.26451ZM6.32812 8.15625H6.86914L7.31641 10.1348L7.76367 8.15625H8.30273L7.53711 11H7.0957L6.32812 8.15625ZM5.99414 8.15625H6.55469L6.66211 10.3359V11H5.99414V8.15625ZM8.07617 8.15625H8.63867V11H7.96875V10.3359L8.07617 8.15625ZM10.2902 10.3301L10.7277 8.15625H11.4777L10.6886 11H10.2081L10.2902 10.3301ZM9.92299 8.15625L10.3624 10.3301L10.4484 11H9.96205L9.1769 8.15625H9.92299Z" fill="white"/>
</svg>
