<svg width="16" height="16" viewBox="0 0 16 16" fill="none" xmlns="http://www.w3.org/2000/svg">
<rect width="16" height="16" fill="white"/>
<path d="M4.45833 0C3.93125 0 3.5 0.45 3.5 1V15C3.5 15.55 3.93125 16 4.45833 16H14.0417C14.5687 16 15 15.55 15 15V3.6129L11.25 0H4.45833Z" fill="#E2E5E7"/>
<path d="M12 3.6129H15L11.25 0L11.3125 2.90323C11.3125 3.20766 11.25 3.6129 12 3.6129Z" fill="#B0B7BD"/>
<path d="M15 6.71006L12 3.61328H15V6.71006Z" fill="#CAD1D8"/>
<path d="M3.5 7.74219H13V13.3804C13 13.9722 12.5203 14.4519 11.9286 14.4519H3.5V7.74219Z" fill="#7B9D7F"/>
<rect x="1" y="5.67773" width="12" height="8.25806" rx="2" fill="#81D98A"/>
<path d="M2.61942 8.15625L2.93973 9.10156L3.25614 8.15625H4.0159L3.38114 9.56641L4.03153 11H3.26395L2.93973 10.0371L2.61356 11H1.84208L2.49637 9.56641L1.8577 8.15625H2.61942ZM6.21038 10.4727V11H5.01507V10.4727H6.21038ZM5.24944 8.15625V11H4.58147V8.15625H5.24944ZM8.01423 10.2441C8.01423 10.1999 8.00967 10.1602 8.00056 10.125C7.99275 10.0885 7.97647 10.0547 7.95173 10.0234C7.92829 9.99219 7.89248 9.96094 7.84431 9.92969C7.79613 9.89714 7.73168 9.86328 7.65095 9.82812C7.54939 9.78646 7.44978 9.73958 7.35212 9.6875C7.25446 9.63411 7.16657 9.57227 7.08845 9.50195C7.01163 9.43034 6.94978 9.34701 6.9029 9.25195C6.85603 9.1556 6.83259 9.04362 6.83259 8.91602C6.83259 8.79362 6.85603 8.68359 6.9029 8.58594C6.95108 8.48698 7.01683 8.40299 7.10017 8.33398C7.1848 8.26367 7.28441 8.21029 7.399 8.17383C7.51358 8.13607 7.63858 8.11719 7.774 8.11719C7.95368 8.11719 8.11189 8.15365 8.2486 8.22656C8.38663 8.29818 8.49405 8.40039 8.57087 8.5332C8.649 8.66471 8.68806 8.82031 8.68806 9H8.02204C8.02204 8.92839 8.01293 8.86523 7.9947 8.81055C7.97647 8.75586 7.94782 8.71289 7.90876 8.68164C7.871 8.65039 7.82087 8.63477 7.75837 8.63477C7.70238 8.63477 7.65485 8.64779 7.61579 8.67383C7.57803 8.69987 7.54939 8.73503 7.52985 8.7793C7.51032 8.82227 7.50056 8.86979 7.50056 8.92188C7.50056 8.96484 7.51032 9.00391 7.52985 9.03906C7.54939 9.07292 7.57608 9.10482 7.60993 9.13477C7.64509 9.16471 7.68545 9.19336 7.73103 9.2207C7.7779 9.24805 7.82803 9.27474 7.88142 9.30078C8.01032 9.34896 8.12426 9.40299 8.22321 9.46289C8.32347 9.52148 8.40746 9.58854 8.47517 9.66406C8.54288 9.73828 8.59366 9.82292 8.62751 9.91797C8.66267 10.013 8.68025 10.1204 8.68025 10.2402C8.68025 10.3678 8.65941 10.4811 8.61775 10.5801C8.57738 10.679 8.51814 10.763 8.44001 10.832C8.36189 10.8997 8.26748 10.9512 8.15681 10.9863C8.04743 11.0215 7.92373 11.0391 7.78571 11.0391C7.65941 11.0391 7.53506 11.0208 7.41267 10.9844C7.29157 10.9466 7.18155 10.8893 7.08259 10.8125C6.98493 10.7344 6.90681 10.6348 6.84821 10.5137C6.78962 10.3913 6.76032 10.2461 6.76032 10.0781H7.4322C7.4322 10.1615 7.43871 10.2318 7.45173 10.2891C7.46475 10.3464 7.48493 10.3926 7.51228 10.4277C7.54092 10.4616 7.57738 10.4863 7.62165 10.502C7.66592 10.5163 7.72061 10.5234 7.78571 10.5234C7.84561 10.5234 7.89183 10.5111 7.92439 10.4863C7.95824 10.4603 7.98168 10.4264 7.9947 10.3848C8.00772 10.3418 8.01423 10.2949 8.01423 10.2441ZM9.67941 8.15625H10.2204L10.6677 10.1348L11.115 8.15625H11.654L10.8884 11H10.447L9.67941 8.15625ZM9.34542 8.15625H9.90597L10.0134 10.3359V11H9.34542V8.15625ZM11.4275 8.15625H11.99V11H11.32V10.3359L11.4275 8.15625Z" fill="white"/>
</svg>
