<svg width="16" height="16" viewBox="0 0 16 16" fill="none" xmlns="http://www.w3.org/2000/svg">
<rect width="16" height="16" fill="white"/>
<path d="M4.45833 0C3.93125 0 3.5 0.45 3.5 1V15C3.5 15.55 3.93125 16 4.45833 16H14.0417C14.5687 16 15 15.55 15 15V3.6129L11.25 0H4.45833Z" fill="#E2E5E7"/>
<path d="M12 3.6129H15L11.25 0L11.3125 2.90323C11.3125 3.20766 11.25 3.6129 12 3.6129Z" fill="#B0B7BD"/>
<path d="M15 6.71006L12 3.61328H15V6.71006Z" fill="#CAD1D8"/>
<path d="M3.5 7.74219H13V13.3804C13 13.9722 12.5203 14.4519 11.9286 14.4519H3.5V7.74219Z" fill="#7B9D7F"/>
<rect x="1" y="5.67773" width="12" height="8.25806" rx="2" fill="#81D98A"/>
<path d="M3.01004 8.15625L3.33036 9.10156L3.64676 8.15625H4.40653L3.77176 9.56641L4.42215 11H3.65458L3.33036 10.0371L3.00419 11H2.2327L2.887 9.56641L2.24833 8.15625H3.01004ZM6.601 10.4727V11H5.40569V10.4727H6.601ZM5.64007 8.15625V11H4.9721V8.15625H5.64007ZM8.40485 10.2441C8.40485 10.1999 8.4003 10.1602 8.39118 10.125C8.38337 10.0885 8.36709 10.0547 8.34235 10.0234C8.31892 9.99219 8.28311 9.96094 8.23493 9.92969C8.18676 9.89714 8.1223 9.86328 8.04157 9.82812C7.94001 9.78646 7.8404 9.73958 7.74275 9.6875C7.64509 9.63411 7.5572 9.57227 7.47907 9.50195C7.40225 9.43034 7.3404 9.34701 7.29353 9.25195C7.24665 9.1556 7.22321 9.04362 7.22321 8.91602C7.22321 8.79362 7.24665 8.68359 7.29353 8.58594C7.3417 8.48698 7.40746 8.40299 7.49079 8.33398C7.57543 8.26367 7.67504 8.21029 7.78962 8.17383C7.9042 8.13607 8.0292 8.11719 8.16462 8.11719C8.34431 8.11719 8.50251 8.15365 8.63923 8.22656C8.77725 8.29818 8.88467 8.40039 8.9615 8.5332C9.03962 8.66471 9.07868 8.82031 9.07868 9H8.41267C8.41267 8.92839 8.40355 8.86523 8.38532 8.81055C8.36709 8.75586 8.33845 8.71289 8.29939 8.68164C8.26163 8.65039 8.2115 8.63477 8.149 8.63477C8.09301 8.63477 8.04548 8.64779 8.00642 8.67383C7.96866 8.69987 7.94001 8.73503 7.92048 8.7793C7.90095 8.82227 7.89118 8.86979 7.89118 8.92188C7.89118 8.96484 7.90095 9.00391 7.92048 9.03906C7.94001 9.07292 7.9667 9.10482 8.00056 9.13477C8.03571 9.16471 8.07608 9.19336 8.12165 9.2207C8.16853 9.24805 8.21866 9.27474 8.27204 9.30078C8.40095 9.34896 8.51488 9.40299 8.61384 9.46289C8.7141 9.52148 8.79808 9.58854 8.86579 9.66406C8.9335 9.73828 8.98428 9.82292 9.01814 9.91797C9.05329 10.013 9.07087 10.1204 9.07087 10.2402C9.07087 10.3678 9.05004 10.4811 9.00837 10.5801C8.96801 10.679 8.90876 10.763 8.83064 10.832C8.75251 10.8997 8.65811 10.9512 8.54743 10.9863C8.43806 11.0215 8.31436 11.0391 8.17634 11.0391C8.05004 11.0391 7.92569 11.0208 7.80329 10.9844C7.6822 10.9466 7.57217 10.8893 7.47321 10.8125C7.37556 10.7344 7.29743 10.6348 7.23884 10.5137C7.18025 10.3913 7.15095 10.2461 7.15095 10.0781H7.82282C7.82282 10.1615 7.82933 10.2318 7.84235 10.2891C7.85538 10.3464 7.87556 10.3926 7.9029 10.4277C7.93155 10.4616 7.96801 10.4863 8.01228 10.502C8.05655 10.5163 8.11123 10.5234 8.17634 10.5234C8.23623 10.5234 8.28246 10.5111 8.31501 10.4863C8.34887 10.4603 8.3723 10.4264 8.38532 10.3848C8.39834 10.3418 8.40485 10.2949 8.40485 10.2441ZM10.3493 8.15625L10.6696 9.10156L10.986 8.15625H11.7458L11.111 9.56641L11.7614 11H10.9939L10.6696 10.0371L10.3435 11H9.57199L10.2263 9.56641L9.58761 8.15625H10.3493Z" fill="white"/>
</svg>
