<svg width="16" height="16" viewBox="0 0 16 16" fill="none" xmlns="http://www.w3.org/2000/svg">
<rect width="16" height="16" fill="white"/>
<path d="M4.45833 0C3.93125 0 3.5 0.45 3.5 1V15C3.5 15.55 3.93125 16 4.45833 16H14.0417C14.5687 16 15 15.55 15 15V3.6129L11.25 0H4.45833Z" fill="#E2E5E7"/>
<path d="M12 3.6129H15L11.25 0L11.3125 2.90323C11.3125 3.20766 11.25 3.6129 12 3.6129Z" fill="#B0B7BD"/>
<path d="M15 6.71006L12 3.61328H15V6.71006Z" fill="#CAD1D8"/>
<path d="M3.5 7.74219H13V13.3804C13 13.9722 12.5203 14.4519 11.9286 14.4519H3.5V7.74219Z" fill="#AE8763"/>
<rect x="1" y="5.67773" width="12" height="8.25806" rx="2" fill="#EEB37C"/>
<path d="M3.8817 8.15625L4.20201 9.10156L4.51842 8.15625H5.27818L4.64342 9.56641L5.29381 11H4.52623L4.20201 10.0371L3.87584 11H3.10435L3.75865 9.56641L3.11998 8.15625H3.8817ZM6.17773 8.15625H6.71875L7.16602 10.1348L7.61328 8.15625H8.15234L7.38672 11H6.94531L6.17773 8.15625ZM5.84375 8.15625H6.4043L6.51172 10.3359V11H5.84375V8.15625ZM7.92578 8.15625H8.48828V11H7.81836V10.3359L7.92578 8.15625ZM10.8292 10.4727V11H9.63393V10.4727H10.8292ZM9.8683 8.15625V11H9.20033V8.15625H9.8683Z" fill="white"/>
</svg>
