<svg width="16" height="16" viewBox="0 0 16 16" fill="none" xmlns="http://www.w3.org/2000/svg">
<rect width="16" height="16" fill="white"/>
<path d="M4.45833 0C3.93125 0 3.5 0.45 3.5 1V15C3.5 15.55 3.93125 16 4.45833 16H14.0417C14.5687 16 15 15.55 15 15V3.6129L11.25 0H4.45833Z" fill="#E2E5E7"/>
<path d="M12 3.6129H15L11.25 0L11.3125 2.90323C11.3125 3.20766 11.25 3.6129 12 3.6129Z" fill="#B0B7BD"/>
<path d="M15 6.71006L12 3.61328H15V6.71006Z" fill="#CAD1D8"/>
<path d="M3.5 7.74219H13V13.3804C13 13.9722 12.5203 14.4519 11.9286 14.4519H3.5V7.74219Z" fill="#AE8763"/>
<rect x="1" y="5.67773" width="12" height="8.25806" rx="2" fill="#EEB37C"/>
<path d="M4.13365 8.15625L4.45396 9.10156L4.77037 8.15625H5.53013L4.89537 9.56641L5.54576 11H4.77818L4.45396 10.0371L4.12779 11H3.35631L4.0106 9.56641L3.37193 8.15625H4.13365ZM7.28906 10.2441C7.28906 10.1999 7.28451 10.1602 7.27539 10.125C7.26758 10.0885 7.2513 10.0547 7.22656 10.0234C7.20312 9.99219 7.16732 9.96094 7.11914 9.92969C7.07096 9.89714 7.00651 9.86328 6.92578 9.82812C6.82422 9.78646 6.72461 9.73958 6.62695 9.6875C6.5293 9.63411 6.44141 9.57227 6.36328 9.50195C6.28646 9.43034 6.22461 9.34701 6.17773 9.25195C6.13086 9.1556 6.10742 9.04362 6.10742 8.91602C6.10742 8.79362 6.13086 8.68359 6.17773 8.58594C6.22591 8.48698 6.29167 8.40299 6.375 8.33398C6.45964 8.26367 6.55924 8.21029 6.67383 8.17383C6.78841 8.13607 6.91341 8.11719 7.04883 8.11719C7.22852 8.11719 7.38672 8.15365 7.52344 8.22656C7.66146 8.29818 7.76888 8.40039 7.8457 8.5332C7.92383 8.66471 7.96289 8.82031 7.96289 9H7.29688C7.29688 8.92839 7.28776 8.86523 7.26953 8.81055C7.2513 8.75586 7.22266 8.71289 7.18359 8.68164C7.14583 8.65039 7.0957 8.63477 7.0332 8.63477C6.97721 8.63477 6.92969 8.64779 6.89062 8.67383C6.85286 8.69987 6.82422 8.73503 6.80469 8.7793C6.78516 8.82227 6.77539 8.86979 6.77539 8.92188C6.77539 8.96484 6.78516 9.00391 6.80469 9.03906C6.82422 9.07292 6.85091 9.10482 6.88477 9.13477C6.91992 9.16471 6.96029 9.19336 7.00586 9.2207C7.05273 9.24805 7.10286 9.27474 7.15625 9.30078C7.28516 9.34896 7.39909 9.40299 7.49805 9.46289C7.59831 9.52148 7.68229 9.58854 7.75 9.66406C7.81771 9.73828 7.86849 9.82292 7.90234 9.91797C7.9375 10.013 7.95508 10.1204 7.95508 10.2402C7.95508 10.3678 7.93424 10.4811 7.89258 10.5801C7.85221 10.679 7.79297 10.763 7.71484 10.832C7.63672 10.8997 7.54232 10.9512 7.43164 10.9863C7.32227 11.0215 7.19857 11.0391 7.06055 11.0391C6.93424 11.0391 6.8099 11.0208 6.6875 10.9844C6.56641 10.9466 6.45638 10.8893 6.35742 10.8125C6.25977 10.7344 6.18164 10.6348 6.12305 10.5137C6.06445 10.3913 6.03516 10.2461 6.03516 10.0781H6.70703C6.70703 10.1615 6.71354 10.2318 6.72656 10.2891C6.73958 10.3464 6.75977 10.3926 6.78711 10.4277C6.81576 10.4616 6.85221 10.4863 6.89648 10.502C6.94076 10.5163 6.99544 10.5234 7.06055 10.5234C7.12044 10.5234 7.16667 10.5111 7.19922 10.4863C7.23307 10.4603 7.25651 10.4264 7.26953 10.3848C7.28255 10.3418 7.28906 10.2949 7.28906 10.2441ZM9.41908 11H8.8976L8.90151 10.4727H9.41908C9.51674 10.4727 9.59617 10.4512 9.65737 10.4082C9.71987 10.3652 9.76609 10.2943 9.79604 10.1953C9.82599 10.0951 9.84096 9.96159 9.84096 9.79492V9.35938C9.84096 9.23438 9.8325 9.12891 9.81557 9.04297C9.79994 8.95703 9.7752 8.88802 9.74135 8.83594C9.7075 8.78385 9.66257 8.74609 9.60658 8.72266C9.55059 8.69792 9.48419 8.68555 9.40737 8.68555H8.88783V8.15625H9.40737C9.57403 8.15625 9.72507 8.18359 9.86049 8.23828C9.99721 8.29167 10.115 8.37109 10.214 8.47656C10.313 8.58073 10.3891 8.70703 10.4425 8.85547C10.4959 9.00391 10.5226 9.17318 10.5226 9.36328V9.79492C10.5226 9.98372 10.4959 10.153 10.4425 10.3027C10.3891 10.4512 10.313 10.5775 10.214 10.6816C10.1164 10.7858 9.99981 10.8652 9.8644 10.9199C9.73028 10.9733 9.58184 11 9.41908 11ZM9.28823 8.15625V11H8.62026V8.15625H9.28823Z" fill="white"/>
</svg>
