<svg width="20" height="20" viewBox="0 0 20 20" fill="none" xmlns="http://www.w3.org/2000/svg">
<path d="M10.6219 6.69472C10.6219 6.35245 10.3445 6.07499 10.0022 6.07499C9.65992 6.07499 9.38245 6.35245 9.38245 6.69472V11.6543L7.9899 10.0608C7.76467 9.80313 7.37316 9.77679 7.11544 10.002C6.85772 10.2272 6.83138 10.6188 7.05661 10.8765L9.53554 13.713C9.65323 13.8477 9.82335 13.9249 10.0022 13.9249C10.181 13.9249 10.3511 13.8477 10.4688 13.713L12.9478 10.8765C13.173 10.6188 13.1466 10.2272 12.8889 10.002C12.6312 9.77679 12.2397 9.80313 12.0145 10.0608L10.6219 11.6543V6.69472Z" fill="#AFAFAF"/>
<path fill-rule="evenodd" clip-rule="evenodd" d="M10.0013 1.66666C5.39893 1.66666 1.66797 5.39762 1.66797 9.99999C1.66797 14.6024 5.39893 18.3333 10.0013 18.3333C14.6037 18.3333 18.3346 14.6024 18.3346 9.99999C18.3346 5.39762 14.6037 1.66666 10.0013 1.66666ZM2.90743 9.99999C2.90743 6.08216 6.08347 2.90612 10.0013 2.90612C13.9191 2.90612 17.0952 6.08216 17.0952 9.99999C17.0952 13.9178 13.9191 17.0939 10.0013 17.0939C6.08347 17.0939 2.90743 13.9178 2.90743 9.99999Z" fill="#AFAFAF"/>
</svg>
