<svg width="19" height="18" viewBox="0 0 19 18" fill="none" xmlns="http://www.w3.org/2000/svg">
<path d="M17.0832 17.8752C17.0436 17.9346 16.9564 17.9346 16.9168 17.8752L15.1036 15.1555C15.0593 15.089 15.107 15 15.1869 15H16.25C16.25 15 16.25 15 16.25 15V1C16.25 0.585785 16.5858 0.25 17 0.25C17.4142 0.25 17.75 0.585785 17.75 1V15C17.75 15 17.75 15 17.75 15L18.8132 15C18.893 15 18.9407 15.089 18.8964 15.1555L17.0832 17.8752Z" fill="#333333"/>
<path d="M7.75 15C7.75 15.4142 7.41421 15.75 7 15.75H1C0.585786 15.75 0.25 15.4142 0.25 15C0.25 14.5858 0.585786 14.25 1 14.25H7C7.41421 14.25 7.75 14.5858 7.75 15Z" fill="#333333"/>
<path d="M9.75 8C9.75 8.41421 9.41421 8.75 9 8.75H1C0.585786 8.75 0.25 8.41421 0.25 8C0.25 7.58579 0.585786 7.25 1 7.25H9C9.41421 7.25 9.75 7.58579 9.75 8Z" fill="#333333"/>
<path d="M11 1.75C11.4142 1.75 11.75 1.41421 11.75 1C11.75 0.585787 11.4142 0.25 11 0.25H1C0.585786 0.25 0.25 0.585787 0.25 1C0.25 1.41421 0.585786 1.75 1 1.75H11Z" fill="#333333"/>
</svg>
