<svg width="20" height="20" viewBox="0 0 20 20" fill="none" xmlns="http://www.w3.org/2000/svg">
<path fill-rule="evenodd" clip-rule="evenodd" d="M3 2.59512C3 2.26644 3.26863 2 3.6 2H11.4008C11.5599 2 11.7125 2.0627 11.8251 2.17431L16.8243 7.13285C16.9368 7.24445 17 7.39582 17 7.55366V17.4049C17 17.7336 16.7314 18 16.4 18H3.6C3.26863 18 3 17.7336 3 17.4049V2.59512ZM4.2 3.19024V16.8098H15.8V8.14878H11.4008C11.0694 8.14878 10.8008 7.88233 10.8008 7.55366V3.19024H4.2ZM12.0008 4.03187L14.9515 6.95854H12.0008V4.03187ZM10 8.8899C10.3314 8.8899 10.6 9.15635 10.6 9.48502V11.2577H12.3872C12.7186 11.2577 12.9872 11.5241 12.9872 11.8528C12.9872 12.1815 12.7186 12.4479 12.3872 12.4479H10.6V14.2198C10.6 14.5485 10.3314 14.8149 10 14.8149C9.66863 14.8149 9.4 14.5485 9.4 14.2198V12.4479H7.6136C7.28223 12.4479 7.0136 12.1815 7.0136 11.8528C7.0136 11.5241 7.28223 11.2577 7.6136 11.2577H9.4V9.48502C9.4 9.15635 9.66863 8.8899 10 8.8899Z" fill="#333333"/>
</svg>
