<svg xmlns="http://www.w3.org/2000/svg" version="1.1" xmlns:xlink="http://www.w3.org/1999/xlink" xmlns:svgjs="http://svgjs.dev/svgjs" width="100" height="100"><svg width="100" height="100" viewBox="0 0 100 100" fill="none" xmlns="http://www.w3.org/2000/svg">
<path d="M29.4151 95.5648L53.6734 71.3065C55.9056 69.0743 55.2134 66.5665 54.8107 65.5987C54.408 64.6239 53.1294 62.3633 49.9718 62.3633C41.7067 62.3633 34.6002 57.6162 31.4425 49.9799C28.2778 42.3436 29.9449 33.9655 35.794 28.1164L62.3623 1.534C58.4063 0.530894 54.2668 -0.00598145 50 -0.00598145C22.3863 -0.00598145 0 22.3803 0 49.994C0 70.2681 12.0726 87.7095 29.4151 95.5578V95.5648Z" fill="#7AFFC3"></path>
<path d="M76.9641 7.89886L46.2633 38.5996C44.031 40.8319 44.7233 43.3397 45.126 44.3075C45.5286 45.2823 46.8072 47.5428 49.9649 47.5428C58.23 47.5428 65.3365 52.2899 68.4941 59.9263C71.6589 67.5626 69.9917 75.9407 64.1497 81.7898L46.1008 99.8387C47.3865 99.9376 48.6863 100.001 50.0002 100.001C77.614 100.001 100 77.6149 100 50.0012C100 32.3196 90.8098 16.7926 76.957 7.89886H76.9641Z" fill="#5BC8F9"></path>
</svg><style>@media (prefers-color-scheme: light) { :root { filter: none; } }
@media (prefers-color-scheme: dark) { :root { filter: none; } }
</style></svg>