<svg width="16" height="16" viewBox="0 0 16 16" fill="none" xmlns="http://www.w3.org/2000/svg">
<rect width="16" height="16" fill="white"/>
<path d="M4.45833 0C3.93125 0 3.5 0.45 3.5 1V15C3.5 15.55 3.93125 16 4.45833 16H14.0417C14.5687 16 15 15.55 15 15V3.6129L11.25 0H4.45833Z" fill="#E2E5E7"/>
<path d="M12 3.6129H15L11.25 0L11.3125 2.90323C11.3125 3.20766 11.25 3.6129 12 3.6129Z" fill="#B0B7BD"/>
<path d="M15 6.71006L12 3.61328H15V6.71006Z" fill="#CAD1D8"/>
<path d="M3.5 7.74219H13V13.3804C13 13.9722 12.5203 14.4519 11.9286 14.4519H3.5V7.74219Z" fill="#008E67"/>
<rect x="1" y="5.67773" width="12" height="8.25806" rx="2" fill="#00B583"/>
<path d="M5.08092 8.75391L4.55162 11H3.83287L4.70982 8.15625H5.15904L5.08092 8.75391ZM5.49498 11L4.96568 8.75391L4.87779 8.15625H5.33482L6.21373 11H5.49498ZM5.51646 9.93945V10.4688H4.28404V9.93945H5.51646ZM7.53711 10.3301L7.97461 8.15625H8.72461L7.93555 11H7.45508L7.53711 10.3301ZM7.16992 8.15625L7.60938 10.3301L7.69531 11H7.20898L6.42383 8.15625H7.16992ZM9.95815 8.15625V11H9.29213V8.15625H9.95815Z" fill="white"/>
</svg>
