<svg width="16" height="16" viewBox="0 0 16 16" fill="none" xmlns="http://www.w3.org/2000/svg">
<rect width="16" height="16" fill="white"/>
<path d="M4.45833 0C3.93125 0 3.5 0.45 3.5 1V15C3.5 15.55 3.93125 16 4.45833 16H14.0417C14.5687 16 15 15.55 15 15V3.6129L11.25 0H4.45833Z" fill="#E2E5E7"/>
<path d="M12 3.6129H15L11.25 0L11.3125 2.90323C11.3125 3.20766 11.25 3.6129 12 3.6129Z" fill="#B0B7BD"/>
<path d="M15 6.71006L12 3.61328H15V6.71006Z" fill="#CAD1D8"/>
<path d="M3.5 7.74219H13V13.3804C13 13.9722 12.5203 14.4519 11.9286 14.4519H3.5V7.74219Z" fill="#2C6EBC"/>
<rect x="1" y="5.67773" width="12" height="8.25806" rx="2" fill="#449AFF"/>
<path d="M4.07506 9.79102H3.48521L3.48131 9.3418H3.95787C4.0373 9.3418 4.0998 9.33008 4.14537 9.30664C4.19094 9.2819 4.22349 9.24609 4.24302 9.19922C4.26386 9.15234 4.27427 9.09375 4.27427 9.02344C4.27427 8.94271 4.26386 8.8776 4.24302 8.82812C4.22219 8.77865 4.18899 8.74284 4.14341 8.7207C4.09914 8.69727 4.0412 8.68555 3.96959 8.68555H3.73521V11H3.06724V8.15625H3.96959C4.12193 8.15625 4.258 8.17253 4.37779 8.20508C4.49758 8.23633 4.59914 8.28451 4.68248 8.34961C4.76711 8.41471 4.83157 8.49674 4.87584 8.5957C4.92011 8.69336 4.94224 8.80859 4.94224 8.94141C4.94224 9.05729 4.92076 9.16602 4.87779 9.26758C4.83612 9.36914 4.76386 9.45182 4.66099 9.51562C4.55813 9.57812 4.41685 9.61068 4.23716 9.61328L4.07506 9.79102ZM4.05162 11H3.3192L3.54966 10.4727H4.05162C4.11933 10.4727 4.17206 10.4583 4.20982 10.4297C4.24758 10.3997 4.27427 10.3607 4.2899 10.3125C4.30552 10.263 4.31334 10.2083 4.31334 10.1484C4.31334 10.0755 4.30552 10.0124 4.2899 9.95898C4.27558 9.9056 4.25149 9.86458 4.21763 9.83594C4.18378 9.80599 4.13625 9.79102 4.07506 9.79102H3.5731L3.57701 9.3418H4.15709L4.31724 9.52148C4.48782 9.51367 4.62128 9.54036 4.71763 9.60156C4.81399 9.66276 4.8817 9.74349 4.92076 9.84375C4.95982 9.94401 4.97935 10.0488 4.97935 10.1582C4.97935 10.3444 4.94485 10.5 4.87584 10.625C4.80813 10.75 4.70526 10.8438 4.56724 10.9062C4.42922 10.9688 4.25735 11 4.05162 11ZM5.99609 8.15625H6.53711L6.98437 10.1348L7.43164 8.15625H7.9707L7.20508 11H6.76367L5.99609 8.15625ZM5.66211 8.15625H6.22266L6.33008 10.3359V11H5.66211V8.15625ZM7.74414 8.15625H8.30664V11H7.63672V10.3359L7.74414 8.15625ZM10.0109 10.0352H9.44252V9.50586H10.0109C10.0773 9.50586 10.1307 9.48958 10.171 9.45703C10.2127 9.42448 10.2427 9.37956 10.2609 9.32227C10.2804 9.26367 10.2902 9.19792 10.2902 9.125C10.2902 9.04688 10.2804 8.97461 10.2609 8.9082C10.2427 8.8418 10.2127 8.78841 10.171 8.74805C10.1307 8.70638 10.0773 8.68555 10.0109 8.68555H9.68666V11H9.01869V8.15625H10.0109C10.2075 8.15625 10.3768 8.19792 10.5187 8.28125C10.6619 8.36458 10.7719 8.47917 10.8488 8.625C10.9269 8.76953 10.966 8.9349 10.966 9.12109C10.966 9.30469 10.9269 9.46484 10.8488 9.60156C10.7719 9.73828 10.6619 9.84505 10.5187 9.92188C10.3768 9.9974 10.2075 10.0352 10.0109 10.0352Z" fill="white"/>
</svg>
