<svg width="16" height="16" viewBox="0 0 16 16" fill="none" xmlns="http://www.w3.org/2000/svg">
<rect width="16" height="16" fill="white"/>
<path d="M4.45833 0C3.93125 0 3.5 0.45 3.5 1V15C3.5 15.55 3.93125 16 4.45833 16H14.0417C14.5687 16 15 15.55 15 15V3.6129L11.25 0H4.45833Z" fill="#E2E5E7"/>
<path d="M12 3.6129H15L11.25 0L11.3125 2.90323C11.3125 3.20766 11.25 3.6129 12 3.6129Z" fill="#B0B7BD"/>
<path d="M15 6.71006L12 3.61328H15V6.71006Z" fill="#CAD1D8"/>
<path d="M3.5 7.74219H13V13.3804C13 13.9722 12.5203 14.4519 11.9286 14.4519H3.5V7.74219Z" fill="#CA4942"/>
<rect x="1" y="5.67773" width="12" height="8.25806" rx="2" fill="#FF5C52"/>
<path d="M2.77958 9.79102H2.18973L2.18583 9.3418H2.66239C2.74182 9.3418 2.80432 9.33008 2.84989 9.30664C2.89546 9.2819 2.92801 9.24609 2.94754 9.19922C2.96838 9.15234 2.97879 9.09375 2.97879 9.02344C2.97879 8.94271 2.96838 8.8776 2.94754 8.82812C2.92671 8.77865 2.89351 8.74284 2.84794 8.7207C2.80366 8.69727 2.74572 8.68555 2.67411 8.68555H2.43973V11H1.77176V8.15625H2.67411C2.82645 8.15625 2.96252 8.17253 3.08231 8.20508C3.2021 8.23633 3.30366 8.28451 3.387 8.34961C3.47163 8.41471 3.53609 8.49674 3.58036 8.5957C3.62463 8.69336 3.64676 8.80859 3.64676 8.94141C3.64676 9.05729 3.62528 9.16602 3.58231 9.26758C3.54064 9.36914 3.46838 9.45182 3.36551 9.51562C3.26265 9.57812 3.12137 9.61068 2.94169 9.61328L2.77958 9.79102ZM2.75614 11H2.02372L2.25419 10.4727H2.75614C2.82385 10.4727 2.87658 10.4583 2.91434 10.4297C2.9521 10.3997 2.97879 10.3607 2.99442 10.3125C3.01004 10.263 3.01786 10.2083 3.01786 10.1484C3.01786 10.0755 3.01004 10.0124 2.99442 9.95898C2.9801 9.9056 2.95601 9.86458 2.92215 9.83594C2.8883 9.80599 2.84077 9.79102 2.77958 9.79102H2.27762L2.28153 9.3418H2.86161L3.02176 9.52148C3.19234 9.51367 3.3258 9.54036 3.42215 9.60156C3.51851 9.66276 3.58622 9.74349 3.62528 9.84375C3.66434 9.94401 3.68387 10.0488 3.68387 10.1582C3.68387 10.3444 3.64937 10.5 3.58036 10.625C3.51265 10.75 3.40978 10.8438 3.27176 10.9062C3.13374 10.9688 2.96187 11 2.75614 11ZM4.70061 8.15625H5.24163L5.68889 10.1348L6.13616 8.15625H6.67522L5.9096 11H5.46819L4.70061 8.15625ZM4.36663 8.15625H4.92718L5.0346 10.3359V11H4.36663V8.15625ZM6.44866 8.15625H7.01116V11H6.34124V10.3359L6.44866 8.15625ZM8.7154 10.0352H8.14704V9.50586H8.7154C8.78181 9.50586 8.83519 9.48958 8.87556 9.45703C8.91722 9.42448 8.94717 9.37956 8.9654 9.32227C8.98493 9.26367 8.9947 9.19792 8.9947 9.125C8.9947 9.04688 8.98493 8.97461 8.9654 8.9082C8.94717 8.8418 8.91722 8.78841 8.87556 8.74805C8.83519 8.70638 8.78181 8.68555 8.7154 8.68555H8.39118V11H7.72321V8.15625H8.7154C8.91202 8.15625 9.08129 8.19792 9.22321 8.28125C9.36644 8.36458 9.47647 8.47917 9.55329 8.625C9.63142 8.76953 9.67048 8.9349 9.67048 9.12109C9.67048 9.30469 9.63142 9.46484 9.55329 9.60156C9.47647 9.73828 9.36644 9.84505 9.22321 9.92188C9.08129 9.9974 8.91202 10.0352 8.7154 10.0352ZM10.3474 8.15625H11.32C11.5101 8.15625 11.6749 8.1888 11.8142 8.25391C11.9535 8.31901 12.0603 8.41536 12.1345 8.54297C12.21 8.67057 12.2478 8.82812 12.2478 9.01562C12.2478 9.17839 12.2269 9.31445 12.1853 9.42383C12.1449 9.5332 12.0876 9.6237 12.0134 9.69531C11.9392 9.76562 11.8519 9.82357 11.7517 9.86914L11.5349 9.99609H10.7712L10.7673 9.4668H11.3044C11.3656 9.4668 11.4164 9.45117 11.4568 9.41992C11.4971 9.38867 11.5271 9.3444 11.5466 9.28711C11.5674 9.22852 11.5778 9.15885 11.5778 9.07812C11.5778 8.99609 11.5681 8.92578 11.5485 8.86719C11.529 8.80859 11.5004 8.76367 11.4626 8.73242C11.4262 8.70117 11.3786 8.68555 11.32 8.68555H11.0153V11H10.3474V8.15625ZM11.6071 11L11.1032 9.74219L11.8103 9.73828L12.3239 10.9707V11H11.6071Z" fill="white"/>
</svg>
