<svg width="16" height="16" viewBox="0 0 16 16" fill="none" xmlns="http://www.w3.org/2000/svg">
<rect width="16" height="16" fill="white"/>
<path d="M4.45833 0C3.93125 0 3.5 0.45 3.5 1V15C3.5 15.55 3.93125 16 4.45833 16H14.0417C14.5687 16 15 15.55 15 15V3.6129L11.25 0H4.45833Z" fill="#E2E5E7"/>
<path d="M12 3.6129H15L11.25 0L11.3125 2.90323C11.3125 3.20766 11.25 3.6129 12 3.6129Z" fill="#B0B7BD"/>
<path d="M15 6.71006L12 3.61328H15V6.71006Z" fill="#CAD1D8"/>
<path d="M3.5 7.74219H13V13.3804C13 13.9722 12.5203 14.4519 11.9286 14.4519H3.5V7.74219Z" fill="#757373"/>
<rect x="1" y="5.67773" width="12" height="8.25806" rx="2" fill="#8C8C8C"/>
<path d="M4.36607 11H3.84459L3.84849 10.4727H4.36607C4.46373 10.4727 4.54315 10.4512 4.60435 10.4082C4.66685 10.3652 4.71308 10.2943 4.74302 10.1953C4.77297 10.0951 4.78795 9.96159 4.78795 9.79492V9.35938C4.78795 9.23438 4.77948 9.12891 4.76256 9.04297C4.74693 8.95703 4.72219 8.88802 4.68834 8.83594C4.65448 8.78385 4.60956 8.74609 4.55357 8.72266C4.49758 8.69792 4.43118 8.68555 4.35435 8.68555H3.83482V8.15625H4.35435C4.52102 8.15625 4.67206 8.18359 4.80748 8.23828C4.9442 8.29167 5.06204 8.37109 5.16099 8.47656C5.25995 8.58073 5.33612 8.70703 5.38951 8.85547C5.44289 9.00391 5.46959 9.17318 5.46959 9.36328V9.79492C5.46959 9.98372 5.44289 10.153 5.38951 10.3027C5.33612 10.4512 5.25995 10.5775 5.16099 10.6816C5.06334 10.7858 4.9468 10.8652 4.81138 10.9199C4.67727 10.9733 4.52883 11 4.36607 11ZM4.23521 8.15625V11H3.56724V8.15625H4.23521ZM7.16602 8.75391L6.63672 11H5.91797L6.79492 8.15625H7.24414L7.16602 8.75391ZM7.58008 11L7.05078 8.75391L6.96289 8.15625H7.41992L8.29883 11H7.58008ZM7.60156 9.93945V10.4688H6.36914V9.93945H7.60156ZM9.84096 8.15625V11H9.17104V8.15625H9.84096ZM10.5304 8.15625V8.68555H8.50112V8.15625H10.5304Z" fill="white"/>
</svg>
