<svg width="16" height="16" viewBox="0 0 16 16" fill="none" xmlns="http://www.w3.org/2000/svg">
<rect width="16" height="16" fill="white"/>
<path d="M4.45833 0C3.93125 0 3.5 0.45 3.5 1V15C3.5 15.55 3.93125 16 4.45833 16H14.0417C14.5687 16 15 15.55 15 15V3.6129L11.25 0H4.45833Z" fill="#E2E5E7"/>
<path d="M12 3.6129H15L11.25 0L11.3125 2.90323C11.3125 3.20766 11.25 3.6129 12 3.6129Z" fill="#B0B7BD"/>
<path d="M15 6.71006L12 3.61328H15V6.71006Z" fill="#CAD1D8"/>
<path d="M3.5 7.74219H13V13.3804C13 13.9722 12.5203 14.4519 11.9286 14.4519H3.5V7.74219Z" fill="#2C6EBC"/>
<rect x="1" y="5.67773" width="12" height="8.25806" rx="2" fill="#449AFF"/>
<path d="M4.11945 11H3.59797L3.60187 10.4727H4.11945C4.21711 10.4727 4.29654 10.4512 4.35773 10.4082C4.42023 10.3652 4.46646 10.2943 4.49641 10.1953C4.52635 10.0951 4.54133 9.96159 4.54133 9.79492V9.35938C4.54133 9.23438 4.53286 9.12891 4.51594 9.04297C4.50031 8.95703 4.47557 8.88802 4.44172 8.83594C4.40786 8.78385 4.36294 8.74609 4.30695 8.72266C4.25096 8.69792 4.18456 8.68555 4.10773 8.68555H3.5882V8.15625H4.10773C4.2744 8.15625 4.42544 8.18359 4.56086 8.23828C4.69758 8.29167 4.81542 8.37109 4.91437 8.47656C5.01333 8.58073 5.0895 8.70703 5.14289 8.85547C5.19628 9.00391 5.22297 9.17318 5.22297 9.36328V9.79492C5.22297 9.98372 5.19628 10.153 5.14289 10.3027C5.0895 10.4512 5.01333 10.5775 4.91437 10.6816C4.81672 10.7858 4.70018 10.8652 4.56476 10.9199C4.43065 10.9733 4.28221 11 4.11945 11ZM3.98859 8.15625V11H3.32062V8.15625H3.98859ZM7.95455 9.36523V9.79492C7.95455 9.99935 7.92916 10.179 7.87838 10.334C7.8276 10.4889 7.75533 10.6191 7.66158 10.7246C7.56783 10.8288 7.45651 10.9076 7.3276 10.9609C7.2 11.013 7.05807 11.0391 6.90182 11.0391C6.74427 11.0391 6.60104 11.013 6.47213 10.9609C6.34322 10.9076 6.2319 10.8288 6.13815 10.7246C6.0444 10.6191 5.97213 10.4889 5.92135 10.334C5.87057 10.179 5.84518 9.99935 5.84518 9.79492V9.36523C5.84518 9.16081 5.87057 8.98047 5.92135 8.82422C5.97213 8.66797 6.04375 8.53776 6.13619 8.43359C6.22994 8.32943 6.34127 8.25065 6.47018 8.19727C6.59908 8.14388 6.74231 8.11719 6.89987 8.11719C7.05612 8.11719 7.19869 8.14388 7.3276 8.19727C7.45781 8.25065 7.56914 8.32943 7.66158 8.43359C7.75403 8.53776 7.82565 8.66797 7.87643 8.82422C7.92851 8.98047 7.95455 9.16081 7.95455 9.36523ZM7.27682 9.79492V9.36133C7.27682 9.23372 7.26901 9.125 7.25338 9.03516C7.23776 8.94531 7.21432 8.8724 7.18307 8.81641C7.15182 8.76042 7.11276 8.7194 7.06588 8.69336C7.01901 8.66732 6.96367 8.6543 6.89987 8.6543C6.83346 8.6543 6.77682 8.66732 6.72994 8.69336C6.68307 8.7194 6.64401 8.76042 6.61276 8.81641C6.58281 8.8724 6.56067 8.94531 6.54635 9.03516C6.53203 9.125 6.52487 9.23372 6.52487 9.36133V9.79492C6.52487 9.92122 6.53203 10.0293 6.54635 10.1191C6.56067 10.2077 6.58281 10.2806 6.61276 10.3379C6.64401 10.3952 6.68372 10.4375 6.7319 10.4648C6.78007 10.4909 6.83671 10.5039 6.90182 10.5039C6.96432 10.5039 7.01901 10.4909 7.06588 10.4648C7.11406 10.4375 7.15312 10.3952 7.18307 10.3379C7.21432 10.2806 7.23776 10.2077 7.25338 10.1191C7.26901 10.0293 7.27682 9.92122 7.27682 9.79492ZM9.94786 10.0371H10.6158C10.6171 10.2507 10.5755 10.4329 10.4908 10.584C10.4075 10.7337 10.2897 10.847 10.1373 10.9238C9.98497 11.0007 9.80658 11.0391 9.60215 11.0391C9.43679 11.0391 9.2903 11.0104 9.1627 10.9531C9.0351 10.8958 8.92767 10.8125 8.84043 10.7031C8.75319 10.5938 8.68744 10.4616 8.64317 10.3066C8.5989 10.1504 8.57676 9.97331 8.57676 9.77539V9.37891C8.57676 9.18229 8.6002 9.00586 8.64707 8.84961C8.69525 8.69336 8.76296 8.56055 8.8502 8.45117C8.93874 8.3418 9.04551 8.25846 9.17051 8.20117C9.29681 8.14388 9.43744 8.11523 9.59239 8.11523C9.80984 8.11523 9.99343 8.15625 10.1432 8.23828C10.2942 8.31901 10.4101 8.4362 10.4908 8.58984C10.5716 8.74219 10.6145 8.92513 10.6197 9.13867H9.95176C9.95827 9.01497 9.95046 8.91797 9.92832 8.84766C9.90619 8.77604 9.86713 8.72591 9.81114 8.69727C9.75645 8.66732 9.68353 8.65234 9.59239 8.65234C9.52989 8.65234 9.47715 8.66471 9.43418 8.68945C9.39122 8.71419 9.35671 8.75521 9.33067 8.8125C9.30463 8.86849 9.28575 8.94271 9.27403 9.03516C9.26231 9.1276 9.25645 9.24089 9.25645 9.375V9.77539C9.25645 9.91211 9.26101 10.0267 9.27012 10.1191C9.27924 10.2116 9.29616 10.2865 9.3209 10.3438C9.34694 10.3997 9.3821 10.4401 9.42637 10.4648C9.47194 10.4896 9.53054 10.502 9.60215 10.502C9.67767 10.502 9.74213 10.4896 9.79551 10.4648C9.8489 10.4388 9.88926 10.3926 9.91661 10.3262C9.94395 10.2585 9.95437 10.1621 9.94786 10.0371Z" fill="white"/>
</svg>
