<svg width="16" height="16" viewBox="0 0 16 16" fill="none" xmlns="http://www.w3.org/2000/svg">
<rect width="16" height="16" fill="white"/>
<path d="M4.45833 0C3.93125 0 3.5 0.45 3.5 1V15C3.5 15.55 3.93125 16 4.45833 16H14.0417C14.5687 16 15 15.55 15 15V3.6129L11.25 0H4.45833Z" fill="#E2E5E7"/>
<path d="M12 3.6129H15L11.25 0L11.3125 2.90323C11.3125 3.20766 11.25 3.6129 12 3.6129Z" fill="#B0B7BD"/>
<path d="M15 6.71006L12 3.61328H15V6.71006Z" fill="#CAD1D8"/>
<path d="M3.5 7.74219H13V13.3804C13 13.9722 12.5203 14.4519 11.9286 14.4519H3.5V7.74219Z" fill="#2C6EBC"/>
<rect x="1" y="5.67773" width="12" height="8.25806" rx="2" fill="#449AFF"/>
<path d="M2.51786 11H1.99637L2.00028 10.4727H2.51786C2.61551 10.4727 2.69494 10.4512 2.75614 10.4082C2.81864 10.3652 2.86486 10.2943 2.89481 10.1953C2.92476 10.0951 2.93973 9.96159 2.93973 9.79492V9.35938C2.93973 9.23438 2.93127 9.12891 2.91434 9.04297C2.89872 8.95703 2.87398 8.88802 2.84012 8.83594C2.80627 8.78385 2.76135 8.74609 2.70536 8.72266C2.64937 8.69792 2.58296 8.68555 2.50614 8.68555H1.98661V8.15625H2.50614C2.6728 8.15625 2.82385 8.18359 2.95926 8.23828C3.09598 8.29167 3.21382 8.37109 3.31278 8.47656C3.41174 8.58073 3.48791 8.70703 3.54129 8.85547C3.59468 9.00391 3.62137 9.17318 3.62137 9.36328V9.79492C3.62137 9.98372 3.59468 10.153 3.54129 10.3027C3.48791 10.4512 3.41174 10.5775 3.31278 10.6816C3.21512 10.7858 3.09859 10.8652 2.96317 10.9199C2.82905 10.9733 2.68062 11 2.51786 11ZM2.387 8.15625V11H1.71903V8.15625H2.387ZM6.35296 9.36523V9.79492C6.35296 9.99935 6.32757 10.179 6.27679 10.334C6.226 10.4889 6.15374 10.6191 6.05999 10.7246C5.96624 10.8288 5.85491 10.9076 5.726 10.9609C5.5984 11.013 5.45647 11.0391 5.30022 11.0391C5.14267 11.0391 4.99944 11.013 4.87054 10.9609C4.74163 10.9076 4.6303 10.8288 4.53655 10.7246C4.4428 10.6191 4.37054 10.4889 4.31975 10.334C4.26897 10.179 4.24358 9.99935 4.24358 9.79492V9.36523C4.24358 9.16081 4.26897 8.98047 4.31975 8.82422C4.37054 8.66797 4.44215 8.53776 4.5346 8.43359C4.62835 8.32943 4.73968 8.25065 4.86858 8.19727C4.99749 8.14388 5.14072 8.11719 5.29827 8.11719C5.45452 8.11719 5.5971 8.14388 5.726 8.19727C5.85621 8.25065 5.96754 8.32943 6.05999 8.43359C6.15244 8.53776 6.22405 8.66797 6.27483 8.82422C6.32692 8.98047 6.35296 9.16081 6.35296 9.36523ZM5.67522 9.79492V9.36133C5.67522 9.23372 5.66741 9.125 5.65179 9.03516C5.63616 8.94531 5.61272 8.8724 5.58147 8.81641C5.55022 8.76042 5.51116 8.7194 5.46429 8.69336C5.41741 8.66732 5.36207 8.6543 5.29827 8.6543C5.23186 8.6543 5.17522 8.66732 5.12835 8.69336C5.08147 8.7194 5.04241 8.76042 5.01116 8.81641C4.98121 8.8724 4.95908 8.94531 4.94475 9.03516C4.93043 9.125 4.92327 9.23372 4.92327 9.36133V9.79492C4.92327 9.92122 4.93043 10.0293 4.94475 10.1191C4.95908 10.2077 4.98121 10.2806 5.01116 10.3379C5.04241 10.3952 5.08212 10.4375 5.1303 10.4648C5.17848 10.4909 5.23512 10.5039 5.30022 10.5039C5.36272 10.5039 5.41741 10.4909 5.46429 10.4648C5.51246 10.4375 5.55153 10.3952 5.58147 10.3379C5.61272 10.2806 5.63616 10.2077 5.65179 10.1191C5.66741 10.0293 5.67522 9.92122 5.67522 9.79492ZM8.34626 10.0371H9.01423C9.01553 10.2507 8.97387 10.4329 8.88923 10.584C8.8059 10.7337 8.68806 10.847 8.53571 10.9238C8.38337 11.0007 8.20498 11.0391 8.00056 11.0391C7.83519 11.0391 7.68871 11.0104 7.5611 10.9531C7.4335 10.8958 7.32608 10.8125 7.23884 10.7031C7.1516 10.5938 7.08584 10.4616 7.04157 10.3066C6.9973 10.1504 6.97517 9.97331 6.97517 9.77539V9.37891C6.97517 9.18229 6.9986 9.00586 7.04548 8.84961C7.09366 8.69336 7.16137 8.56055 7.2486 8.45117C7.33715 8.3418 7.44392 8.25846 7.56892 8.20117C7.69522 8.14388 7.83584 8.11523 7.99079 8.11523C8.20824 8.11523 8.39183 8.15625 8.54157 8.23828C8.69262 8.31901 8.8085 8.4362 8.88923 8.58984C8.96996 8.74219 9.01293 8.92513 9.01814 9.13867H8.35017C8.35668 9.01497 8.34887 8.91797 8.32673 8.84766C8.30459 8.77604 8.26553 8.72591 8.20954 8.69727C8.15485 8.66732 8.08194 8.65234 7.99079 8.65234C7.92829 8.65234 7.87556 8.66471 7.83259 8.68945C7.78962 8.71419 7.75512 8.75521 7.72907 8.8125C7.70303 8.86849 7.68415 8.94271 7.67243 9.03516C7.66071 9.1276 7.65485 9.24089 7.65485 9.375V9.77539C7.65485 9.91211 7.65941 10.0267 7.66853 10.1191C7.67764 10.2116 7.69457 10.2865 7.71931 10.3438C7.74535 10.3997 7.78051 10.4401 7.82478 10.4648C7.87035 10.4896 7.92894 10.502 8.00056 10.502C8.07608 10.502 8.14053 10.4896 8.19392 10.4648C8.2473 10.4388 8.28767 10.3926 8.31501 10.3262C8.34235 10.2585 8.35277 10.1621 8.34626 10.0371ZM9.96652 8.15625H10.5075L10.9548 10.1348L11.4021 8.15625H11.9411L11.1755 11H10.7341L9.96652 8.15625ZM9.63253 8.15625H10.1931L10.3005 10.3359V11H9.63253V8.15625ZM11.7146 8.15625H12.2771V11H11.6071V10.3359L11.7146 8.15625Z" fill="white"/>
</svg>
