<svg width="16" height="16" viewBox="0 0 16 16" fill="none" xmlns="http://www.w3.org/2000/svg">
<rect width="16" height="16" fill="white"/>
<path d="M4.45833 0C3.93125 0 3.5 0.45 3.5 1V15C3.5 15.55 3.93125 16 4.45833 16H14.0417C14.5687 16 15 15.55 15 15V3.6129L11.25 0H4.45833Z" fill="#E2E5E7"/>
<path d="M12 3.6129H15L11.25 0L11.3125 2.90323C11.3125 3.20766 11.25 3.6129 12 3.6129Z" fill="#B0B7BD"/>
<path d="M15 6.71006L12 3.61328H15V6.71006Z" fill="#CAD1D8"/>
<path d="M3.5 7.74219H13V13.3804C13 13.9722 12.5203 14.4519 11.9286 14.4519H3.5V7.74219Z" fill="#2C6EBC"/>
<rect x="1" y="5.67773" width="12" height="8.25806" rx="2" fill="#449AFF"/>
<path d="M2.90848 11H2.387L2.3909 10.4727H2.90848C3.00614 10.4727 3.08557 10.4512 3.14676 10.4082C3.20926 10.3652 3.25549 10.2943 3.28544 10.1953C3.31538 10.0951 3.33036 9.96159 3.33036 9.79492V9.35938C3.33036 9.23438 3.32189 9.12891 3.30497 9.04297C3.28934 8.95703 3.2646 8.88802 3.23075 8.83594C3.19689 8.78385 3.15197 8.74609 3.09598 8.72266C3.03999 8.69792 2.97359 8.68555 2.89676 8.68555H2.37723V8.15625H2.89676C3.06343 8.15625 3.21447 8.18359 3.34989 8.23828C3.48661 8.29167 3.60445 8.37109 3.7034 8.47656C3.80236 8.58073 3.87853 8.70703 3.93192 8.85547C3.9853 9.00391 4.012 9.17318 4.012 9.36328V9.79492C4.012 9.98372 3.9853 10.153 3.93192 10.3027C3.87853 10.4512 3.80236 10.5775 3.7034 10.6816C3.60575 10.7858 3.48921 10.8652 3.35379 10.9199C3.21968 10.9733 3.07124 11 2.90848 11ZM2.77762 8.15625V11H2.10965V8.15625H2.77762ZM6.74358 9.36523V9.79492C6.74358 9.99935 6.71819 10.179 6.66741 10.334C6.61663 10.4889 6.54436 10.6191 6.45061 10.7246C6.35686 10.8288 6.24554 10.9076 6.11663 10.9609C5.98903 11.013 5.8471 11.0391 5.69085 11.0391C5.5333 11.0391 5.39007 11.013 5.26116 10.9609C5.13225 10.9076 5.02093 10.8288 4.92718 10.7246C4.83343 10.6191 4.76116 10.4889 4.71038 10.334C4.6596 10.179 4.63421 9.99935 4.63421 9.79492V9.36523C4.63421 9.16081 4.6596 8.98047 4.71038 8.82422C4.76116 8.66797 4.83278 8.53776 4.92522 8.43359C5.01897 8.32943 5.1303 8.25065 5.25921 8.19727C5.38811 8.14388 5.53134 8.11719 5.68889 8.11719C5.84514 8.11719 5.98772 8.14388 6.11663 8.19727C6.24684 8.25065 6.35817 8.32943 6.45061 8.43359C6.54306 8.53776 6.61468 8.66797 6.66546 8.82422C6.71754 8.98047 6.74358 9.16081 6.74358 9.36523ZM6.06585 9.79492V9.36133C6.06585 9.23372 6.05804 9.125 6.04241 9.03516C6.02679 8.94531 6.00335 8.8724 5.9721 8.81641C5.94085 8.76042 5.90179 8.7194 5.85491 8.69336C5.80804 8.66732 5.7527 8.6543 5.68889 8.6543C5.62249 8.6543 5.56585 8.66732 5.51897 8.69336C5.4721 8.7194 5.43304 8.76042 5.40179 8.81641C5.37184 8.8724 5.3497 8.94531 5.33538 9.03516C5.32106 9.125 5.31389 9.23372 5.31389 9.36133V9.79492C5.31389 9.92122 5.32106 10.0293 5.33538 10.1191C5.3497 10.2077 5.37184 10.2806 5.40179 10.3379C5.43304 10.3952 5.47275 10.4375 5.52093 10.4648C5.5691 10.4909 5.62574 10.5039 5.69085 10.5039C5.75335 10.5039 5.80804 10.4909 5.85491 10.4648C5.90309 10.4375 5.94215 10.3952 5.9721 10.3379C6.00335 10.2806 6.02679 10.2077 6.04241 10.1191C6.05804 10.0293 6.06585 9.92122 6.06585 9.79492ZM8.73689 10.0371H9.40485C9.40616 10.2507 9.36449 10.4329 9.27985 10.584C9.19652 10.7337 9.07868 10.847 8.92634 10.9238C8.774 11.0007 8.59561 11.0391 8.39118 11.0391C8.22582 11.0391 8.07933 11.0104 7.95173 10.9531C7.82413 10.8958 7.7167 10.8125 7.62946 10.7031C7.54222 10.5938 7.47647 10.4616 7.4322 10.3066C7.38793 10.1504 7.36579 9.97331 7.36579 9.77539V9.37891C7.36579 9.18229 7.38923 9.00586 7.4361 8.84961C7.48428 8.69336 7.55199 8.56055 7.63923 8.45117C7.72777 8.3418 7.83454 8.25846 7.95954 8.20117C8.08584 8.14388 8.22647 8.11523 8.38142 8.11523C8.59887 8.11523 8.78246 8.15625 8.9322 8.23828C9.08324 8.31901 9.19913 8.4362 9.27985 8.58984C9.36058 8.74219 9.40355 8.92513 9.40876 9.13867H8.74079C8.7473 9.01497 8.73949 8.91797 8.71735 8.84766C8.69522 8.77604 8.65616 8.72591 8.60017 8.69727C8.54548 8.66732 8.47256 8.65234 8.38142 8.65234C8.31892 8.65234 8.26618 8.66471 8.22321 8.68945C8.18025 8.71419 8.14574 8.75521 8.1197 8.8125C8.09366 8.86849 8.07478 8.94271 8.06306 9.03516C8.05134 9.1276 8.04548 9.24089 8.04548 9.375V9.77539C8.04548 9.91211 8.05004 10.0267 8.05915 10.1191C8.06827 10.2116 8.08519 10.2865 8.10993 10.3438C8.13597 10.3997 8.17113 10.4401 8.2154 10.4648C8.26097 10.4896 8.31957 10.502 8.39118 10.502C8.4667 10.502 8.53116 10.4896 8.58454 10.4648C8.63793 10.4388 8.67829 10.3926 8.70564 10.3262C8.73298 10.2585 8.7434 10.1621 8.73689 10.0371ZM10.6364 8.15625L10.9568 9.10156L11.2732 8.15625H12.0329L11.3982 9.56641L12.0485 11H11.281L10.9568 10.0371L10.6306 11H9.8591L10.5134 9.56641L9.87472 8.15625H10.6364Z" fill="white"/>
</svg>
