<svg width="16" height="16" viewBox="0 0 16 16" fill="none" xmlns="http://www.w3.org/2000/svg">
<rect width="16" height="16" fill="white"/>
<path d="M4.45833 0C3.93125 0 3.5 0.45 3.5 1V15C3.5 15.55 3.93125 16 4.45833 16H14.0417C14.5687 16 15 15.55 15 15V3.6129L11.25 0H4.45833Z" fill="#E2E5E7"/>
<path d="M12 3.6129H15L11.25 0L11.3125 2.90323C11.3125 3.20766 11.25 3.6129 12 3.6129Z" fill="#B0B7BD"/>
<path d="M15 6.71006L12 3.61328H15V6.71006Z" fill="#CAD1D8"/>
<path d="M3.5 7.74219H13V13.3804C13 13.9722 12.5203 14.4519 11.9286 14.4519H3.5V7.74219Z" fill="#2B5382"/>
<rect x="1" y="5.67773" width="12" height="8.25806" rx="2" fill="#2D73C5"/>
<path d="M4.65709 9.28516V9.8125H3.50474V9.28516H4.65709ZM3.72349 8.15625V11H3.05552V8.15625H3.72349ZM5.10826 8.15625V11H4.44029V8.15625H5.10826ZM6.99609 8.15625V11H6.32617V8.15625H6.99609ZM7.68555 8.15625V8.68555H5.65625V8.15625H7.68555ZM8.63002 8.15625H9.17104L9.6183 10.1348L10.0656 8.15625H10.6046L9.83901 11H9.3976L8.63002 8.15625ZM8.29604 8.15625H8.85658L8.96401 10.3359V11H8.29604V8.15625ZM10.3781 8.15625H10.9406V11H10.2706V10.3359L10.3781 8.15625Z" fill="white"/>
</svg>
