<svg width="16" height="16" viewBox="0 0 16 16" fill="none" xmlns="http://www.w3.org/2000/svg">
<rect width="16" height="16" fill="white"/>
<path d="M4.45833 0C3.93125 0 3.5 0.45 3.5 1V15C3.5 15.55 3.93125 16 4.45833 16H14.0417C14.5687 16 15 15.55 15 15V3.6129L11.25 0H4.45833Z" fill="#E2E5E7"/>
<path d="M12 3.6129H15L11.25 0L11.3125 2.90323C11.3125 3.20766 11.25 3.6129 12 3.6129Z" fill="#B0B7BD"/>
<path d="M15 6.71006L12 3.61328H15V6.71006Z" fill="#CAD1D8"/>
<path d="M3.5 7.74219H13V13.3804C13 13.9722 12.5203 14.4519 11.9286 14.4519H3.5V7.74219Z" fill="#757373"/>
<rect x="1" y="5.67773" width="12" height="8.25806" rx="2" fill="#8C8C8C"/>
<path d="M5.23326 8.15625V11H4.56724V8.15625H5.23326ZM8.02344 8.15625V11H7.35742L6.64453 9.23047V11H5.97656V8.15625H6.64453L7.35742 9.92578V8.15625H8.02344ZM9.4308 8.15625V11H8.76479V8.15625H9.4308Z" fill="white"/>
</svg>
