<svg width="16" height="16" viewBox="0 0 16 16" fill="none" xmlns="http://www.w3.org/2000/svg">
<rect width="16" height="16" fill="white"/>
<path d="M4.45833 0C3.93125 0 3.5 0.45 3.5 1V15C3.5 15.55 3.93125 16 4.45833 16H14.0417C14.5687 16 15 15.55 15 15V3.6129L11.25 0H4.45833Z" fill="#E2E5E7"/>
<path d="M12 3.6129H15L11.25 0L11.3125 2.90323C11.3125 3.20766 11.25 3.6129 12 3.6129Z" fill="#B0B7BD"/>
<path d="M15 6.71006L12 3.61328H15V6.71006Z" fill="#CAD1D8"/>
<path d="M3.5 7.74219H13V13.3804C13 13.9722 12.5203 14.4519 11.9286 14.4519H3.5V7.74219Z" fill="#CCA030"/>
<rect x="1" y="5.67773" width="12" height="8.25806" rx="2" fill="#FFC93D"/>
<path d="M3.11747 10.1074V8.15625H3.78348V10.1074C3.78348 10.2975 3.74572 10.4622 3.6702 10.6016C3.59598 10.7409 3.49442 10.849 3.36551 10.9258C3.23791 11.0013 3.09468 11.0391 2.93583 11.0391C2.77307 11.0391 2.62723 11.0072 2.49833 10.9434C2.37072 10.8796 2.27046 10.7812 2.19754 10.6484C2.12463 10.5156 2.08817 10.3464 2.08817 10.1406H2.75809C2.75809 10.237 2.7646 10.3125 2.77762 10.3672C2.79195 10.4206 2.81213 10.4583 2.83817 10.4805C2.86421 10.5013 2.89676 10.5117 2.93583 10.5117C2.97749 10.5117 3.01135 10.4961 3.03739 10.4648C3.06343 10.4323 3.08296 10.3861 3.09598 10.3262C3.1103 10.265 3.11747 10.1921 3.11747 10.1074ZM5.68889 10.2441C5.68889 10.1999 5.68434 10.1602 5.67522 10.125C5.66741 10.0885 5.65113 10.0547 5.62639 10.0234C5.60296 9.99219 5.56715 9.96094 5.51897 9.92969C5.4708 9.89714 5.40634 9.86328 5.32561 9.82812C5.22405 9.78646 5.12444 9.73958 5.02679 9.6875C4.92913 9.63411 4.84124 9.57227 4.76311 9.50195C4.68629 9.43034 4.62444 9.34701 4.57757 9.25195C4.53069 9.1556 4.50725 9.04362 4.50725 8.91602C4.50725 8.79362 4.53069 8.68359 4.57757 8.58594C4.62574 8.48698 4.6915 8.40299 4.77483 8.33398C4.85947 8.26367 4.95908 8.21029 5.07366 8.17383C5.18824 8.13607 5.31324 8.11719 5.44866 8.11719C5.62835 8.11719 5.78655 8.15365 5.92327 8.22656C6.06129 8.29818 6.16871 8.40039 6.24554 8.5332C6.32366 8.66471 6.36272 8.82031 6.36272 9H5.69671C5.69671 8.92839 5.68759 8.86523 5.66936 8.81055C5.65113 8.75586 5.62249 8.71289 5.58343 8.68164C5.54567 8.65039 5.49554 8.63477 5.43304 8.63477C5.37705 8.63477 5.32952 8.64779 5.29046 8.67383C5.2527 8.69987 5.22405 8.73503 5.20452 8.7793C5.18499 8.82227 5.17522 8.86979 5.17522 8.92188C5.17522 8.96484 5.18499 9.00391 5.20452 9.03906C5.22405 9.07292 5.25074 9.10482 5.2846 9.13477C5.31975 9.16471 5.36012 9.19336 5.40569 9.2207C5.45257 9.24805 5.5027 9.27474 5.55608 9.30078C5.68499 9.34896 5.79892 9.40299 5.89788 9.46289C5.99814 9.52148 6.08212 9.58854 6.14983 9.66406C6.21754 9.73828 6.26832 9.82292 6.30218 9.91797C6.33733 10.013 6.35491 10.1204 6.35491 10.2402C6.35491 10.3678 6.33408 10.4811 6.29241 10.5801C6.25205 10.679 6.1928 10.763 6.11468 10.832C6.03655 10.8997 5.94215 10.9512 5.83147 10.9863C5.7221 11.0215 5.5984 11.0391 5.46038 11.0391C5.33408 11.0391 5.20973 11.0208 5.08733 10.9844C4.96624 10.9466 4.85621 10.8893 4.75725 10.8125C4.6596 10.7344 4.58147 10.6348 4.52288 10.5137C4.46429 10.3913 4.43499 10.2461 4.43499 10.0781H5.10686C5.10686 10.1615 5.11337 10.2318 5.12639 10.2891C5.13942 10.3464 5.1596 10.3926 5.18694 10.4277C5.21559 10.4616 5.25205 10.4863 5.29632 10.502C5.34059 10.5163 5.39528 10.5234 5.46038 10.5234C5.52028 10.5234 5.5665 10.5111 5.59905 10.4863C5.63291 10.4603 5.65634 10.4264 5.66936 10.3848C5.68238 10.3418 5.68889 10.2949 5.68889 10.2441ZM9.0865 9.36523V9.79492C9.0865 9.99935 9.0611 10.179 9.01032 10.334C8.95954 10.4889 8.88728 10.6191 8.79353 10.7246C8.69978 10.8288 8.58845 10.9076 8.45954 10.9609C8.33194 11.013 8.19001 11.0391 8.03376 11.0391C7.87621 11.0391 7.73298 11.013 7.60407 10.9609C7.47517 10.9076 7.36384 10.8288 7.27009 10.7246C7.17634 10.6191 7.10407 10.4889 7.05329 10.334C7.00251 10.179 6.97712 9.99935 6.97712 9.79492V9.36523C6.97712 9.16081 7.00251 8.98047 7.05329 8.82422C7.10407 8.66797 7.17569 8.53776 7.26814 8.43359C7.36189 8.32943 7.47321 8.25065 7.60212 8.19727C7.73103 8.14388 7.87426 8.11719 8.03181 8.11719C8.18806 8.11719 8.33064 8.14388 8.45954 8.19727C8.58975 8.25065 8.70108 8.32943 8.79353 8.43359C8.88597 8.53776 8.95759 8.66797 9.00837 8.82422C9.06045 8.98047 9.0865 9.16081 9.0865 9.36523ZM8.40876 9.79492V9.36133C8.40876 9.23372 8.40095 9.125 8.38532 9.03516C8.3697 8.94531 8.34626 8.8724 8.31501 8.81641C8.28376 8.76042 8.2447 8.7194 8.19782 8.69336C8.15095 8.66732 8.09561 8.6543 8.03181 8.6543C7.9654 8.6543 7.90876 8.66732 7.86189 8.69336C7.81501 8.7194 7.77595 8.76042 7.7447 8.81641C7.71475 8.8724 7.69262 8.94531 7.67829 9.03516C7.66397 9.125 7.65681 9.23372 7.65681 9.36133V9.79492C7.65681 9.92122 7.66397 10.0293 7.67829 10.1191C7.69262 10.2077 7.71475 10.2806 7.7447 10.3379C7.77595 10.3952 7.81566 10.4375 7.86384 10.4648C7.91202 10.4909 7.96866 10.5039 8.03376 10.5039C8.09626 10.5039 8.15095 10.4909 8.19782 10.4648C8.246 10.4375 8.28506 10.3952 8.31501 10.3379C8.34626 10.2806 8.3697 10.2077 8.38532 10.1191C8.40095 10.0293 8.40876 9.92122 8.40876 9.79492ZM11.8025 8.15625V11H11.1364L10.4235 9.23047V11H9.75558V8.15625H10.4235L11.1364 9.92578V8.15625H11.8025Z" fill="white"/>
</svg>
