<svg width="16" height="16" viewBox="0 0 16 16" fill="none" xmlns="http://www.w3.org/2000/svg">
<rect width="16" height="16" fill="white"/>
<path d="M4.45833 0C3.93125 0 3.5 0.45 3.5 1V15C3.5 15.55 3.93125 16 4.45833 16H14.0417C14.5687 16 15 15.55 15 15V3.6129L11.25 0H4.45833Z" fill="#E2E5E7"/>
<path d="M12 3.6129H15L11.25 0L11.3125 2.90323C11.3125 3.20766 11.25 3.6129 12 3.6129Z" fill="#B0B7BD"/>
<path d="M15 6.71006L12 3.61328H15V6.71006Z" fill="#CAD1D8"/>
<path d="M3.5 7.74219H13V13.3804C13 13.9722 12.5203 14.4519 11.9286 14.4519H3.5V7.74219Z" fill="#2C6EBC"/>
<rect x="1" y="5.67773" width="12" height="8.25806" rx="2" fill="#449AFF"/>
<path d="M4.64931 8.15625H5.19032L5.63759 10.1348L6.08485 8.15625H6.62392L5.85829 11H5.41689L4.64931 8.15625ZM4.31532 8.15625H4.87587L4.98329 10.3359V11H4.31532V8.15625ZM6.39735 8.15625H6.95985V11H6.28993V10.3359L6.39735 8.15625ZM8.47074 11H7.94925L7.95316 10.4727H8.47074C8.56839 10.4727 8.64782 10.4512 8.70902 10.4082C8.77152 10.3652 8.81774 10.2943 8.84769 10.1953C8.87764 10.0951 8.89261 9.96159 8.89261 9.79492V9.35938C8.89261 9.23438 8.88415 9.12891 8.86722 9.04297C8.85159 8.95703 8.82686 8.88802 8.793 8.83594C8.75915 8.78385 8.71423 8.74609 8.65824 8.72266C8.60225 8.69792 8.53584 8.68555 8.45902 8.68555H7.93949V8.15625H8.45902C8.62568 8.15625 8.77673 8.18359 8.91214 8.23828C9.04886 8.29167 9.1667 8.37109 9.26566 8.47656C9.36462 8.58073 9.44079 8.70703 9.49417 8.85547C9.54756 9.00391 9.57425 9.17318 9.57425 9.36328V9.79492C9.57425 9.98372 9.54756 10.153 9.49417 10.3027C9.44079 10.4512 9.36462 10.5775 9.26566 10.6816C9.168 10.7858 9.05146 10.8652 8.91605 10.9199C8.78193 10.9733 8.6335 11 8.47074 11ZM8.33988 8.15625V11H7.67191V8.15625H8.33988Z" fill="white"/>
</svg>
