<svg width="16" height="16" viewBox="0 0 16 16" fill="none" xmlns="http://www.w3.org/2000/svg">
<rect width="16" height="16" fill="white"/>
<path d="M4.45833 0C3.93125 0 3.5 0.45 3.5 1V15C3.5 15.55 3.93125 16 4.45833 16H14.0417C14.5687 16 15 15.55 15 15V3.6129L11.25 0H4.45833Z" fill="#E2E5E7"/>
<path d="M12 3.6129H15L11.25 0L11.3125 2.90323C11.3125 3.20766 11.25 3.6129 12 3.6129Z" fill="#B0B7BD"/>
<path d="M15 6.71006L12 3.61328H15V6.71006Z" fill="#CAD1D8"/>
<path d="M3.5 7.74219H13V13.3804C13 13.9722 12.5203 14.4519 11.9286 14.4519H3.5V7.74219Z" fill="#008E67"/>
<rect x="1" y="5.67773" width="12" height="8.25806" rx="2" fill="#00B583"/>
<path d="M3.40318 8.15625H3.9442L4.39146 10.1348L4.83873 8.15625H5.37779L4.61216 11H4.17076L3.40318 8.15625ZM3.0692 8.15625H3.62974L3.73716 10.3359V11H3.0692V8.15625ZM5.15123 8.15625H5.71373V11H5.04381V10.3359L5.15123 8.15625ZM7.09375 8.15625V11H6.42578V8.15625H7.09375ZM8.50391 8.15625L7.60547 9.59766L7.05273 10.3027L6.92578 9.67383L7.25781 9.04883L7.68164 8.15625H8.50391ZM7.69922 11L7.17969 9.71875L7.70117 9.32617L8.48828 11H7.69922ZM9.91713 10.3301L10.3546 8.15625H11.1046L10.3156 11H9.8351L9.91713 10.3301ZM9.54994 8.15625L9.9894 10.3301L10.0753 11H9.58901L8.80385 8.15625H9.54994Z" fill="white"/>
</svg>
