<svg width="16" height="16" viewBox="0 0 16 16" fill="none" xmlns="http://www.w3.org/2000/svg">
<rect width="16" height="16" fill="white"/>
<path d="M4.45833 0C3.93125 0 3.5 0.45 3.5 1V15C3.5 15.55 3.93125 16 4.45833 16H14.0417C14.5687 16 15 15.55 15 15V3.6129L11.25 0H4.45833Z" fill="#E2E5E7"/>
<path d="M12 3.6129H15L11.25 0L11.3125 2.90323C11.3125 3.20766 11.25 3.6129 12 3.6129Z" fill="#B0B7BD"/>
<path d="M15 6.71006L12 3.61328H15V6.71006Z" fill="#CAD1D8"/>
<path d="M3.5 7.74219H13V13.3804C13 13.9722 12.5203 14.4519 11.9286 14.4519H3.5V7.74219Z" fill="#1B879E"/>
<rect x="1" y="5.67773" width="12" height="8.25806" rx="2" fill="#21B3D2"/>
<path d="M3.40318 8.15625H3.9442L4.39146 10.1348L4.83873 8.15625H5.37779L4.61216 11H4.17076L3.40318 8.15625ZM3.0692 8.15625H3.62974L3.73716 10.3359V11H3.0692V8.15625ZM5.15123 8.15625H5.71373V11H5.04381V10.3359L5.15123 8.15625ZM7.61914 10.2441C7.61914 10.1999 7.61458 10.1602 7.60547 10.125C7.59766 10.0885 7.58138 10.0547 7.55664 10.0234C7.5332 9.99219 7.4974 9.96094 7.44922 9.92969C7.40104 9.89714 7.33659 9.86328 7.25586 9.82812C7.1543 9.78646 7.05469 9.73958 6.95703 9.6875C6.85938 9.63411 6.77148 9.57227 6.69336 9.50195C6.61654 9.43034 6.55469 9.34701 6.50781 9.25195C6.46094 9.1556 6.4375 9.04362 6.4375 8.91602C6.4375 8.79362 6.46094 8.68359 6.50781 8.58594C6.55599 8.48698 6.62174 8.40299 6.70508 8.33398C6.78971 8.26367 6.88932 8.21029 7.00391 8.17383C7.11849 8.13607 7.24349 8.11719 7.37891 8.11719C7.55859 8.11719 7.7168 8.15365 7.85352 8.22656C7.99154 8.29818 8.09896 8.40039 8.17578 8.5332C8.25391 8.66471 8.29297 8.82031 8.29297 9H7.62695C7.62695 8.92839 7.61784 8.86523 7.59961 8.81055C7.58138 8.75586 7.55273 8.71289 7.51367 8.68164C7.47591 8.65039 7.42578 8.63477 7.36328 8.63477C7.30729 8.63477 7.25977 8.64779 7.2207 8.67383C7.18294 8.69987 7.1543 8.73503 7.13477 8.7793C7.11523 8.82227 7.10547 8.86979 7.10547 8.92188C7.10547 8.96484 7.11523 9.00391 7.13477 9.03906C7.1543 9.07292 7.18099 9.10482 7.21484 9.13477C7.25 9.16471 7.29036 9.19336 7.33594 9.2207C7.38281 9.24805 7.43294 9.27474 7.48633 9.30078C7.61523 9.34896 7.72917 9.40299 7.82812 9.46289C7.92839 9.52148 8.01237 9.58854 8.08008 9.66406C8.14779 9.73828 8.19857 9.82292 8.23242 9.91797C8.26758 10.013 8.28516 10.1204 8.28516 10.2402C8.28516 10.3678 8.26432 10.4811 8.22266 10.5801C8.18229 10.679 8.12305 10.763 8.04492 10.832C7.9668 10.8997 7.8724 10.9512 7.76172 10.9863C7.65234 11.0215 7.52865 11.0391 7.39062 11.0391C7.26432 11.0391 7.13997 11.0208 7.01758 10.9844C6.89648 10.9466 6.78646 10.8893 6.6875 10.8125C6.58984 10.7344 6.51172 10.6348 6.45312 10.5137C6.39453 10.3913 6.36523 10.2461 6.36523 10.0781H7.03711C7.03711 10.1615 7.04362 10.2318 7.05664 10.2891C7.06966 10.3464 7.08984 10.3926 7.11719 10.4277C7.14583 10.4616 7.18229 10.4863 7.22656 10.502C7.27083 10.5163 7.32552 10.5234 7.39062 10.5234C7.45052 10.5234 7.49674 10.5111 7.5293 10.4863C7.56315 10.4603 7.58659 10.4264 7.59961 10.3848C7.61263 10.3418 7.61914 10.2949 7.61914 10.2441ZM10.9562 9.48047V10.668C10.9119 10.7109 10.8468 10.7617 10.7609 10.8203C10.6749 10.8789 10.5669 10.9303 10.4367 10.9746C10.3078 11.0176 10.1554 11.0391 9.97963 11.0391C9.81687 11.0391 9.67039 11.0143 9.54018 10.9648C9.40997 10.9154 9.29864 10.8405 9.20619 10.7402C9.11505 10.6387 9.04474 10.5117 8.99526 10.3594C8.94578 10.2057 8.92104 10.0241 8.92104 9.81445V9.34375C8.92104 9.13542 8.94578 8.95378 8.99526 8.79883C9.04604 8.64388 9.117 8.51628 9.20815 8.41602C9.29929 8.31576 9.40737 8.24089 9.53237 8.19141C9.65737 8.14062 9.79604 8.11523 9.94838 8.11523C10.1762 8.11523 10.3631 8.15365 10.5089 8.23047C10.6561 8.30729 10.7661 8.41797 10.839 8.5625C10.9119 8.70573 10.9503 8.87956 10.9542 9.08398H10.3136C10.3084 8.97591 10.2928 8.88932 10.2667 8.82422C10.2407 8.75911 10.2036 8.71289 10.1554 8.68555C10.1072 8.6569 10.046 8.64258 9.97182 8.64258C9.91192 8.64258 9.85854 8.6543 9.81166 8.67773C9.76609 8.70117 9.72703 8.74023 9.69448 8.79492C9.66323 8.84831 9.63914 8.91992 9.62221 9.00977C9.60658 9.09961 9.59877 9.20964 9.59877 9.33984V9.81445C9.59877 9.94336 9.60658 10.0527 9.62221 10.1426C9.63783 10.2324 9.66192 10.304 9.69448 10.3574C9.72703 10.4108 9.77065 10.4499 9.82533 10.4746C9.88002 10.4993 9.94773 10.5117 10.0285 10.5117C10.0779 10.5117 10.119 10.5052 10.1515 10.4922C10.1841 10.4792 10.2114 10.4642 10.2335 10.4473C10.2557 10.4303 10.2739 10.4186 10.2882 10.4121V9.95117H9.94838V9.48047H10.9562Z" fill="white"/>
</svg>
