<svg width="16" height="16" viewBox="0 0 16 16" fill="none" xmlns="http://www.w3.org/2000/svg">
<rect width="16" height="16" fill="white"/>
<path d="M4.45833 0C3.93125 0 3.5 0.45 3.5 1V15C3.5 15.55 3.93125 16 4.45833 16H14.0417C14.5687 16 15 15.55 15 15V3.6129L11.25 0H4.45833Z" fill="#E2E5E7"/>
<path d="M12 3.6129H15L11.25 0L11.3125 2.90323C11.3125 3.20766 11.25 3.6129 12 3.6129Z" fill="#B0B7BD"/>
<path d="M15 6.71006L12 3.61328H15V6.71006Z" fill="#CAD1D8"/>
<path d="M3.5 7.74219H13V13.3804C13 13.9722 12.5203 14.4519 11.9286 14.4519H3.5V7.74219Z" fill="#CA4942"/>
<rect x="1" y="5.67773" width="12" height="8.25806" rx="2" fill="#FF5C52"/>
<path d="M4.63951 10.0352H4.07115V9.50586H4.63951C4.70592 9.50586 4.7593 9.48958 4.79967 9.45703C4.84133 9.42448 4.87128 9.37956 4.88951 9.32227C4.90904 9.26367 4.91881 9.19792 4.91881 9.125C4.91881 9.04688 4.90904 8.97461 4.88951 8.9082C4.87128 8.8418 4.84133 8.78841 4.79967 8.74805C4.7593 8.70638 4.70592 8.68555 4.63951 8.68555H4.31529V11H3.64732V8.15625H4.63951C4.83612 8.15625 5.00539 8.19792 5.14732 8.28125C5.29055 8.36458 5.40058 8.47917 5.4774 8.625C5.55552 8.76953 5.59459 8.9349 5.59459 9.12109C5.59459 9.30469 5.55552 9.46484 5.4774 9.60156C5.40058 9.73828 5.29055 9.84505 5.14732 9.92188C5.00539 9.9974 4.83612 10.0352 4.63951 10.0352ZM7.06836 11H6.54688L6.55078 10.4727H7.06836C7.16602 10.4727 7.24544 10.4512 7.30664 10.4082C7.36914 10.3652 7.41536 10.2943 7.44531 10.1953C7.47526 10.0951 7.49023 9.96159 7.49023 9.79492V9.35938C7.49023 9.23438 7.48177 9.12891 7.46484 9.04297C7.44922 8.95703 7.42448 8.88802 7.39062 8.83594C7.35677 8.78385 7.31185 8.74609 7.25586 8.72266C7.19987 8.69792 7.13346 8.68555 7.05664 8.68555H6.53711V8.15625H7.05664C7.22331 8.15625 7.37435 8.18359 7.50977 8.23828C7.64648 8.29167 7.76432 8.37109 7.86328 8.47656C7.96224 8.58073 8.03841 8.70703 8.0918 8.85547C8.14518 9.00391 8.17188 9.17318 8.17188 9.36328V9.79492C8.17188 9.98372 8.14518 10.153 8.0918 10.3027C8.03841 10.4512 7.96224 10.5775 7.86328 10.6816C7.76562 10.7858 7.64909 10.8652 7.51367 10.9199C7.37956 10.9733 7.23112 11 7.06836 11ZM6.9375 8.15625V11H6.26953V8.15625H6.9375ZM9.50502 8.15625V11H8.83705V8.15625H9.50502ZM10.3781 9.33984V9.86719H9.32338V9.33984H10.3781ZM10.4581 8.15625V8.68555H9.32338V8.15625H10.4581Z" fill="white"/>
</svg>
