<svg width="16" height="16" viewBox="0 0 16 16" fill="none" xmlns="http://www.w3.org/2000/svg">
<rect width="16" height="16" fill="white"/>
<path d="M4.45833 0C3.93125 0 3.5 0.45 3.5 1V15C3.5 15.55 3.93125 16 4.45833 16H14.0417C14.5687 16 15 15.55 15 15V3.6129L11.25 0H4.45833Z" fill="#E2E5E7"/>
<path d="M12 3.6129H15L11.25 0L11.3125 2.90323C11.3125 3.20766 11.25 3.6129 12 3.6129Z" fill="#B0B7BD"/>
<path d="M15 6.71006L12 3.61328H15V6.71006Z" fill="#CAD1D8"/>
<path d="M3.5 7.74219H13V13.3804C13 13.9722 12.5203 14.4519 11.9286 14.4519H3.5V7.74219Z" fill="#C66A08"/>
<rect x="1" y="5.67773" width="12" height="8.25806" rx="2" fill="#FC8507"/>
<path d="M4.31334 10.0352H3.74498V9.50586H4.31334C4.37974 9.50586 4.43313 9.48958 4.47349 9.45703C4.51516 9.42448 4.54511 9.37956 4.56334 9.32227C4.58287 9.26367 4.59263 9.19792 4.59263 9.125C4.59263 9.04688 4.58287 8.97461 4.56334 8.9082C4.54511 8.8418 4.51516 8.78841 4.47349 8.74805C4.43313 8.70638 4.37974 8.68555 4.31334 8.68555H3.98912V11H3.32115V8.15625H4.31334C4.50995 8.15625 4.67922 8.19792 4.82115 8.28125C4.96438 8.36458 5.0744 8.47917 5.15123 8.625C5.22935 8.76953 5.26842 8.9349 5.26842 9.12109C5.26842 9.30469 5.22935 9.46484 5.15123 9.60156C5.0744 9.73828 4.96438 9.84505 4.82115 9.92188C4.67922 9.9974 4.50995 10.0352 4.31334 10.0352ZM7.99023 8.15625V11H7.32422L6.61133 9.23047V11H5.94336V8.15625H6.61133L7.32422 9.92578V8.15625H7.99023ZM10.7042 9.48047V10.668C10.66 10.7109 10.5949 10.7617 10.5089 10.8203C10.423 10.8789 10.3149 10.9303 10.1847 10.9746C10.0558 11.0176 9.90346 11.0391 9.72768 11.0391C9.56492 11.0391 9.41843 11.0143 9.28823 10.9648C9.15802 10.9154 9.04669 10.8405 8.95424 10.7402C8.86309 10.6387 8.79278 10.5117 8.7433 10.3594C8.69382 10.2057 8.66908 10.0241 8.66908 9.81445V9.34375C8.66908 9.13542 8.69382 8.95378 8.7433 8.79883C8.79408 8.64388 8.86505 8.51628 8.95619 8.41602C9.04734 8.31576 9.15541 8.24089 9.28041 8.19141C9.40541 8.14062 9.54408 8.11523 9.69643 8.11523C9.92429 8.11523 10.1111 8.15365 10.257 8.23047C10.4041 8.30729 10.5141 8.41797 10.5871 8.5625C10.66 8.70573 10.6984 8.87956 10.7023 9.08398H10.0617C10.0565 8.97591 10.0408 8.88932 10.0148 8.82422C9.98875 8.75911 9.95164 8.71289 9.90346 8.68555C9.85528 8.6569 9.79408 8.64258 9.71987 8.64258C9.65997 8.64258 9.60658 8.6543 9.55971 8.67773C9.51414 8.70117 9.47507 8.74023 9.44252 8.79492C9.41127 8.84831 9.38718 8.91992 9.37026 9.00977C9.35463 9.09961 9.34682 9.20964 9.34682 9.33984V9.81445C9.34682 9.94336 9.35463 10.0527 9.37026 10.1426C9.38588 10.2324 9.40997 10.304 9.44252 10.3574C9.47507 10.4108 9.51869 10.4499 9.57338 10.4746C9.62807 10.4993 9.69578 10.5117 9.77651 10.5117C9.82599 10.5117 9.867 10.5052 9.89955 10.4922C9.93211 10.4792 9.95945 10.4642 9.98158 10.4473C10.0037 10.4303 10.0219 10.4186 10.0363 10.4121V9.95117H9.69643V9.48047H10.7042Z" fill="white"/>
</svg>
