<svg width="16" height="16" viewBox="0 0 16 16" fill="none" xmlns="http://www.w3.org/2000/svg">
<rect width="16" height="16" fill="white"/>
<path d="M4.45833 0C3.93125 0 3.5 0.45 3.5 1V15C3.5 15.55 3.93125 16 4.45833 16H14.0417C14.5687 16 15 15.55 15 15V3.6129L11.25 0H4.45833Z" fill="#E2E5E7"/>
<path d="M12 3.6129H15L11.25 0L11.3125 2.90323C11.3125 3.20766 11.25 3.6129 12 3.6129Z" fill="#B0B7BD"/>
<path d="M15 6.71006L12 3.61328H15V6.71006Z" fill="#CAD1D8"/>
<path d="M3.5 7.74219H13V13.3804C13 13.9722 12.5203 14.4519 11.9286 14.4519H3.5V7.74219Z" fill="#2C6EBC"/>
<rect x="1" y="5.67773" width="12" height="8.25806" rx="2" fill="#449AFF"/>
<path d="M3.6507 8.15625H4.62336C4.81346 8.15625 4.97818 8.1888 5.1175 8.25391C5.25682 8.31901 5.36359 8.41536 5.43781 8.54297C5.51333 8.67057 5.55109 8.82812 5.55109 9.01562C5.55109 9.17839 5.53026 9.31445 5.48859 9.42383C5.44823 9.5332 5.39094 9.6237 5.31672 9.69531C5.2425 9.76562 5.15526 9.82357 5.055 9.86914L4.8382 9.99609H4.07453L4.07062 9.4668H4.60773C4.66893 9.4668 4.71971 9.45117 4.76008 9.41992C4.80044 9.38867 4.83039 9.3444 4.84992 9.28711C4.87075 9.22852 4.88117 9.15885 4.88117 9.07812C4.88117 8.99609 4.87141 8.92578 4.85187 8.86719C4.83234 8.80859 4.8037 8.76367 4.76594 8.73242C4.72948 8.70117 4.68195 8.68555 4.62336 8.68555H4.31867V11H3.6507V8.15625ZM4.91047 11L4.40656 9.74219L5.11359 9.73828L5.62726 10.9707V11H4.91047ZM7.38229 8.15625V11H6.71237V8.15625H7.38229ZM8.07174 8.15625V8.68555H6.04244V8.15625H8.07174ZM9.3502 8.15625V11H8.68223V8.15625H9.3502ZM10.2232 9.33984V9.86719H9.16856V9.33984H10.2232ZM10.3033 8.15625V8.68555H9.16856V8.15625H10.3033Z" fill="white"/>
</svg>
