<svg width="16" height="16" viewBox="0 0 16 16" fill="none" xmlns="http://www.w3.org/2000/svg">
<rect width="16" height="16" fill="white"/>
<path d="M4.45833 0C3.93125 0 3.5 0.45 3.5 1V15C3.5 15.55 3.93125 16 4.45833 16H14.0417C14.5687 16 15 15.55 15 15V3.6129L11.25 0H4.45833Z" fill="#E2E5E7"/>
<path d="M12 3.6129H15L11.25 0L11.3125 2.90323C11.3125 3.20766 11.25 3.6129 12 3.6129Z" fill="#B0B7BD"/>
<path d="M15 6.71006L12 3.61328H15V6.71006Z" fill="#CAD1D8"/>
<path d="M3.5 7.74219H13V13.3804C13 13.9722 12.5203 14.4519 11.9286 14.4519H3.5V7.74219Z" fill="#AE8763"/>
<rect x="1" y="5.67773" width="12" height="8.25806" rx="2" fill="#EEB37C"/>
<path d="M5.02818 10.2441C5.02818 10.1999 5.02362 10.1602 5.01451 10.125C5.0067 10.0885 4.99042 10.0547 4.96568 10.0234C4.94224 9.99219 4.90644 9.96094 4.85826 9.92969C4.81008 9.89714 4.74563 9.86328 4.6649 9.82812C4.56334 9.78646 4.46373 9.73958 4.36607 9.6875C4.26842 9.63411 4.18052 9.57227 4.1024 9.50195C4.02558 9.43034 3.96373 9.34701 3.91685 9.25195C3.86998 9.1556 3.84654 9.04362 3.84654 8.91602C3.84654 8.79362 3.86998 8.68359 3.91685 8.58594C3.96503 8.48698 4.03079 8.40299 4.11412 8.33398C4.19875 8.26367 4.29836 8.21029 4.41295 8.17383C4.52753 8.13607 4.65253 8.11719 4.78795 8.11719C4.96763 8.11719 5.12584 8.15365 5.26256 8.22656C5.40058 8.29818 5.508 8.40039 5.58482 8.5332C5.66295 8.66471 5.70201 8.82031 5.70201 9H5.03599C5.03599 8.92839 5.02688 8.86523 5.00865 8.81055C4.99042 8.75586 4.96177 8.71289 4.92271 8.68164C4.88495 8.65039 4.83482 8.63477 4.77232 8.63477C4.71633 8.63477 4.66881 8.64779 4.62974 8.67383C4.59198 8.69987 4.56334 8.73503 4.54381 8.7793C4.52427 8.82227 4.51451 8.86979 4.51451 8.92188C4.51451 8.96484 4.52427 9.00391 4.54381 9.03906C4.56334 9.07292 4.59003 9.10482 4.62388 9.13477C4.65904 9.16471 4.6994 9.19336 4.74498 9.2207C4.79185 9.24805 4.84198 9.27474 4.89537 9.30078C5.02427 9.34896 5.13821 9.40299 5.23717 9.46289C5.33743 9.52148 5.42141 9.58854 5.48912 9.66406C5.55683 9.73828 5.60761 9.82292 5.64146 9.91797C5.67662 10.013 5.6942 10.1204 5.6942 10.2402C5.6942 10.3678 5.67336 10.4811 5.6317 10.5801C5.59133 10.679 5.53209 10.763 5.45396 10.832C5.37584 10.8997 5.28144 10.9512 5.17076 10.9863C5.06138 11.0215 4.93769 11.0391 4.79967 11.0391C4.67336 11.0391 4.54901 11.0208 4.42662 10.9844C4.30552 10.9466 4.1955 10.8893 4.09654 10.8125C3.99888 10.7344 3.92076 10.6348 3.86217 10.5137C3.80357 10.3913 3.77427 10.2461 3.77427 10.0781H4.44615C4.44615 10.1615 4.45266 10.2318 4.46568 10.2891C4.4787 10.3464 4.49888 10.3926 4.52623 10.4277C4.55487 10.4616 4.59133 10.4863 4.6356 10.502C4.67987 10.5163 4.73456 10.5234 4.79967 10.5234C4.85956 10.5234 4.90579 10.5111 4.93834 10.4863C4.97219 10.4603 4.99563 10.4264 5.00865 10.3848C5.02167 10.3418 5.02818 10.2949 5.02818 10.2441ZM8.03906 10.4727V11H6.79492V10.4727H8.03906ZM7.02734 8.15625V11H6.35938V8.15625H7.02734ZM7.87695 9.28516V9.79492H6.79492V9.28516H7.87695ZM8.04492 8.15625V8.68555H6.79492V8.15625H8.04492ZM10.2628 10.4727V11H9.06752V10.4727H10.2628ZM9.3019 8.15625V11H8.63393V8.15625H9.3019Z" fill="white"/>
</svg>
