<svg width="16" height="16" viewBox="0 0 16 16" fill="none" xmlns="http://www.w3.org/2000/svg">
<rect width="16" height="16" fill="white"/>
<path d="M4.45833 0C3.93125 0 3.5 0.45 3.5 1V15C3.5 15.55 3.93125 16 4.45833 16H14.0417C14.5687 16 15 15.55 15 15V3.6129L11.25 0H4.45833Z" fill="#E2E5E7"/>
<path d="M12 3.6129H15L11.25 0L11.3125 2.90323C11.3125 3.20766 11.25 3.6129 12 3.6129Z" fill="#B0B7BD"/>
<path d="M15 6.71006L12 3.61328H15V6.71006Z" fill="#CAD1D8"/>
<path d="M3.5 7.74219H13V13.3804C13 13.9722 12.5203 14.4519 11.9286 14.4519H3.5V7.74219Z" fill="#2B5382"/>
<rect x="1" y="5.67773" width="12" height="8.25806" rx="2" fill="#2D73C5"/>
<path d="M4.37919 8.15625V11H3.70926V8.15625H4.37919ZM5.06864 8.15625V8.68555H3.03934V8.15625H5.06864ZM6.37835 8.15625V11H5.71233V8.15625H6.37835ZM7.78962 8.15625V11H7.12165V8.15625H7.78962ZM8.66267 9.33984V9.86719H7.60798V9.33984H8.66267ZM8.74275 8.15625V8.68555H7.60798V8.15625H8.74275ZM10.0134 8.15625V11H9.34542V8.15625H10.0134ZM10.8864 9.33984V9.86719H9.83175V9.33984H10.8864ZM10.9665 8.15625V8.68555H9.83175V8.15625H10.9665Z" fill="white"/>
</svg>
