<svg width="16" height="16" viewBox="0 0 16 16" fill="none" xmlns="http://www.w3.org/2000/svg">
<rect width="16" height="16" fill="white"/>
<path d="M4.45833 0C3.93125 0 3.5 0.45 3.5 1V15C3.5 15.55 3.93125 16 4.45833 16H14.0417C14.5687 16 15 15.55 15 15V3.6129L11.25 0H4.45833Z" fill="#E2E5E7"/>
<path d="M12 3.6129H15L11.25 0L11.3125 2.90323C11.3125 3.20766 11.25 3.6129 12 3.6129Z" fill="#B0B7BD"/>
<path d="M15 6.71006L12 3.61328H15V6.71006Z" fill="#CAD1D8"/>
<path d="M3.5 7.74219H13V13.3804C13 13.9722 12.5203 14.4519 11.9286 14.4519H3.5V7.74219Z" fill="#7B9D7F"/>
<rect x="1" y="5.67773" width="12" height="8.25806" rx="2" fill="#81D98A"/>
<path d="M4.29771 8.15625L4.61802 9.10156L4.93443 8.15625H5.6942L5.05943 9.56641L5.70982 11H4.94224L4.61802 10.0371L4.29185 11H3.52037L4.17467 9.56641L3.53599 8.15625H4.29771ZM7.88867 10.4727V11H6.69336V10.4727H7.88867ZM6.92773 8.15625V11H6.25977V8.15625H6.92773ZM9.69252 10.2441C9.69252 10.1999 9.68796 10.1602 9.67885 10.125C9.67104 10.0885 9.65476 10.0547 9.63002 10.0234C9.60658 9.99219 9.57078 9.96094 9.5226 9.92969C9.47442 9.89714 9.40997 9.86328 9.32924 9.82812C9.22768 9.78646 9.12807 9.73958 9.03041 9.6875C8.93276 9.63411 8.84487 9.57227 8.76674 9.50195C8.68992 9.43034 8.62807 9.34701 8.58119 9.25195C8.53432 9.1556 8.51088 9.04362 8.51088 8.91602C8.51088 8.79362 8.53432 8.68359 8.58119 8.58594C8.62937 8.48698 8.69513 8.40299 8.77846 8.33398C8.86309 8.26367 8.9627 8.21029 9.07729 8.17383C9.19187 8.13607 9.31687 8.11719 9.45229 8.11719C9.63198 8.11719 9.79018 8.15365 9.9269 8.22656C10.0649 8.29818 10.1723 8.40039 10.2492 8.5332C10.3273 8.66471 10.3664 8.82031 10.3664 9H9.70033C9.70033 8.92839 9.69122 8.86523 9.67299 8.81055C9.65476 8.75586 9.62612 8.71289 9.58705 8.68164C9.54929 8.65039 9.49916 8.63477 9.43666 8.63477C9.38067 8.63477 9.33315 8.64779 9.29408 8.67383C9.25632 8.69987 9.22768 8.73503 9.20815 8.7793C9.18862 8.82227 9.17885 8.86979 9.17885 8.92188C9.17885 8.96484 9.18862 9.00391 9.20815 9.03906C9.22768 9.07292 9.25437 9.10482 9.28823 9.13477C9.32338 9.16471 9.36375 9.19336 9.40932 9.2207C9.45619 9.24805 9.50632 9.27474 9.55971 9.30078C9.68862 9.34896 9.80255 9.40299 9.90151 9.46289C10.0018 9.52148 10.0858 9.58854 10.1535 9.66406C10.2212 9.73828 10.2719 9.82292 10.3058 9.91797C10.341 10.013 10.3585 10.1204 10.3585 10.2402C10.3585 10.3678 10.3377 10.4811 10.296 10.5801C10.2557 10.679 10.1964 10.763 10.1183 10.832C10.0402 10.8997 9.94578 10.9512 9.8351 10.9863C9.72573 11.0215 9.60203 11.0391 9.46401 11.0391C9.3377 11.0391 9.21336 11.0208 9.09096 10.9844C8.96987 10.9466 8.85984 10.8893 8.76088 10.8125C8.66323 10.7344 8.5851 10.6348 8.52651 10.5137C8.46791 10.3913 8.43862 10.2461 8.43862 10.0781H9.11049C9.11049 10.1615 9.117 10.2318 9.13002 10.2891C9.14304 10.3464 9.16323 10.3926 9.19057 10.4277C9.21921 10.4616 9.25567 10.4863 9.29994 10.502C9.34421 10.5163 9.3989 10.5234 9.46401 10.5234C9.5239 10.5234 9.57013 10.5111 9.60268 10.4863C9.63653 10.4603 9.65997 10.4264 9.67299 10.3848C9.68601 10.3418 9.69252 10.2949 9.69252 10.2441Z" fill="white"/>
</svg>
