<svg width="16" height="16" viewBox="0 0 16 16" fill="none" xmlns="http://www.w3.org/2000/svg">
<rect width="16" height="16" fill="white"/>
<path d="M4.45833 0C3.93125 0 3.5 0.45 3.5 1V15C3.5 15.55 3.93125 16 4.45833 16H14.0417C14.5687 16 15 15.55 15 15V3.6129L11.25 0H4.45833Z" fill="#E2E5E7"/>
<path d="M12 3.6129H15L11.25 0L11.3125 2.90323C11.3125 3.20766 11.25 3.6129 12 3.6129Z" fill="#B0B7BD"/>
<path d="M15 6.71006L12 3.61328H15V6.71006Z" fill="#CAD1D8"/>
<path d="M3.5 7.74219H13V13.3804C13 13.9722 12.5203 14.4519 11.9286 14.4519H3.5V7.74219Z" fill="#5534AF"/>
<rect x="1" y="5.67773" width="12" height="8.25806" rx="2" fill="#7C4CFF"/>
<path d="M5.93052 10.4727V11H4.19029V10.4727H5.93052ZM5.92857 8.50781L4.52427 11H4.0399V10.6387L5.46373 8.15625H5.92857V8.50781ZM5.71568 8.15625V8.68555H4.01646V8.15625H5.71568ZM7.25 8.15625V11H6.58398V8.15625H7.25ZM8.98549 10.0352H8.41713V9.50586H8.98549C9.0519 9.50586 9.10528 9.48958 9.14565 9.45703C9.18731 9.42448 9.21726 9.37956 9.23549 9.32227C9.25502 9.26367 9.26479 9.19792 9.26479 9.125C9.26479 9.04688 9.25502 8.97461 9.23549 8.9082C9.21726 8.8418 9.18731 8.78841 9.14565 8.74805C9.10528 8.70638 9.0519 8.68555 8.98549 8.68555H8.66127V11H7.9933V8.15625H8.98549C9.18211 8.15625 9.35138 8.19792 9.4933 8.28125C9.63653 8.36458 9.74656 8.47917 9.82338 8.625C9.90151 8.76953 9.94057 8.9349 9.94057 9.12109C9.94057 9.30469 9.90151 9.46484 9.82338 9.60156C9.74656 9.73828 9.63653 9.84505 9.4933 9.92188C9.35138 9.9974 9.18211 10.0352 8.98549 10.0352Z" fill="white"/>
</svg>
