<svg width="20" height="20" viewBox="0 0 20 20" fill="none" xmlns="http://www.w3.org/2000/svg">
<path fill-rule="evenodd" clip-rule="evenodd" d="M12.4232 2.87802C12.6672 2.63394 13.063 2.63394 13.3071 2.87802L17.1234 6.69432C17.3674 6.9384 17.3674 7.33412 17.1234 7.5782L7.57957 17.122C7.46236 17.2392 7.30338 17.305 7.13762 17.305H3.32031C3.15452 17.305 2.99553 17.2392 2.87831 17.1219C2.7611 17.0047 2.69527 16.8457 2.69531 16.6799L2.69632 12.8636C2.69637 12.6979 2.76221 12.539 2.87938 12.4218L12.4232 2.87802ZM3.94626 13.1227L3.94548 16.055H6.87874L15.7975 7.13626L12.8651 4.20384L11.2661 5.80286L12.8956 7.4324C13.1397 7.67648 13.1397 8.0722 12.8956 8.31628C12.6515 8.56036 12.2558 8.56036 12.0117 8.31628L10.3822 6.68675L3.94626 13.1227Z" fill="#AFAFAF"/>
</svg>
