<svg width="16" height="18" viewBox="0 0 16 18" fill="none" xmlns="http://www.w3.org/2000/svg">
<path d="M9.66536 2.125C10.0105 2.125 10.2904 1.84518 10.2904 1.5C10.2904 1.15482 10.0105 0.875 9.66536 0.875H6.33203C5.98685 0.875 5.70703 1.15482 5.70703 1.5C5.70703 1.84518 5.98685 2.125 6.33203 2.125L9.66536 2.125Z" fill="#AFAFAF"/>
<path d="M15.2904 4C15.2904 4.34518 15.0105 4.625 14.6654 4.625L1.33203 4.625C0.986852 4.625 0.707031 4.34518 0.707031 4C0.707031 3.65482 0.986852 3.375 1.33203 3.375L14.6654 3.375C15.0105 3.375 15.2904 3.65482 15.2904 4Z" fill="#AFAFAF"/>
<path d="M2.9987 6.70833C3.34388 6.70833 3.6237 6.98816 3.6237 7.33333V14.8333C3.6237 15.4086 4.09007 15.875 4.66536 15.875H11.332C11.9073 15.875 12.3737 15.4086 12.3737 14.8333V7.33333C12.3737 6.98816 12.6535 6.70833 12.9987 6.70833C13.3439 6.70833 13.6237 6.98816 13.6237 7.33333V14.8333C13.6237 16.099 12.5977 17.125 11.332 17.125H4.66536C3.39971 17.125 2.3737 16.099 2.3737 14.8333V7.33333C2.3737 6.98816 2.65352 6.70833 2.9987 6.70833Z" fill="#AFAFAF"/>
<path d="M6.33203 8.375C6.67721 8.375 6.95703 8.65482 6.95703 9V13.1667C6.95703 13.5118 6.67721 13.7917 6.33203 13.7917C5.98685 13.7917 5.70703 13.5118 5.70703 13.1667V9C5.70703 8.65482 5.98685 8.375 6.33203 8.375Z" fill="#AFAFAF"/>
<path d="M10.2904 9C10.2904 8.65482 10.0105 8.375 9.66536 8.375C9.32019 8.375 9.04036 8.65482 9.04036 9V13.1667C9.04036 13.5118 9.32019 13.7917 9.66536 13.7917C10.0105 13.7917 10.2904 13.5118 10.2904 13.1667V9Z" fill="#AFAFAF"/>
</svg>
